<?xml version="1.0" standalone="no"?>
<!DOCTYPE svg PUBLIC "-//W3C//DTD SVG 1.1//EN" "http://www.w3.org/Graphics/SVG/1.1/DTD/svg11.dtd" >
<svg>
<metadata>
Created by FontForge 20090914 at Sat Nov 21 23:27:27 2015
 By www-data
Wireframe computer font v1.3 &#194;&#169;2000, 2006, 2009 Harold Lohner &#226;&#128;&#162; HLohner@aol.com &#226;&#128;&#162; www.haroldsfonts.com    Inspired by the "lost" Letraset font BOMBERE designed by Carla Bombere
</metadata>
<defs>
<font id="Wireframe" horiz-adv-x="555" >
  <font-face 
    font-family="Wireframe"
    font-weight="400"
    font-stretch="normal"
    units-per-em="1000"
    panose-1="0 0 4 0 0 0 0 0 0 0"
    ascent="800"
    descent="-200"
    x-height="663"
    cap-height="663"
    bbox="-484 -172.998 1710 932"
    underline-thickness="20"
    underline-position="-123"
    unicode-range="U+0020-U+F000"
  />
<missing-glyph horiz-adv-x="500" 
d="M63 0v800h375v-800h-375zM125 63h250v675h-250v-675z" />
    <glyph glyph-name=".notdef" horiz-adv-x="500" 
d="M63 0v800h375v-800h-375zM125 63h250v675h-250v-675z" />
    <glyph glyph-name="space" unicode=" " horiz-adv-x="259" 
 />
    <glyph glyph-name="exclam" unicode="!" horiz-adv-x="312" 
d="M316 664l-29 -368l-3 -3l-55 -42h80v-126l-4 -3l-165 -125h-121v126l4 3l55 42h-36l-28 368l5 3l165 125h132zM292 652h-101l5 -73zM303 645l-106 -80l20 -260h59zM185 570l-6 77l-141 -108h106zM205 302l-19 254l-35 -26l-22 -286zM286 239h-73l-18 -14v-55zM264 293
h-51l-85 -65l-2 -23l63 46h20zM139 527h-112l26 -342l64 49zM298 134v99l-103 -78v-21h103zM183 231v2l-58 -44v-2zM115 218l-50 -38h29l20 15zM183 131v15l-37 -29v-15zM183 161v55l-59 -45l-6 -3v0h-20l-55 -42h95zM286 122h-95l-45 -35v-72zM134 93v21h-103v-99zM134 9
v69l-91 -69h91z" />
    <glyph glyph-name="quotedbl" unicode="&#x22;" horiz-adv-x="362" 
d="M388 444l-5 -2l-165 -125h-83v28l-34 -25l-5 -3h-84v213l4 3l164 125h2h83v-29l33 26l4 3h2h84v-214zM364 646h-54v-41zM376 454v186l-66 -50v-136h66zM298 596v44l-33 -26v-44zM241 646h-53v-41zM253 620v20l-65 -50v-20zM253 561v44l-65 -50v-22h27zM298 451v130
l-33 -26v-111l-4 -2l-37 -29v-19zM253 454v92l-29 -22v-70h29zM176 533v13l-18 -13h18zM176 596v44l-140 -107h57zM212 454v67h-24v-67h24zM364 442h-58l-82 -63v-44zM241 442h-17v-14zM176 451v70h-30v-93zM176 561v20l-75 -57v-131l34 26v111l4 3zM212 419v23h-28l-38 -29
v-44zM212 385v19l-66 -50v-19zM212 328v42l-54 -42h54zM135 360v44l-34 -26v-43zM89 384v137h-65v-186zM89 328v41l-53 -41h53z" />
    <glyph glyph-name="numbersign" unicode="#" horiz-adv-x="674" 
d="M721 522l-33 -93h-2l-95 -73h75l-33 -92h-3l-138 -106l-14 -40h-2l-166 -125h-96l29 81l-103 -79l-1 -2h-100l53 145h-102l34 93h2l95 73h-76l32 88l4 4l140 108l13 36l3 2l166 126h96l-29 -81l105 81h98l-51 -146h99zM647 656h-65l-25 -69zM701 499l-76 -58h55zM653 645
l-103 -79l-19 -52l-1 -2l-2 -2l-41 -31l-13 -38h32l102 78zM565 645l-102 -78l-9 -25h45l41 32zM533 553l-27 -20l-4 -11h19zM473 656h-66l-24 -69zM695 510h-80l-115 -88l-9 -26h33l59 45h23zM666 429h-56l-29 -22l-18 -51h8zM508 510h-10l-4 -11zM493 530h-43l-3 -8h42z
M446 553l-15 -11h11zM572 418l-28 -22h3l24 19zM438 530h-20l-11 -31l27 20zM478 645l-103 -79l-18 -52l-2 -2l-2 -2l-41 -31l-13 -38h31v-1l59 45l21 57h2l41 32zM564 394l-10 -7l-14 -40l9 7zM391 645l-134 -103h67l41 32zM645 333l-75 -57h54zM470 465l-32 -24h23z
M490 429h-21l-7 -22zM485 510h-44l-42 -32l-25 -71l25 19l5 15h14l59 45zM358 553l-27 -20l-3 -11h19zM483 408l-16 -12h11zM509 384h-22l-9 -23zM541 384h-13l-90 -68h61l23 17zM334 510h-11l-3 -11zM640 344h-65l-50 -38l-1 -2h-21l-63 -49l-9 -24h35l58 45h26zM444 394
l13 35h-35l-13 -10l-23 -63h10zM474 384h-23l-37 -28h50zM318 530h-75l-5 -13l4 2v3h73zM535 264h-5l-1 -5zM382 465l-59 -46l-8 -23h43zM611 264h-57l-33 -25l-21 -60zM311 510h-60l-25 -69h18l58 45zM514 253l-29 -22h7l19 15zM484 304h-59l-10 -28h32zM295 465l-32 -24
h24zM304 429h-9l-4 -10zM305 406l-13 -10h10zM234 499l-3 -3l-21 -59l3 2zM456 344h-57l-63 -48l-15 -42l27 19l2 3h52l15 40h2zM504 225l-5 -4l-22 -60l6 5zM421 264h-10l-4 -11zM422 242l-14 -11h11zM450 219h-23l-9 -25zM298 384h-31v2l-38 -30h59zM228 429h-8l-17 -13
l-3 -9zM485 219h-15l-59 -45l-9 -24h58zM214 483l-114 -87h57l36 28zM398 264h-42l-25 -70l58 45zM186 403l-10 -7h7zM475 145l-5 -4l-1 -3h-71l-3 -8h75zM282 429h-34l-56 -42l-1 -3h-30l-90 -68h66l53 40h19l65 50zM393 161l-13 -11h10zM275 344h-62l-24 -18l-18 -50h14z
M235 299l-31 -23h22zM246 264h-11l-5 -13zM385 138h-18l-11 -30l25 20zM339 253l-25 -20l-6 -14h-13l-59 -45l-9 -24h46l40 31zM251 253l-28 -22h20zM275 219h-23l-9 -25zM141 384h-54l-21 -57zM456 118h-68l-40 -31l-26 -71zM172 313l-9 -7l-14 -39l8 6zM414 219h-32
l-59 -45l-20 -56h-2l-40 -31l-26 -71l103 78l20 56h2l41 31zM306 160l-26 -19l-4 -11h19zM169 264h-5l-22 -17l-2 -5zM281 118h-9l-4 -10zM266 138h-43l-3 -8h43zM218 160l-13 -10h10zM150 304h-9l-96 -73h57l30 23zM222 264h-33l-56 -43l-1 -2h-26l-90 -69h82l115 88z
M331 74l-91 -69h66zM210 138h-18l-11 -30l26 20zM259 118h-45l-41 -31l-26 -71l104 79zM239 219h-32l-102 -78l-45 -125l103 79l20 55h3l40 31zM86 219h-54l-21 -58zM156 74l-91 -69h66zM314 316l62 48l16 42l-29 -22h-53l-14 -40h-2l-38 -28h58zM263 276l36 28h-50l-10 -28
h24zM318 304l-49 -37l-13 -36h35l13 10l23 63h-9zM370 344l-37 -28h10l37 28h-10z" />
    <glyph glyph-name="dollar" unicode="$" horiz-adv-x="488" 
d="M498 285c0 -50.667 -17.998 -91.332 -53.998 -121.999v0l-154 -120c-21.333 -16.667 -52.333 -42.334 -93 -77.001h-53v34c-74 6.66699 -120.333 50.667 -139 132c-0.666992 -0.666992 -1.33398 -1 -2.00098 -1l1 2l2 1l9 8l114 89c-75.333 43.333 -113 95.333 -113 156
c0 50 17.667 89 53 117l248 196h50v-35c36 -6 62.333 -19 79 -39c3.33301 -4 16.666 -29.667 39.999 -77l-3 -3c-12 -11.333 -50.667 -42 -116 -92c42.667 -24 73 -46 91 -66c26.667 -28.667 40 -63 40 -103zM343.002 688.002h-20v-15zM311.002 664.002l0.000976562 17.999
l-37 -29c11.333 4.66699 23.666 8.33398 36.999 11.001zM473.003 552.001c-16 59.333 -53.001 93.333 -111.001 102l-151 -116c10.667 -2 20.334 -5 29.001 -9l51 40c18 14 34 21 48 21c32 0 53.333 -20.667 64 -62zM355.002 663.001l0.000976562 19
c-6.66699 -8.66699 -18.334 -18 -35.001 -28l-117 -90v-17zM448.003 531.001l-47 -16l-60 -46l15 -9zM392.003 523.001c-8 36.667 -25.667 54.998 -53 54.998c-18 0 -31.333 -6 -40 -18v0v-1c-8 -9.33301 -12 -19.666 -12 -30.999c0 -17.333 14.333 -34.666 43 -51.999z
M289.003 645.999c-36 -12 -62.333 -32 -79 -60zM320.003 467.999c-30 19.333 -45 39.333 -45 60c0 4.66699 0.666992 9.66699 2 15l-25 -20c25.333 -13.333 44.333 -34.333 57 -63zM345.003 451.999l-15 9.00098l-16 -12c1.33301 -2.66699 3 -8.33398 5 -17.001z
M200.003 592l-23.001 -18h15c2.66699 7.33301 5.33398 13.333 8.00098 18zM181.002 563h-20l-2 -2v-15zM229.002 521c-11.333 4 -23.333 6.66699 -36 8c-0.666992 -8.66699 -1 -14 -1 -16c0 -6 0.333008 -12.667 1 -20zM309.002 426l-5 15l-38 -29zM300.002 453
c-12.667 29.333 -31.999 50.333 -57.999 63l-47 -36c2 -8 4.66699 -15.333 8 -22c15.333 -8 26.666 -23.667 33.999 -47l3 -4zM147.003 539l0.000976562 13l-25 -19c7.33301 2 15.666 4 24.999 6zM486.004 285c0 38.667 -13.333 71.6641 -40 98.9971
c-16 16 -45.667 36.667 -89 62c-23.333 -17.333 -38 -27.666 -44 -30.999c-2.66699 -1.33301 -22.334 -7.66602 -59.001 -18.999c13.333 -10 33.833 -22.833 61.5 -38.5s46.167 -27.5 55.5 -35.5c20 -17.333 30 -35.666 30 -54.999c0 -20 -6 -34.667 -18 -44l-50 -39
c0.666992 -8.66699 1 -16.667 1 -24c0 -14.667 -1.66699 -29 -5 -43l22 17v2c32.667 5.33301 61.334 17.333 86.001 36v0c32.667 28 49 65.667 49 113zM188.004 462.997c-0.666992 2.66699 -1.66699 5.66699 -3 9l-10 -8v0h2c3.33301 0 7 -0.333008 11 -1zM389.004 266.997
c0 16.667 -9.66699 32.666 -29 47.999c-8 6.66699 -25 17.334 -51 32.001c-30.667 17.333 -53.334 32 -68.001 44l-11 -4c-1.33301 6.66699 -2.66602 12.667 -3.99902 18c-14 13.333 -24.667 28 -32 44c-6 2 -12.333 3 -19 3c-12 0 -25 -6 -39 -18v0
c-8.66699 -8.66699 -13 -19 -13 -31c0 -16.667 14.333 -34 43 -52l86 -54c35.333 -24 59 -50 71 -78c6 -0.666992 11.667 -1 17 -1c13.333 0 24.833 4.66699 34.5 14s14.5 21 14.5 35zM341.004 205.996c-2 -0.666992 -6.66699 -0.333008 -14 1
c0.666992 -2 1.66699 -5.33301 3 -10zM307.004 224.997c-8.66699 16 -20.667 31 -36 45c8 -22.667 20 -37.667 36 -45zM247.004 287.997c-12 8 -29.666 18.667 -52.999 32c-26.667 15.333 -44.334 26.333 -53.001 33c-19.333 16 -29 32.667 -29 50c0 19.333 11 37.333 33 54
l37 28c-1.33301 9.33301 -2 18.666 -2 27.999c0 12.667 1.33301 25 4 37c-16.667 -12.667 -25 -19.667 -25 -21c-87.333 -14 -131 -61.333 -131 -142c0 -34.667 11 -64.667 33 -90c16 -18 42.333 -37.333 79 -58l31 23c18 6.66699 43.333 15.334 76 26.001zM382.005 130.997
c-6 -2 -12.333 -3.66699 -19 -5v-10zM320.005 188.997c-1.33301 6.66699 -3.33301 13.667 -6 21c-27.333 8 -46.666 30 -57.999 66l-66 -51c5.33301 -13.333 9.66602 -21.666 12.999 -24.999c6.66699 -6 16 -17 28 -33c10.667 -8.66699 22 -15.334 34 -20.001z
M227.005 268.997l-47 -16c1.33301 -6 3 -11.667 5 -17zM323.005 159.997c0 5.33301 -0.333008 10.667 -1 16l-44 -33c12.667 -4 26.667 -6.33301 42 -7v-7c2 10 3 20.333 3 31zM351.005 106.998v12l-20 -15h16zM332.005 91.998h-11l-7 -14zM175.005 228.998
c-1.33301 3.33301 -3 9.33301 -5 18l-19 -15l16 -9zM181.005 214.998l-1 2l-2 -1zM254.005 138.998c-7.33301 3.33301 -13.333 6.33398 -18 9.00098l1 -7c0 -4.66699 -0.666992 -10.334 -2 -17.001zM225.005 140.999c0 6 -1 12 -3 18
c-10.667 8.66699 -20.334 19.667 -29.001 33c-6.66699 5.33301 -15 11 -25 17l-66 -51c12.667 -44 37.334 -66 74.001 -66c11.333 0 21.333 3.33301 30 10v1c12.667 9.33301 19 22 19 38zM303.005 80.999l-84 -63c20.667 6 38.667 15.667 54 29v0
c10.667 8 20.667 19.333 30 34zM157.005 214.999l-16 10l-100 -77l52 18zM308.005 100.999v17l-152 -116v-18zM299.005 125.999c-12 2 -22.667 4.66699 -32 8l-53 -41c-11.333 -8.66699 -24 -13 -38 -13c-42 0 -70 24.333 -84 73l-76 -26
c18.667 -72 62.667 -110.667 132 -116zM233.005 9.99902c-10.667 -4 -22 -7 -34 -9v-17zM187.005 -22.001v15l-19 -15h19z" />
    <glyph glyph-name="percent" unicode="%" horiz-adv-x="599" 
d="M618 263c0 -64 -12.668 -104.667 -38.001 -122l1 -1l-164 -125l-1 1c-16 -15.333 -36.667 -23 -62 -23c-59.333 0 -92.666 37.667 -99.999 113l-140 -109h-76l180 328l-48 -37c-24 -18 -46.333 -27 -67 -27c-67.333 0 -101 48.333 -101 145c0 68 17.333 112.333 52 133v1
l163 125l1 -1c14 8 30 12 48 12c58.667 0 92 -36.667 100 -110l138 107h76l-182 -332l51 39c5.33301 4.66699 13.333 11 24 19c12 6 26.667 9 44 9c67.333 0 101 -48.333 101 -145zM551.999 661h-41l-30 -55zM488.999 645l-122 -93v-4h37l54 41zM395.999 536
l-28 -0.000976562v-4c0 -19.333 -2 -38.666 -6 -57.999zM550.999 644.999l-84 -63.999l-176 -321c6 5.33301 12.333 9.66602 19 12.999v1l64 49zM354.999 557c-6 72 -35.667 108.001 -89 108.001c-50.667 0 -79.667 -34 -87 -102l73 56c7.33301 6 12.333 9 15 9
c18 0 27 -22.667 27 -68v-49c0 -44 -6.66699 -68.667 -20 -74l1 -1l-41 -32c6.66699 -2.66699 15 -4.33398 25 -5.00098l81 149h2zM282.999 557.001c0 38 -5.33301 57.667 -16 59l-7 -6c-6 -10 -9 -40.667 -9 -92v-6c0.666992 -43.333 6 -65 16 -65
c10.667 0 16 21.333 16 64v46zM605.999 263.001c0 88.667 -29.667 133 -89 133c-50.667 0 -79.667 -33 -87 -99c54.667 41.333 84 62 88 62c18.667 0 28 -25 28 -75l-1 -42c0 -40.667 -5.66699 -66 -17 -76l-40 -31c9.33301 -3.33301 19 -5 29 -5c59.333 0 89 44.333 89 133
zM355.999 532.001l-0.000976562 4h-9l-75 -137c18 0.666992 32.333 5.66699 43 15v-1c28.667 22 42.334 61.667 41.001 119zM533.998 284.001c0 42 -5.33301 63 -16 63s-16 -34.333 -16 -103c0 -43.333 5.33301 -65 16 -65s16 34 16 102v3zM257.998 438.001
c-12.667 8 -18.999 34.668 -18.999 80.001c0 40 1.33301 66.333 4 79l-65 -50v-15v-18c14.667 -20.667 23 -49.667 25 -87c5.33301 -6.66699 11.666 -12.334 18.999 -17.001zM181.999 623.002l-96 -73c6 0.666992 11.333 1 16 1c17.333 0 33 -3.66699 47 -11l18 14
c1.33301 27.333 6.33301 50.333 15 69zM430.999 352.002l-48 -37.001l-18 -33c12 -1.33301 23 -4.66602 33 -9.99902l19 15c2 25.333 6.66699 47 14 65zM512.999 169.001c-15.333 4 -23 29 -23 75c0 44.667 1.33301 73.667 4 87l-65 -50
c-0.666992 -6.66699 -1 -12.667 -1 -18s0.333008 -11 1 -17c14 -20.667 22.333 -49.667 25 -87c6 -8 13.333 -14.333 22 -19zM165.999 538.001l-6 -4.99902c1.33301 -0.666992 3.33301 -2.33398 6 -5.00098v10zM416.999 271.002l-7.99902 -5
c3.33301 -2.66699 5.66602 -4.66699 6.99902 -6c0 2 0.333008 5.66699 1 11zM280 388.002c-7.33301 -1.33301 -12.333 -1.66699 -15 -1l-9 -18zM444 563.001l-33 -25l-236 -430l32 25zM360 297.001l-20 -15c4 0.666992 8 1 12 1zM212 403.001c-3.33301 2 -6 4 -8 6v-13z
M465 132.001c-2.66699 2 -6.33301 5 -11 9v-18zM192.001 406.001l0.000976562 17c-14.667 21.333 -23.334 50.333 -26.001 87c-4.66699 6 -10 11.333 -16 16l-36 -28c11.333 -6 17 -27.333 17 -64v-52c0 -18 -1.66699 -33 -5 -45l65 50c0.666992 6.66699 1 13 1 19z
M252.002 388.001c-10 1.33301 -19.667 4 -29 8l-20 -15c-2 -24.667 -6.66699 -45.667 -14 -63l43 33zM534.002 119.001c-6 -0.666992 -11.667 -1 -17 -1c-14 0 -27.333 2.66699 -40 8l-24 -19c-2.66699 -24 -8 -44.667 -16 -62zM443.002 138.001
c0 5.33301 -0.333008 11 -1 17c-14.667 20.667 -23 49.667 -25 87c-5.33301 6.66699 -11.333 12 -18 16l-35 -27c12 -8 18 -32.333 18 -73v-41c0 -23.333 -2.33301 -41.333 -7 -54l67 51c0.666992 8 1 16 1 24zM119.002 431.001c0 39.333 -5.33301 59 -16 59
s-16 -32.333 -16 -97v-6c0.666992 -43.333 6 -65 16 -65c10.667 0 16 21 16 63v46zM190.002 371.001l-78.999 -61l-1 1c-2 -0.666992 -4.33301 -1 -7 -1c-18.667 0 -28 27.667 -28 83c0 68 7.66699 104 23 108l40 31c-10.667 4.66699 -22.667 7 -36 7
c-58.667 0 -88 -44.333 -88 -133s29.667 -133 89 -133c19.333 0 35.666 5 48.999 15l-1 1c21.333 14.667 34.333 42 39 82zM345.003 270.001c-56 -4 -83 -48 -81 -132v-3h7zM370.003 158.001c0 42.667 -5.33301 64 -16 64s-16 -34.667 -16 -104
c0 -42.667 5.33301 -64 16 -64s16 33.667 16 101v3zM440.003 97.001c-48 -36.667 -76.667 -55 -86 -55c-18.667 0 -28 25.333 -28 76c0 66 5.66699 103.333 17 112l45 34c-8.66699 3.33301 -18.334 5.33301 -29.001 6l-81 -147h-2l-11 -9c5.33301 -72.667 35 -109 89 -109
c48.667 0 77.334 30.667 86.001 92zM325.003 406.001c-3.33301 -2 -7.66699 -5 -13 -9l-71 -54l-175 -318l85 65zM260.002 205.001l-39 -70h32l-1 3c0 22.667 2.66699 45 8 67zM253.002 120.001v3h-40l-53 -41l-31 -57zM137.002 64.001l-72 -55h42z" />
    <glyph glyph-name="ampersand" unicode="&#x26;" horiz-adv-x="591" 
d="M581 128c-0.666992 -0.666992 -1.99902 -1.66699 -3.99902 -3l-160 -122c-0.666992 -0.666992 -2 -1.66699 -4 -3h-16c-44.667 0 -83 16 -115 48c-40.667 -38 -83.667 -57 -129 -57c-40.667 0 -74.667 13.667 -102 41s-41 61.666 -41 102.999c0 52.667 32.333 107 97 163
c-28 50.667 -42 92.334 -42 125.001c0 28 5.66699 51 17 69c9.33301 15.333 26.333 32.333 51 51l127 96c35.333 26.667 72.333 40 111 40c35.333 0 65.833 -10.333 91.5 -31s38.5 -48.667 38.5 -84c0 -49.333 -32 -99.666 -96 -150.999l18 -28c17.333 14 37 28 59 42
l90 -19c-12.667 -61.333 -31.334 -110.333 -56.001 -147c16 -18.667 37.667 -27.334 65 -26.001c-0.666992 -24 -0.666992 -59.667 0 -107zM393.001 557c0 21.333 -8.33301 32 -25 32c-17.333 0 -26 -11 -26 -33c0 -16.667 6.66699 -37 20 -61c20.667 25.333 31 46 31 62z
M489.001 564c0 32 -11.665 57.1689 -34.998 75.502s-51 27.5 -83 27.5c-36.667 0 -67.334 -10.667 -92.001 -32s-37.334 -49.666 -38.001 -84.999c11.333 -2.66699 21.666 -6.33398 30.999 -11.001l78 59c2 2 8 3 18 3c24.667 0 37 -14.667 37 -44
c0 -20.667 -13 -46.334 -39 -77.001c-1.33301 -0.666992 -11.666 -8.33398 -30.999 -23.001c1.33301 -6.66699 2 -12.667 2 -18c0 -30 -11 -59.667 -33 -89l90 69c63.333 48.667 95 97 95 145zM353.003 486.002c-15.333 27.333 -23 50.667 -23 70c0 4 0.666992 8.66699 2 14
l-48 -37c24.667 -15.333 40.667 -36.333 48 -63zM472.003 408.003l-43 -33c7.33301 -11.333 14.333 -21.333 21 -30c10.667 18 18 39 22 63zM551.003 400.003l-65.001 14c-5.33301 -33.333 -16.666 -63 -33.999 -89l-2 1l-54 -41h4zM247.002 614.003l-89 -68.001
c16 4.66699 32.333 7 49 7c6.66699 0 14 -0.333008 22 -1c0.666992 22.667 6.66699 43.334 18 62.001zM261.002 531.002c-6 2.66699 -12.333 4.66699 -19 6c0 -6.66699 0.666992 -13 2 -19zM322.002 462.002c-6 27.333 -22.333 48.333 -49 63l-25 -20
c6 -21.333 17 -46.333 33 -75zM555.002 389.002l-149.001 -114c-9.33301 -46 -22.666 -84.667 -39.999 -116l138 106c2 2 4.66699 6 8 12c18.667 30 33 67.333 43 112zM413.001 377.002c-4 7.33301 -9.66699 17 -17 29l-71 -54c4 -6 10 -15.667 18 -29zM443.001 336.002
c-8 8.66699 -15.667 19 -23 31l-71 -54l12 -20l20 -4zM569.001 137.002v78l-79 -60c23.333 -12.667 47 -18.667 71 -18h8zM271.001 424.002c-16 28 -27 52.667 -33 74l-30 -23c22 -2 33 -16.333 33 -43c0 -12 -4.33301 -25.667 -13 -41zM564.001 226.002
c-22 -0.666992 -40.668 8 -56.001 26l-154 -118v-1c30.667 8 61.334 27 92.001 57c11.333 -12 22.333 -21.333 33 -28zM394 274.002l-10 2.00098l-8 -6c4 -6 8.33301 -12 13 -18c2 7.33301 3.66699 14.666 5 21.999zM345 296.003l-6 10l-8 -7zM229 432.003
c0 21.333 -8 32 -24 32c-18 0 -27 -11.333 -27 -34c0 -16 6.66699 -36.333 20 -61c20.667 26 31 47 31 63zM333 316.003l-13 22c-14 -18.667 -21 -36.667 -21 -54c0 -8 1.33301 -15.667 4 -23c1.33301 4.66699 4.33301 18 9 40c1.33301 0 8.33301 5 21 15zM325 439.003
c0 1.33301 -0.333008 4.66699 -1 10c-49.333 -38 -81 -65 -95 -81c-29.333 -33.333 -44 -71 -44 -113c45.333 34.667 76 60.667 92 78c32 34.667 48 70 48 106zM360 272.004l-6.00098 10l-32 7c-2.66699 -16 -6 -30.333 -10 -43
c0.666992 -1.33301 2.33398 -3.33301 5.00098 -6zM380.999 244.004c-4.66699 5.33301 -9.33203 11.333 -13.999 18l-39 -29c6 -3.33301 12.333 -5 19 -5c9.33301 0 20.666 5.33301 33.999 16zM234.001 510.004c-2.66699 10 -4 20 -4 30c-8 1.33301 -15.667 2 -23 2
c-36.667 0 -67.5 -10.833 -92.5 -32.5s-37.5 -50.5 -37.5 -86.5c0 -30.667 13 -69.667 39 -117l73 55c-15.333 27.333 -23 50.333 -23 69c0 22.667 9 38.667 27 48l-7 -5zM558.001 125.004c-28 0.666992 -54 8 -78 22l-63 -49v-80zM469.001 154.004
c-8 5.33301 -15.667 11.667 -23 19l-72 -54c7.33301 -3.33301 19.333 -7 36 -11zM298.001 245.005c-7.33301 11.333 -11 24.333 -11 39c0 12.667 3.33301 26 10 40l-53 -41c8.66699 -14 22.667 -35 42 -63c4.66699 8 8.66699 16.333 12 25zM382.001 229.005l-118.001 -90
c16.667 -6.66699 34.334 -10 53.001 -10c2 0 9.33301 1.33301 22 4c14.667 18 29 50 43 96zM345 216.005c-10 0.666992 -19.333 3.66699 -28 9c-9.33301 -6.66699 -19 -15.334 -29 -26.001c-6 6.66699 -16.333 20.334 -31 41.001c-16 23.333 -24.667 37 -26 41
c0.666992 -1.33301 2 -3 4 -5l-49 -35c6.66699 -44 28.667 -76 66 -96zM405 12.0049v85c-12.667 0.666992 -26.667 5.33398 -42 14.001l-72 -55c30.667 -30.667 66 -45.334 106 -44.001h8zM241 137.005c-36 21.333 -58 53.333 -66 96l-12 -10
c13.333 -22 34.333 -54.667 63 -98zM353 118.005l-3.00195 2c-10.667 -2 -21.667 -3 -33 -3c-22.667 0 -44 4.66699 -64 14l-32 -26c-13.333 -9.33301 -25.666 -14 -36.999 -14c-18 0 -32.5 6.66699 -43.5 20s-16.5 29 -16.5 47c0 36.667 16.667 66 50 88l-1 4
c-1.33301 38.667 11.334 76 38.001 112l-122 -95c-44.667 -42 -67 -86 -67 -132c0 -38 12.333 -69.5 37 -94.5s56 -37.5 94 -37.5c44.667 0 88 20.667 130 62v-1zM216.998 118.005c-5.33301 6.66699 -25.667 38.333 -61 95c-14 -18.667 -21 -37 -21 -55
c0 -14.667 4.5 -27.667 13.5 -39s20.833 -17 35.5 -17c10.667 0 21.667 5.33301 33 16z" />
    <glyph glyph-name="quotesingle" unicode="'" horiz-adv-x="247" 
d="M265 447h-4l-166 -125h-83v213l4 3l166 125h83v-216zM241 651h-53v-41zM253 459v186l-65 -50v-136h65zM176 601v44l-140 -107h57zM176 456v130l-75 -57v-130zM241 447h-57l-83 -63v-44zM89 389v137h-65v-186zM89 334v41l-53 -41h53z" />
    <glyph glyph-name="parenleft" unicode="(" horiz-adv-x="336" 
d="M346 44l-6 -1.00098l-165 -126l-79 -15l-2 4c-58 112 -87 219.667 -87 323c0 104 28.333 211 85 321l2 4l2 -1l162 126l86 -16l-3 -7c-47.333 -102 -71 -202.333 -71 -301c0 -101.333 24.333 -202.666 73 -303.999zM322 654.999l-58 11c-14 -28 -26 -55.667 -36 -83z
M245 651.999l-134 -101.999l59 -11l40 31c10 27.333 21.667 54.666 35 81.999zM329 53c-47.333 100.667 -71 201.333 -71 302c0 93.333 21 188.333 63 285l-101 -77c-24.667 -71.333 -37 -140.666 -37 -207.999c0 -100.667 28 -205.334 84 -314.001zM256 35.999
c-56.667 110.667 -85 217.001 -85 319.001c0 63.333 10.667 128 32 194l-26 -20c-47.333 -101.333 -71 -201 -71 -299c0 -88.667 18.667 -177.334 56 -266.001zM164 529l-64 11.001c-54 -106.667 -81 -210.334 -81 -311.001c0 -99.333 27.667 -203 83 -311l50 39
c-38 90.667 -57 181.667 -57 273c0 98 23 197.667 69 299zM314 38.001l-48 -9l-99 -76l9 -21zM165 -72.999c-1.33301 4 -4 10.333 -8 19l-34 -27z" />
    <glyph glyph-name="parenright" unicode=")" horiz-adv-x="339" 
d="M345 352c0 -104 -28 -210.667 -84 -320l-2 -4h-2l-162 -126l-87 16l3 7c47.333 102 71 202.333 71 301c0 51.333 -6 102 -18 152c-6 24 -15 52.333 -27 85l-28 73h1c7.33301 6 19.333 15.333 36 28l125 96l3 3l3 1l79 15l2 -4c58 -112 87 -219.667 87 -323zM229 662
l-42 -8c2 -4 4.66699 -10 8 -18zM186 628l-10 21l-138 -106l48 10zM333 352c0 99.333 -27.333 203 -82 311l-51 -38c38.667 -91.333 58 -182.333 58 -273c0 -98.667 -23 -198.334 -69 -299.001l63 -12c54 106.667 81 210.334 81 311.001zM246 352
c0 88 -18.667 176.334 -56 265.001l-94 -72c56.667 -110.667 85 -216.667 85 -318c0 -62.667 -10 -126.334 -30 -191.001l27 21c45.333 100 68 198.333 68 295zM169 227.001c0 100 -27.667 204.333 -83 313l-63 -11c47.333 -101.333 71 -202.333 71 -303
c0 -92 -20.333 -185 -61 -279l101 76c23.333 69.333 35 137.333 35 204zM241 31.001l-63 12l-34 -27c-10 -28.667 -22 -57.667 -36 -87zM126 3.00098l-99.001 -76l61 -11c14.667 28.667 27.334 57.667 38.001 87z" />
    <glyph glyph-name="asterisk" unicode="*" horiz-adv-x="446" 
d="M478 491l-5 -2l-42 -32l23 -23l-249 -190l-15 30l-46 -35l-3 1l-92 39l44 71l-80 -23l-13 106l45 33l-22 21l249 190l15 -29l42 31l4 4l3 -2l93 -39l-45 -71l81 24zM324 661l-31 -24l18 -34zM408 638l-70 30l-19 -83l-8 -8l-68 -51l12 -6zM454 490l-60 2l28 -27zM464 501
l-9 75l-153 -116l1 -11l66 50l10 6zM397 614l-136 -104l-16 -26l25 8l96 73zM278 640l-10 19l-63 -48l15 -15zM430 573l-57 -17l-100 -77l-13 -21l33 10zM305 588l-22 42l-54 -42l32 -31h1l1 -1zM413 458l-35 33l-42 -32l22 -43zM436 435l-15 14l-57 -44l9 -17zM247 555
l-28 26l-30 -24zM243 543l-44 2l30 -13zM348 408l-18 36l-14 -60zM319 446l-14 -11l4 -30zM211 589l-15 15l-82 -63l8 -16zM218 524l-40 17l5 -44zM248 511l-15 6l-48 -36l2 -13l40 11zM242 471l-7 -2l-4 -6zM246 459l-10 -8l7 2zM292 441l-1 13l-41 -12l-20 -32l14 -6z
M300 380l-6 47l-37 -29zM363 380l-9 18l-88 -66l16 -15zM172 489l-3 29l-9 -39zM162 540l-34 -26l19 -36zM278 377l-32 13l-15 -11zM288 364l-58 3l27 -26zM113 518l-9 16l-63 -48l13 -13zM140 465l-22 42l-55 -42l35 -33zM248 333l-34 33l-42 -33l22 -41zM218 464l-39 -11
l-138 -105l63 18l100 76zM272 310l-15 15l-58 -44l10 -19zM233 437l-26 -7l-96 -74l-31 -49l137 104zM175 465l-1 8l-28 -19l-48 -37l-85 3l9 -72zM83 429l-30 29l-33 -26zM234 396l-12 4l-153 -117l70 -29l20 83l8 7zM184 284l-17 34l-14 -58z" />
    <glyph glyph-name="plus" unicode="+" horiz-adv-x="559" 
d="M588 309l-4 -2l-160 -123v-43l-5 -5l-166 -125h-98v170h-165v98l5 5l159 121v22.5v23.5l4 3l164 125h100v-170h166v-100zM399 567h-68v-52zM576 319v72l-94 -72h94zM564 397h-145l-103 -78h15v-35h38l42 32l3 3h48zM411 406v155l-80 -61v-103h-72v-78h38zM319 506v55
l-140 -107h72zM564 307h-98l-42 -32v-76zM319 409v82l-60 -46v-36h60zM447 307h-25v-19zM411 284v17l-23 -17h23zM247 409v33h-80v-33h80zM353 272h-22v-17zM411 193v79h-38l-42 -32v-47h80zM319 284v17l-22 -17h22zM308 307h-7l-31 -23h7zM281 307h-22v-17zM247 319v78h-80
v-78h80zM411 148v33h-80v-33h80zM319 193v38l-49 -38h49zM155 284v18l-24 -18h24zM319 145v36h-60v-82zM154 316v74l-140 -106h98zM399 136h-72l-68 -52v-55zM319 246v26h-38l-114 -88v-155l80 61v101l4 2zM262 272h-15v35h-80v-35h-51l-103 -79h146zM96 272h-94v-73z
M247 23v52l-68 -52h68z" />
    <glyph glyph-name="comma" unicode="," horiz-adv-x="296" 
d="M306 134l-72 -128l-165 -126h-61l45 117h-37v126l169 129h121v-118zM283 240h-91v-70zM294 138v95l-102 -78v-21h42l-23 -59zM281 114l-78 -60l-14 -37h40zM180 161v73l-141 -108h96zM180 131v15l-38 -29v-15zM207 122h-19l-46 -35v-15zM212 111l-70 -54v-35l51 39z
M185 40l-44 -34l-17 -30l52 39zM130 93v21h-102v-99zM130 63v15l-91 -69h20zM215 6h-32l-73 -56l-23 -42zM130 12v36l-64 -49l-36 -95l71 54zM87 -68l-53 -40h31z" />
    <glyph glyph-name="hyphen" unicode="-" horiz-adv-x="335" 
d="M335 274l-170 -129h-165v102l168 129h167v-102zM323 282v76l-98 -76h98zM312 364h-136v-82h29zM312 271h-103l-38 -29v-79zM190 271h-18l-27 -21h18zM164 279v79l-141 -108h103zM159 157v82h-29l-107 -82h136zM110 239h-98v-76z" />
    <glyph glyph-name="hyphen" unicode="&#x2010;" horiz-adv-x="335" 
d="M335 274l-170 -129h-165v102l168 129h167v-102zM323 282v76l-98 -76h98zM312 364h-136v-82h29zM312 271h-103l-38 -29v-79zM190 271h-18l-27 -21h18zM164 279v79l-141 -108h103zM159 157v82h-29l-107 -82h136zM110 239h-98v-76z" />
    <glyph glyph-name="period" unicode="." horiz-adv-x="291" 
d="M300 125l-169 -128h-121v126l168 127h122v-125zM277 239h-92v-70zM288 134v99l-103 -79v-20h103zM173 160v73l-140 -108h95zM173 131v14l-37 -29v-14zM277 122h-96l-45 -35v-72zM124 93v20h-103v-98zM124 9v69l-91 -69h91z" />
    <glyph glyph-name="slash" unicode="/" horiz-adv-x="397" 
d="M426 678l-3 -8l-199 -612l-165 -125h-71l2 8l197 611l2 1l166 125h71zM400 666h-41l-13 -41zM344 656l-135 -103h43l78 59zM406 656l-66 -51l-172 -535h50zM323 593l-64 -50l-169 -524l65 49zM246 541h-50l-188 -586l66 51zM205 58h-43l-78 -59l-14 -44zM68 -14l-54 -41
h40z" />
    <glyph glyph-name="zero" unicode="0" horiz-adv-x="476" 
d="M501 392c0 -116 -22.333 -196.001 -67 -240.001l-13 -13l-164 -126c-22.667 -16.667 -51 -25 -85 -25c-110.667 0 -166 93 -166 279c0 128.667 27 213.334 81 254.001l164 126c21.333 16 49 24 83 24c111.333 0 167 -93 167 -279zM299 554.999l-45 -35
c14 -10 26.333 -23.333 37 -40c1.33301 36 4 61 8 75zM215 603.999l-83.001 -63.001c12 3.33301 24.667 5 38 5c6 0 12.333 -0.333008 19 -1c6.66699 22.667 15.334 42.334 26.001 59.001zM488.999 391.998c0 178 -51.666 267.001 -154.999 267.001
c-65.333 0 -109.666 -38.667 -132.999 -116c15.333 -2.66699 29.666 -8 42.999 -16l68 53l1 -1c6 6 13.667 9 23 9c21.333 0 33.666 -28.333 36.999 -85c5.33301 -15.333 8 -61.333 8 -138v-3c0 -70.667 -3 -114.667 -9 -132c-1.33301 -5.33301 -6 -13 -14 -23l-26 -22
c-2 -20.667 -5.66699 -40.334 -11 -59.001c8.66699 -0.666992 13.667 -1 15 -1c102 0 153 89 153 267zM369 361.999l0.000976562 3c0 -0.666992 -2.66699 45 -8 137c-2.66699 49.333 -11 74 -25 74c-12 0 -20.333 -7.16699 -25 -21.5s-7.33398 -45.833 -8.00098 -94.5
c22.667 -46.667 34 -111 34 -193c0 -17.333 -1 -36 -3 -56c0.666992 -0.666992 1.33398 -1 2.00098 -1c11.333 0 19.666 7.83301 24.999 23.5s8 58.5 8 128.5zM233.001 518.999c-10.667 6 -22.333 10.333 -35 13c-4 -13.333 -7.33301 -29 -10 -47zM325.002 266.999
c0 66 -7.33203 120 -21.999 162v-24c-0.666992 -12 0.166016 -29.5 2.49902 -52.5s3.5 -39.833 3.5 -50.5c0 -4 0.333008 -10 1 -18l1 -1c2 -30 6 -50.667 12 -62c1.33301 14.667 2 30 2 46zM322.003 203.999c-12 10 -19.666 35.998 -22.999 77.998v1v-1l-3 35
c-4 18 -5.66699 47.333 -5 88v18v34c-12.667 24.667 -28.334 43.334 -47.001 56.001l-58 -45c0 -2 -0.333008 -5.33301 -1 -10c13.333 -11.333 21.333 -38 24 -80c5.33301 -17.333 8 -63.666 8 -138.999v-2v-37c12 -23.333 27 -41.333 45 -54l59 45
c0.666992 4.66699 1 9 1 13zM205.004 238.997c0 -0.666992 -2.66797 45 -8.00098 137c-1.33301 30 -5.66602 51.667 -12.999 65c-1.33301 -17.333 -2 -33.666 -2 -48.999c0 -66.667 7.66699 -121.334 23 -164.001v11zM319.003 174.997l-46 -35
c12.667 -6.66699 24.667 -11 36 -13c4 14.667 7.33301 30.667 10 48zM205.003 197.997c-23.333 46.667 -35 111.334 -35 194.001c0 20 0.666992 39.667 2 59v0c-11.333 0 -19.666 -7.83301 -24.999 -23.5s-8 -58.834 -8 -129.501v-2v-16c0 -12 1 -29.5 3 -52.5
s3 -39.833 3 -50.5c0.666992 -4 1.33398 -10 2.00098 -18v-1c3.33301 -48.667 11.666 -73 24.999 -73c11.333 0 19.666 7.66699 24.999 23c4 13.333 6.66699 43.333 8 90zM306.003 115.997c-15.333 2.66699 -29.667 8.00195 -43 16.002l-67 -51
c-7.33301 -5.33301 -15.333 -8 -24 -8c-20.667 0 -33 28 -37 84v1v-1c0 7.33301 -1 18.666 -3 33.999c-3.33301 18.667 -5 48.334 -5 89.001v18c0 72 3 116.667 9 134c3.33301 9.33301 7.66602 16.666 12.999 21.999c-1.33301 -0.666992 7.33398 6.33301 26.001 21
c2.66699 21.333 6 40.666 10 57.999c-4.66699 0.666992 -9.66699 1 -15 1c-101.333 0 -152 -89 -152 -267c0 -178.667 51.333 -268 154 -268c65.333 0 110 39 134 117zM373.002 116.999c-12 -2.66699 -24.332 -4 -36.999 -4c-5.33301 0 -11.333 0.333008 -18 1
c-6.66699 -22 -15.334 -41.667 -26.001 -59zM252.003 138.999c-13.333 9.33301 -25.333 22.333 -36 39c-1.33301 -36 -4 -60.333 -8 -73z" />
    <glyph glyph-name="one" unicode="1" horiz-adv-x="372" 
d="M366 125l-4 -3l-163 -125h-120v406l-69 -14v89h4l160 123v2l5 1c39.333 10 78 29.333 116 58l1 1h70v-538zM342 651h-42l-114 -87v-26h8zM220 605c-11.333 -4.66699 -22.667 -8.33301 -34 -11v-15zM224.999 525.001l-23 -5v-13zM173.999 538.001v17l-22 -17h22z
M353.999 134.001v511l-147 -112l47 10v-409h100zM173.999 570.001v16.001l-128 -98c30 11.333 58.333 27.666 85 48.999l1 1v0zM189.999 498.002v20l-7 -2l-143 -109l42 9zM173.999 525.002v1h-38c-34.667 -27.333 -72.667 -46.333 -114 -57v-60zM242.999 131.002v392
l-41 -31v-392zM189.999 91.002v392l-99 -76v-392zM341.999 122.002h-92l-48 -37v-70zM189.999 9.00195v67l-88 -67h88z" />
    <glyph glyph-name="two" unicode="2" horiz-adv-x="489" 
d="M493 526c0 -76 -61.332 -172.666 -183.999 -289.999h175v-114h-4l-160 -122v-3h-314v93l2 1c45.333 50 85.666 101.333 120.999 154c47.333 69.333 71 120.666 71 153.999c0 8 -0.666992 15.333 -2 22l-72 -55v-4l-112 19l1 6c8 59.333 32 104.333 72 135l163 125
c20.667 16 51 24 91 24c45.333 0 82 -13 110 -39s42 -61.333 42 -106zM364.001 525.001c0 19.333 -3.99902 33 -11.999 41c-4.66699 4.66699 -10.334 7 -17.001 7c-22 0 -36.333 -23.333 -43 -70c19.333 -20.667 31.333 -46.667 36 -78c24 42.667 36 76 36 100z
M209.002 601.001l-81 -62c16 4.66699 32.333 7 49 7h8c6 20 14 38.333 24 55zM472.002 134.001v84l-109 -84h109zM194.002 433.001c-5.33301 9.33301 -13 14 -23 14c-21.333 0 -35.333 -21.333 -42 -64zM183.002 534.001c-6 0 -8 0 -6 0c-38.667 0 -71 -11.833 -97 -35.5
s-43 -56.5 -51 -98.5l150 115c0.666992 6 2 12.333 4 19zM316.002 383.001c-36.667 -56 -81.333 -113.666 -134 -172.999v-56c81.333 83.333 126 159.666 134 228.999zM461.003 224.002h-165l-114 -87v-3h161zM317.003 407.002
c-1.33301 32.667 -10.666 59.668 -27.999 81.001h-3l-78 -59c2.66699 -9.33301 4 -19.333 4 -30c0 -55.333 -52.667 -146 -158 -272l118 90c59.333 65.333 107.666 128.666 144.999 189.999zM461.003 122.003h-114l-27 -20v-87zM327.003 122.003h-149l-15 -12h149z
M308.003 9.00293v90h-161l-117 -90h278zM170.003 142.003v59l-152 -117v-69l119 91c8.66699 6.66699 19.667 18.667 33 36zM230.003 498.003l-52 -39c10.667 -2 19 -8.33301 25 -19l67 51zM254.003 516.003l-11 -8l31 -6c-6 5.33301 -12.667 10 -20 14zM288.003 543.003
l-24 -19c6 -3.33301 11.667 -7.33301 17 -12c2 12 4.33301 22.333 7 31zM252.003 530.003l48.001 37c9.33301 12 21 18 35 18c10 0 18.333 -3.66699 25 -11c10.667 -10 16 -26.333 16 -49c0 -28.667 -15.667 -69 -47 -121v-3c1.33301 -30 -7.83398 -65.167 -27.501 -105.5
s-45.167 -77.166 -76.5 -110.499l65 49c127.333 121.333 191 218.666 191 291.999c0 41.333 -12.833 73.833 -38.5 97.5s-59.5 35.5 -101.5 35.5c-74 0 -122 -38 -144 -114c20.667 -2 39 -7 55 -15zM226.004 510.003l16 12c-14.667 6 -30.334 9.66699 -47.001 11
c-1.33301 -5.33301 -2.66602 -11 -3.99902 -17zM157.004 457.003l56.999 44l-28 4l-151 -115l81 -14c6.66699 46.667 20.334 73.667 41.001 81z" />
    <glyph glyph-name="three" unicode="3" horiz-adv-x="478" 
d="M498 286c0 -56.667 -15.3359 -96.999 -46.0029 -120.999c-6.66699 -6 -64 -51 -172 -135c-31.333 -23.333 -70.666 -35 -117.999 -35c-86 0 -138.667 43.333 -158 130l-1 6l4 1l134 103c-10.667 0.666992 -22.667 0.666992 -36 0h-6v89l4 4l94 73
c0 20 -4.66699 35.333 -14 46l-71 -54l-2 1l-95 28l1 5c9.33301 44 30 78 62 102l163 126c20.667 15.333 51.334 23 92.001 23c46.667 0 84.334 -14 113.001 -42c26.667 -27.333 40 -62.333 40 -105c0 -40 -14 -72.333 -42 -97c2 1.33301 -7.33301 -6.33398 -28 -23.001
c54.667 -19.333 82 -61 82 -125zM473.997 531.001c0 39.333 -12.667 71.667 -38 97s-59.666 38 -102.999 38c-75.333 0 -122 -37 -140 -111l48 -14l59 45l1 -1c7.33301 5.33301 15.666 8 24.999 8c11.333 0 20.666 -4 27.999 -12c12.667 -12 19 -30.333 19 -55
c0 -36.667 -12.667 -61.667 -38 -75l-16 -12c2 -11.333 3 -22.666 3 -33.999s-1.33301 -23 -4 -35c6.66699 -0.666992 14 -1.66699 22 -3l58 47c28.667 23.333 47.334 40.666 56.001 51.999c13.333 18 20 39.667 20 65zM360.997 526.002c0 36.667 -11.667 55 -35 55
c-22 0 -37 -19 -45 -57l-1 -6l-3 1l-3 -2c19.333 -16 33 -36.333 41 -61c30.667 8 46 31.333 46 70zM277.997 554.002l-23 -17l16 -5c2 8.66699 4.33301 16 7 22zM201.997 610.002l-84 -64c16.667 4.66699 33.667 7 51 7h8l3 2c4.66699 20.667 12 39 22 55zM302.997 442.002
c-9.33301 -1.33301 -19 -1.66699 -29 -1v-22zM302.997 453.001c-7.33301 23.333 -20 42.334 -38 57.001l-73 -56c9.33301 -10.667 15 -25.334 17 -44.001l58 44c6 -2.66699 18 -3 36 -1zM254.997 517.002c-5.33301 3.33301 -10.332 6 -14.999 8l-76 -58
c7.33301 0 13.666 -1.66699 18.999 -5zM310.998 405.002c0 8.66699 -0.666992 17.333 -2 26l-35 -27v-31c12 0 22.667 -0.333008 32 -1c3.33301 10.667 5 21.667 5 33zM485.998 286.001c0 61.333 -27.333 100.001 -82 116.001l-56 -43c20.667 -14 31 -37.333 31 -70
c0 -17.333 -4.66699 -33.333 -14 -48s-22.333 -23.667 -39 -27c5.33301 -16 8 -33.667 8 -53c0 -9.33301 -0.666992 -19 -2 -29c48 1.33301 85.667 15.666 113 42.999s41 64.333 41 111zM261.998 410.002l0.000976562 26l-53 -41
c-0.666992 -11.333 -2.33398 -21 -5.00098 -29zM227.999 531.002c-14.667 5.33301 -30.333 8.33301 -47 9l-146 -111l72 -22c6 26 15.667 44 29 54zM368 289.002c0 30.667 -10.001 51.333 -30.001 62l-58 -42c-7.33301 -5.33301 -19 -12.666 -35 -21.999l14 -4l12 3l1 -7v-2
c22 -12 38.333 -29 49 -51c14.667 2 26.334 9.66699 35.001 23c8 11.333 12 24.666 12 39.999zM160.999 540.001c-66 -2.66699 -109 -35.333 -129 -98zM171.999 454.002c-3.33301 1.33301 -6.66602 2 -9.99902 2c-18.667 0 -32.334 -13.667 -41.001 -41zM307.999 225.002
c-7.33301 14.667 -18.333 26.667 -33 36c6 -22 17 -34 33 -36zM301.999 360.002c-9.33301 1.33301 -20 1.66699 -32 1l-148 -113c12 -0.666992 22.667 -1.66699 32 -3l18 13l67 19l-16 9l66 47c6 10 10.333 19 13 27zM195.999 385.003l-75 -58h3c21.333 0 38.333 5 51 15
l-1 1l8 6c8 8.66699 12.667 20.667 14 36zM261.999 370.003l0.000976562 25l-73 -55c-14.667 -16.667 -36.334 -25 -65.001 -25c-4.66699 0 -9 0.333008 -13 1v-63zM322 161.003c0 18.667 -3 35.999 -9 51.999v0c-28 0 -45 18.333 -51 55l-63 -48
c8.66699 -11.333 14 -25.666 16 -42.999c24 -28.667 59 -43.667 105 -45c1.33301 10 2 19.667 2 29zM237 264.002l-56.001 -16c1.33301 -4.66699 3 -10 5 -16c0.666992 -0.666992 2.33398 -2 5.00098 -4zM389.999 129.002c-18.667 -5.33301 -38.668 -8.33301 -60.001 -9
c-3.33301 -18.667 -9.66602 -35.667 -18.999 -51zM203.998 164.002l-1 8c-7.33301 9.33301 -14 21 -20 35l-74 -56c4.66699 -34 18 -51 40 -51c16.667 0 30 6.5 40 19.5s15 27.833 15 44.5zM177.998 219.002c-0.666992 0.666992 -1.33301 2.33301 -2 5
c-6 3.33301 -12.333 6 -19 8l-118 -91l60 18zM317.999 120.001c-42.667 2 -76.998 15.335 -102.998 40.002c-0.666992 -22.667 -7.5 -40.334 -20.5 -53.001s-28.167 -19 -45.5 -19c-28.667 0 -46 19.333 -52 58l-80 -23c19.333 -78 67.666 -117 144.999 -117
c42 0 76.667 10.167 104 30.5s44.666 48.166 51.999 83.499zM309.001 344.003l17 11l-11 2z" />
    <glyph glyph-name="four" unicode="4" horiz-adv-x="475" 
d="M499 256h-4l-51 -40v-88l-4 -4l-166 -125h-116v131h-157l1 89l146 321h2l165 125h129v-317h55v-92zM420 653h-101l-51 -113h4zM300 640l-131 -100h86zM432 345v302l-152 -116v-21l55 42v-210l-4 -6l-51 -39v-30h51zM317 524l-37 -29v-61zM268 501v27h-6l-22 -48zM323 508
l-43 -105v-55h43v160zM475 256h-31v-25zM475 336h-35l-107 -81v-28zM487 267v63l-152 -116v-24l99 77h53zM268 348v27l-11 -27h11zM311 336h-31v-24zM268 405v81l-38 -29l-53 -116v-46l66 51zM210 441l-38 -27l1 -54zM432 222v28l-97 -75v-27zM432 136v71l-94 -71h94z
M321 222v24l-30 -24h30zM310 256h-30v-23zM268 267v21l-27 -21h27zM268 303v33h-18l-73 -56v-13h44zM249 528h-94l-133 -292l93 71l46 114l59 43zM160 386l-26 -65l26 20v45zM321 142v23l-30 -23h30zM206 256h-33l-2 -2v-25zM420 124h-91l-49 -38v-69zM318 130h-38v-29z
M160 326l-35 -27l-27 -64l62 47v44zM159 245l-29 -23h29v23zM159 267l-58 -45h9l49 38v7zM321 180v31h-50l-101 -78v-116l98 75v47zM268 223v33h-42l-55 -42l-3 -3h-54l-89 -69h137zM106 285l-93 -71v-66l82 63h-20zM268 11v66l-87 -66h87z" />
    <glyph glyph-name="five" unicode="5" horiz-adv-x="471" 
d="M496 313c0 -74 -21.667 -127.333 -65 -160l-155 -119c-3.33301 -2.66699 -5.16602 -4.5 -5.49902 -5.5s-10.166 -6.5 -29.499 -16.5c-24.667 -12 -51.334 -18 -80.001 -18c-86.667 0 -138 48.667 -154 146l155 119c-12 0 -24.667 -5 -38 -15
c-4.66699 -3.33301 -13.334 -10 -26.001 -20l-77 30v291l163 124h272v-112l-100 -76c46 -2.66699 81.333 -21 106 -55c22.667 -30 34 -67.667 34 -113zM444 570v82l-107 -82h107zM433 657h-237v-114h49l35 27h39zM439 559h-116.001l-31 -24v-40v-29
c16.667 7.33301 31.334 12 44.001 14zM303.999 559h-12v-10zM280.999 557l-17 -14h17v14zM317.999 464c-6 -1.33301 -14.333 -4.66699 -25 -10v-9zM229.999 531.999h-34l1 -26zM184.999 542.999v113l-147 -113h147zM184.999 443.999v39l-51 -39h51zM369.999 298.999
c0 56.667 -17 85 -51 85c-9.33301 0 -32 -14 -68 -42c44.667 -22.667 71 -64 79 -124c26.667 6 40 33 40 81zM247.999 354.999l-55.999 22l-31 -24c12 2 21.333 3 28 3c17.333 0 33.666 -2.66699 48.999 -8zM185 385.999v47h-57v-91zM318 217.999
c-8.66699 59.333 -34.668 98.332 -78.001 116.999l-83 -64c8.66699 -1.33301 15.334 -3 20.001 -5c14 2.66699 47.667 10.334 101 23.001c8.66699 -38 22 -61.667 40 -71zM184.999 497.998v34h-152v-263l83 64l1 112zM320.999 205.998
c-22 5.33301 -39.001 27.666 -51.001 66.999l-61 -47c4.66699 -13.333 7.33398 -28.666 8.00098 -45.999c9.33301 -11.333 20 -21 32 -29zM319.998 190.998l-60 -46c17.333 -8 35.333 -12.667 54 -14c4 18.667 6 38.667 6 60zM376.998 125.998c-20 -4.66699 -38 -7 -54 -7
c-4.66699 -15.333 -11.667 -32.333 -21 -51zM227.998 338.998c-14 3.33301 -27 5 -39 5c-26 0 -45.667 -5 -59 -15l-92 -70l56 -22zM238.998 143.998c-7.33301 5.33301 -14.668 11.667 -22.001 19c-1.33301 -14.667 -3.66602 -28.667 -6.99902 -42zM205.996 172.999
l0.000976562 3c-7.33301 9.33301 -14 20.333 -20 33l-70 -54c11.333 -42 25.666 -63 42.999 -63c31.333 0 47 27 47 81zM181.997 219.999c-3.33301 10 -6.33301 21 -9 33l-143 -109c13.333 2.66699 39 8.66699 77 18zM310.997 118.999
c-22.667 2.66699 -42.9971 8.66797 -60.9971 18.001l-56 -42c-12 -9.33301 -23.667 -14 -35 -14c-22.667 0 -40.334 23 -53.001 69c-18.667 -4.66699 -47.334 -11.334 -86.001 -20.001c8 -38 24.167 -68.333 48.5 -91s55.166 -34 92.499 -34c77.333 0 127.333 38 150 114z
M205 237l20 16.001v0l24 18c-26 -6.66699 -45.333 -11.334 -58 -14.001c5.33301 -6 10 -12.667 14 -20zM191 226.001l3.99902 4c-3.33301 8 -6.66602 13.667 -9.99902 17c1.33301 -6.66699 3.33301 -13.667 6 -21zM199.999 219.001l-5 -3c3.33301 -8 7 -15.333 11 -22
c-0.666992 4 -2.66699 12.333 -6 25zM261.999 444.001l19 15v37c-0.666992 17.333 -1 29.333 -1 36h-31l-52 -40v-48h65zM196.999 393.001l50 40h-50v-40zM265.999 433.001l-64.001 -47.998l55 -22c9.33301 7.33301 19.333 14.666 30 21.999s21.334 11 32.001 11
c41.333 0 62 -32.333 62 -97c0 -42.667 -11.667 -72.334 -35 -89.001c-3.33301 -2 -8.33301 -5.33301 -15 -10l1 -13c0 -16.667 -2 -35.667 -6 -57c52 1.33301 92 20 120 56c25.333 32.667 38 75 38 127c0 44 -10.667 80.333 -32 109c-23.333 32 -56.333 48 -99 48
c-4 0 -8.33301 -0.333008 -13 -1l-47 -36h-27zM280.998 445.003l-1 -1h1v1z" />
    <glyph glyph-name="six" unicode="6" horiz-adv-x="476" 
d="M499 320c0 -66.667 -18.6689 -118.667 -56.002 -156c-3.33301 -3.33301 -11.333 -9.66602 -24 -18.999l-149 -114c-30.667 -24 -64 -36 -100 -36c-40 0 -72.667 13 -98 39c-44 44 -66 119.333 -66 226c0 133.333 25.333 219.333 76 258l163 126
c30.667 23.333 64.334 35 101.001 35c84.667 0 132.334 -49 143.001 -147l1 -6h-5l-74 -58c18 -5.33301 33 -14 45 -26c28.667 -28.667 43 -69.334 43 -122.001zM475.998 536c-10.667 87.333 -54 131.001 -130 131.001c-38 0 -69.667 -12.667 -95 -38
c-18.667 -18.667 -33.667 -44.334 -45 -77.001c36.667 -5.33301 65.667 -22.333 87 -51c6 60.667 23.333 91 52 91c26 0 40.333 -21.667 43 -65zM462.998 523.001l-78 -9l-71 -54c0 -1.33301 0.333008 -3 1 -5c21.333 12 42 18 62 18c4.66699 0 10.667 -0.333008 18 -1z
M376.998 523.001c-2.66699 38.667 -13.333 58 -32 58c-24 0 -38 -32.333 -42 -97c2 -4 4 -8.33301 6 -13zM381.999 461.001h-2.5h-2.5c-18.667 0 -38 -6 -58 -18c2 -8 3.66699 -16.667 5 -26zM219.999 610.001l-80 -62c13.333 4 27.333 6 42 6
c2.66699 0 6.66699 -0.333008 12 -1c7.33301 21.333 16 40.333 26 57zM304.999 448.001c0 1.33301 -0.333008 2.66602 -1 3.99902l-2 -1v-5c0.666992 0.666992 1.66699 1.33398 3 2.00098zM290.999 482.001c-19.333 34 -49 53.332 -89 57.999
c-6.66699 -22 -12 -46.333 -16 -73c22 -3.33301 34.667 -23.666 38 -60.999l66 50c0 9.33301 0.333008 18 1 26zM312.999 411c-1.33301 8.66699 -3 17 -5 25l-9 -6v0v0c-2 -1.33301 -5 -4 -9 -8v1l-22 -17zM289.999 441l-50 -38l5 1l45 34v3zM370.999 312v3
c0 28 -4.66699 46.667 -14 56c-6 6 -14 9 -24 9c-7.33301 0 -15 -3 -23 -9h1l-5 -3c-4 -4.66699 -6 -9.33398 -6 -14.001v-4c0 -17.333 0.333008 -31.666 1 -42.999c18 -22.667 29 -52 33 -88h4c22 0 33 31 33 93zM486.999 320c0 33.333 -6.66602 62.334 -19.999 87.001
c-15.333 29.333 -38 46.666 -68 51.999l-79 -59l-70 -8l-63 -48c10 2.66699 18.667 4 26 4c13.333 0 26.333 -2.33301 39 -7l48 37c10.667 9.33301 21.667 14 33 14c13.333 0 24.333 -4 33 -12c11.333 -12 17 -33.667 17 -65v-3c0 -54 -9 -88 -27 -102l-21 -16
c0 -20.667 -2.33301 -41 -7 -61h3h3c33.333 0 60.666 8 81.999 24l3 3c45.333 34.667 68 88 68 160zM288 320.001l-0.000976562 30v3l-23 -17c8.66699 -4.66699 16.334 -10 23.001 -16zM226.999 390.001l-13 -1.99902l-1 6c-2 37.333 -11.333 57.666 -28 60.999
c-2.66699 -22.667 -4 -46 -4 -70c0 -9.33301 0.333008 -19.333 1 -30zM320.999 227.002c-3.33301 20.667 -9.33301 39 -18 55c3.33301 -26 9.33301 -44.333 18 -55zM172.999 454.002c-22.667 -8 -34.333 -52.333 -35 -133l33 26c-0.666992 14 -1 26.667 -1 38
c0 23.333 1 46.333 3 69zM241 332.002c-10 2.66699 -19.332 4 -27.999 4s-18.334 -1.66699 -29.001 -5c1.33301 -13.333 3 -26 5 -38zM323.001 200.002l-0.000976562 11c-19.333 10 -30.666 40.333 -33.999 91c-9.33301 11.333 -21 20 -35 26l-63 -48
c2 -8 3.66699 -15 5 -21c14 -10 21.667 -29.333 23 -58c12 -20.667 26.333 -36.667 43 -48zM323 184.002l-49 -37c12.667 -6.66699 26.667 -11 42 -13c4 16 6.33301 32.667 7 50zM182 265.002c0 1.33301 -0.333984 3.66699 -1.00098 7l-7 -6
c2.66699 0 5.33398 -0.333008 8.00098 -1zM312.999 122.003c-18 2.66699 -34.668 8.33203 -50.001 16.999l-70 -54c-3.33301 -2.66699 -9.66602 -4 -18.999 -4c-8.66699 0 -16.334 3.33301 -23.001 10c-18 18 -27 62.333 -27 133v5c0 11.333 7 21.333 21 30l33 26
c-2.66699 15.333 -4.66699 29.333 -6 42c-12 -5.33301 -24.333 -12.666 -37 -21.999v0l-9 -8v18c0.666992 37.333 3 66.333 7 87c7.33301 39.333 21 60.666 41 63.999c4 27.333 9.33301 52.333 16 75c-6 0.666992 -8.66699 1 -8 1c-38 0 -69.667 -12.667 -95 -38
c-46 -46.667 -69 -128 -69 -244c0 -103.333 20.667 -175.666 62 -216.999c23.333 -24 53.333 -36 90 -36c72.667 0 120.334 38.333 143.001 115zM374.998 126.001c-13.333 -3.33301 -27 -5 -41 -5h-9c-5.33301 -18 -12.333 -34.333 -21 -49zM251.998 145.001
c-12 8.66699 -23 20 -33 34c0 -28 -2.66699 -49.667 -8 -65zM207.998 187.001l0.000976562 2.00195c0 1.33301 -0.333008 4.66602 -1 9.99902c-8.66699 15.333 -15.667 32.666 -21 51.999c-4.66699 2.66699 -10.334 4 -17.001 4c-5.33301 0 -11 -2 -17 -6l-5 -3v0
c-7.33301 -6 -11 -11.667 -11 -17v-5c0 -87.333 12.667 -131 38 -131c22.667 0 34 31.333 34 94z" />
    <glyph glyph-name="seven" unicode="7" horiz-adv-x="441" 
d="M472 595l0.000976562 -1.99805c-40 -68.667 -69.333 -139.334 -88 -212.001c-16.667 -66.667 -28 -150.334 -34 -251.001v-3l-4 -3l-165 -125h-143l1 6c17.333 140 64.666 281 141.999 423h-177v110l4 2l166 125h298v-70zM461.001 599.002v48l-107 -82h10l-4 -8
c-10 -18 -20 -37.333 -30 -58zM449.001 653.002h-269v-88h154zM337.001 538.002l-28 -21v-34v1c8.66699 18 18 36 28 54zM318.001 553.002h-142l-17 -13h142zM168.001 562.002v85l-140 -107h111zM447.001 574.002l-128 -98c-54 -114.667 -88.333 -228 -103 -340h123
c6 169.333 42 315.333 108 438zM297.001 523.002v5h-154l-115 -88h161zM124.001 528.002h-108v-82zM277.001 411.002c-41.333 -85.333 -68.333 -179.667 -81 -283l7 5c12 91.333 36.667 184 74 278zM297.001 473.001l-0.000976562 35l-102 -78
c-75.333 -138 -122.666 -275.333 -141.999 -412l130 100c14.667 130 52.667 248.333 114 355zM327 124.001l-116.001 -0.000976562l-17 -13c-3.33301 -29.333 -5.66602 -60.666 -6.99902 -93.999zM180.999 101l-119 -90h113c1.33301 31.333 3.33301 61.333 6 90z" />
    <glyph glyph-name="eight" unicode="8" horiz-adv-x="484" 
d="M504 278c0 -50 -16.999 -89.335 -50.999 -118.002v-1l-163 -125l-1 1c-32 -26.667 -73 -40 -123 -40c-50.667 0 -91.334 15 -122.001 45c-26.667 26.667 -40 60.334 -40 101.001c0 54.667 29 98.334 87 131.001c-45.333 34 -68 77 -68 129c0 47.333 15.667 85 47 113v1
l164 125v0c28.667 25.333 65 38 109 38c47.333 0 84.333 -13.333 111 -40c23.333 -23.333 35 -54 35 -92c0 -49.333 -23.333 -90.333 -70 -123c56.667 -38 85 -86.333 85 -145zM385.001 539.998c0 32.667 -13.667 49 -41 49c-12 0 -21.667 -4.33301 -29 -13
s-11 -19.334 -11 -32.001c0 -23.333 17 -47.666 51 -72.999c20 22.667 30 45.667 30 69zM477.001 545.998c0 34.667 -10.333 62.668 -31 84.001c-24.667 24 -59 36 -103 36c-37.333 0 -69 -10 -95 -30s-41.667 -48 -47 -84c16 -2 31 -5.66699 45 -11l68 52
c12.667 5.33301 22.667 8 30 8c35.333 0 53 -20.333 53 -61c0 -28 -12.333 -55 -37 -81l-4 -4l-1 1l-30 -24v-11c0 -24 -5.66699 -46.333 -17 -67l8 6l1 1v0l81 62h-1l8 5c48 31.333 72 70.666 72 117.999zM346.001 462.999c-35.333 27.333 -53.001 54.332 -53.001 80.999
c0 6.66699 1 13.334 3 20.001l-38 -29c36.667 -18 58.334 -47.667 65.001 -89zM206 603.998l-75 -56.999c15.333 4 31.333 6 48 6c1.33301 0 4.66602 -0.333008 9.99902 -1c2.66699 19.333 8.33398 36.666 17.001 51.999zM235 531.999c-11.333 4 -23 6.66797 -35 8.00098
c-0.666992 -5.33301 -1 -10 -1 -14c0 -6.66699 0.333008 -13.334 1 -20.001zM312 438c-4.66699 42.667 -26 72.333 -64 89l-45 -34c2 -9.33301 5.33301 -18.666 10 -27.999c8 -6.66699 13.667 -15.667 17 -27c10 -12.667 22.333 -24.334 37 -35.001zM492 277.999
c0 56 -27.668 102 -83.001 138l-81 -62c44 -27.333 66 -56.666 66 -87.999c0 -26 -10.667 -44.333 -32 -55l-27 -21c3.33301 -12.667 5 -25.334 5 -38.001c0 -6 -0.333008 -12.667 -1 -20c46.667 2 83.834 16.167 111.501 42.5s41.5 60.833 41.5 103.5zM195.999 473.999
c-1.33301 4.66699 -2.33301 8.33301 -3 11l-12 -9c4.66699 0 9.66699 -0.666992 15 -2zM254.999 396.998c-8 6.66699 -15.333 13.334 -22 20.001v-2c0 -12.667 -2.33301 -25.334 -7 -38.001c8 7.33301 17.667 14 29 20zM381.999 265.998
c0 27.333 -20.999 54.001 -62.999 80.001c-20 -24.667 -30.333 -49.334 -31 -74.001c17.333 -16.667 30.333 -35 39 -55c3.33301 -0.666992 5.66602 -1 6.99902 -1c7.33301 0 14.333 1.66699 21 5l13 10l1 -1c8.66699 9.33301 13 21.333 13 36zM313 420.999v2l-36 -27v-1
l-2 -1l-69 -52c-17.333 -22.667 -26 -48 -26 -76c0 -2.66699 0.333008 -6 1 -10l54 41l-1 1l7 5l27 21c30 22.667 45 55 45 97zM221 414.999c0 6 -0.666992 11.999 -2 17.999c-6 7.33301 -11 15.333 -15 24c-6.66699 4.66699 -14.667 7 -24 7c-12 0 -21.5 -4.5 -28.5 -13.5
s-10.5 -19.5 -10.5 -31.5c0 -23.333 16.667 -47.666 50 -72.999l1 1c19.333 22 29 44.667 29 68zM291 324.998l-36 -27c8 -5.33301 15.333 -11 22 -17c2 15.333 6.66699 30 14 44zM311 221.998c-5.33301 10.667 -12 20.333 -20 29c3.33301 -13.333 10 -23 20 -29z
M190 497.997c-2 10 -3 19.334 -3 28.001c0 4 0.333008 9 1 15h-9c-36.667 0 -68 -9.66699 -94 -29l-2 -2c-32 -24.667 -48 -61 -48 -109c0 -49.333 22.333 -90.333 67 -123l79 61c-34.667 26 -52 52.667 -52 80c0 21.333 7 37.666 21 48.999zM322 194.998
c-0.666992 2.66699 -2 6.66602 -4 11.999c-25.333 6.66699 -39 26.334 -41 59.001c-9.33301 8.66699 -20 16.667 -32 24l-63 -48c2 -12 5.33301 -23 10 -33c15.333 -13.333 26 -27.333 32 -42c10 -8.66699 21.333 -15.667 34 -21zM395 128.997
c-18 -5.33301 -37.333 -8.33301 -58 -9c-3.33301 -17.333 -9 -33.333 -17 -48zM328 151.997c0 9.33301 -1 19.333 -3 30l-54 -41c17.333 -6 36 -9 56 -9c0.666992 7.33301 1 14 1 20zM174 221.997c-0.666992 3.33301 -1.33301 7.33301 -2 12l-7 -5zM247.001 137.997
c-6 2.66699 -12 6.33301 -18 11c0.666992 -5.33301 1 -8.33301 1 -9c0 -5.33301 -0.666992 -11 -2 -17zM325.001 119.996c-24 0.666992 -45.6689 4.66992 -65.002 12.0029l-46 -34c-11.333 -12.667 -25.666 -19 -42.999 -19c-38.667 0 -58 22.333 -58 67
c0 29.333 12.333 58 37 86l3 4l1 -1l15 12c-0.666992 7.33301 -1 13.666 -1 18.999c0 20.667 4.33301 40 13 58c-19.333 -16.667 -44.666 -36 -75.999 -58c-59.333 -30.667 -89 -72.334 -89 -125.001c0 -37.333 12 -68 36 -92c28.667 -28.667 66.667 -43 114 -43
c42.667 0 78 10.167 106 30.5s45.667 48.166 53 83.499zM217.999 139.999c0 6 -1.33398 12.667 -4.00098 20c-13.333 12 -23.666 25.667 -30.999 41c-8 6.66699 -17 13 -27 19c-20.667 -24 -31 -48.667 -31 -74c0 -36.667 15.333 -55 46 -55c14 0 25.333 4.66699 34 14v0
l2 2c7.33301 9.33301 11 20.333 11 33z" />
    <glyph glyph-name="nine" unicode="9" horiz-adv-x="470" 
d="M499 414c0 -119.333 -24.333 -203.334 -73 -252.001l-16 -16l-164 -125c-22 -17.333 -51 -26 -87 -26c-85.333 0 -133 49 -143 147l-1 6l4 1l75 57c-18 5.33301 -33 14 -45 26c-28.667 28.667 -43 69.334 -43 122.001c0 78 22 133.667 66 167l164 126
c28 21.333 61 32 99 32c39.333 0 72 -13 98 -39c44 -44 66 -119.333 66 -226zM368 450.999c0 86.667 -12.334 129.999 -37.001 129.999c-22.667 0 -34 -31.667 -34 -95v-2c0 0.666992 0 -1.66602 0 -6.99902c8.66699 -15.333 16 -33.333 22 -54
c4.66699 -2.66699 10.334 -4 17.001 -4s13.667 3 21 9s11 12.333 11 19v4zM293.999 560.998l-42 -32c12.667 -8.66699 23.667 -19.667 33 -33c0.666992 27.333 3.66699 49 9 65zM202.999 606.998l-77 -60c14.667 4.66699 29.667 7 45 7c0.666992 0 3.66699 -0.333008 9 -1
c5.33301 19.333 13 37.333 23 54zM486.999 413.998c0 103.333 -20.6641 176.004 -61.9971 218.004c-24 23.333 -54 35 -90 35c-40.667 0 -74.334 -13.333 -101.001 -40c-18.667 -18.667 -32.667 -43.667 -42 -75c18 -2 34.667 -7.33301 50 -16l70 54
c0.666992 -0.666992 3.66699 -0.333984 9 0.999023s8.66602 2 9.99902 2c8.66699 0 16.667 -3.33301 24 -10c17.333 -18 26 -62.667 26 -134v-4c0 -4.66699 -4.33301 -13.667 -13 -27c-1.33301 -2 -15 -12.333 -41 -31c2.66699 -12.667 4.66699 -26 6 -40
c12 5.33301 24 12.666 36 21.999l10 8v-19c-0.666992 -32.667 -2.33398 -58.334 -5.00098 -77.001c-5.33301 -34 -15 -56.333 -29 -67l1 -1l-16 -12c-3.33301 -24.667 -8.33301 -47.334 -15 -68.001c6 0 8.66699 0 8 0c64.667 0 110.667 36.333 138 109
c17.333 46.667 26 104 26 172zM335.002 408.002c-4.66699 0 -9.00098 0.333008 -13.001 1c0.666992 -2 1.33398 -5 2.00098 -9zM231.001 527.002c-12.667 7.33301 -27 11.667 -43 13c-3.33301 -15.333 -5.33301 -32 -6 -50zM314.001 392.003
c-2 8.66699 -3.66602 16.332 -4.99902 22.999c-14.667 10 -22.667 29.667 -24 59c-11.333 20.667 -25.333 36.334 -42 47.001l-61 -46v-11c19.333 -10 30.666 -40.667 33.999 -92c10.667 -12.667 23 -21.667 37 -27zM321.002 343.001c-1.33301 12 -3.00098 24 -5.00098 36
l-49 -38c8.66699 -2 17 -3 25 -3c8.66699 0 18.334 1.66699 29.001 5zM202.001 391.001c-3.33301 27.333 -9.33301 46.001 -18 56.001c2.66699 -20.667 8.66699 -39.334 18 -56.001zM242.001 337.002c-9.33301 4.66699 -17.667 10.333 -25 17v-30v-4v-2zM205 324.001
c0 17.333 -0.333984 31.667 -1.00098 43c-18 22.667 -29 52 -33 88c-0.666992 0 -2 0.333008 -4 1c-22.667 0 -34 -32 -34 -96v-1c0 -28 4.66699 -46.667 14 -56c6 -6 14.333 -9 25 -9c6.66699 0 13.834 2.83301 21.501 8.5s11.5 11.5 11.5 17.5v4zM318.999 208.002
c-22 2.66699 -34.667 22.667 -38 60l-66 -50c-0.666992 -9.33301 -1 -18 -1 -26c8.66699 -16 20 -28.667 34 -38zM315.999 190.002l-56.999 -43c13.333 -6.66699 28 -11 44 -13c5.33301 17.333 9.66602 36 12.999 56zM203 228.002l-3 -2l1 -4l2 2v4zM364 126.002
c-13.333 -3.33301 -26.999 -5 -40.999 -5h-12c-6.66699 -20.667 -15.334 -39 -26.001 -55zM186.001 230.002c-2 8.66699 -3.66797 17.667 -5.00098 27l-58 -44c6.66699 0 8.33398 0 5.00098 0c18.667 0 38 5.66699 58 17zM239 146.002c-10 7.33301 -19 16.333 -27 27
c-2 -23.333 -6 -42 -12 -56zM202 190.002c-2.66699 4 -5.00098 8.33301 -7.00098 13l-67 -51c2.66699 -38.667 13.334 -58 32.001 -58c23.333 0 37.333 32 42 96zM190.999 215.002c-0.666992 0.666992 -1.33398 2 -2.00098 4c-20.667 -12 -41 -18 -61 -18
c-5.33301 0 -11.666 0.333008 -18.999 1l-67 -51l78 9zM298.999 123.002c-18.667 2 -35.334 7.33301 -50.001 16l-67 -51l-1 1c-6.66699 -4.66699 -13.667 -7 -21 -7c-26 0 -40.333 22 -43 66l-89 -10c11.333 -87.333 55 -131 131 -131c66.667 0 113.334 38.667 140.001 116
zM260.999 271.002l-46 -36v-2l50 38h-4zM322.999 318.002l-44 -33l12 1l1 -6c2 -37.333 11.333 -57.333 28 -60c2.66699 22 4 45 4 69c0 9.33301 -0.333008 19 -1 29zM366.999 352.002l-33 -25c0.666992 -12.667 1 -25.334 1 -38.001c0 -23.333 -1 -46 -3 -68
c22 8.66699 33.667 52.334 35 131.001zM256.999 282.002l61.001 47.999c-9.33301 -2.66699 -18 -4 -26 -4c-12 0 -24.333 2 -37 6c-30 -22.667 -47.333 -35 -52 -37c-12 -8.66699 -22.333 -13 -31 -13c-14 0 -25 4.33301 -33 13c-12 11.333 -18 32.666 -18 63.999v1
c0 50.667 7.33301 83.334 22 98.001c0.666992 1.33301 2.66699 3.33301 6 6l21 16c0 20.667 2.33301 41 7 61c-0.666992 0 -1.66699 0.333008 -3 1h-3c-40.667 0 -74.334 -13.333 -101.001 -40c-34.667 -35.333 -52 -84.666 -52 -147.999c0 -33.333 6.33301 -62.333 19 -87
c16 -28.667 39 -46 69 -52l79 59zM212 248.001l26 20l-46 -5c1.33301 -8.66699 3 -17 5 -25z" />
    <glyph glyph-name="colon" unicode=":" horiz-adv-x="311" 
d="M305 384l-169 -128h-121v126l169 128h121v-126zM282 498h-92v-70zM293 394v98l-103 -79v-19h103zM179 419v73l-141 -107h95zM179 391v13l-38 -28v-14zM282 382h-96l-45 -35v-73zM130 353v20h-103v-99zM130 268v70l-92 -70h92zM305 127l-169 -128h-121v126l169 128h121
v-126zM282 241h-92v-70zM293 137v98l-103 -78v-20h103zM179 162v73l-141 -107h95zM179 134v13l-38 -28v-14zM282 125h-96l-45 -35v-73zM130 96v20h-103v-99zM130 11v70l-92 -70h92z" />
    <glyph glyph-name="semicolon" unicode=";" horiz-adv-x="290" 
d="M311 384l-169 -128h-122v126l169 128h122v-126zM287 498h-91v-70zM299 393v99l-103 -79v-20h103zM184 419v73l-140 -108h95zM184 390v14l-37 -28v-14zM287 381h-95l-45 -34v-73zM135 353v20h-103v-99zM135 268v70l-91 -70h91zM310 136l-71 -128l-165 -126h-61l44 117h-37
v126l169 129h121v-118zM287 242h-91v-70zM298 140v95l-102 -78v-21h42l-22 -59zM286 116l-78 -60l-14 -37h39zM184 163v73l-140 -108h95zM184 133v15l-37 -29v-15zM212 124h-20l-45 -35v-15zM217 113l-70 -54v-35l51 39zM190 42l-45 -34l-16 -30l51 39zM135 95v21h-103v-99z
M135 65v15l-91 -69h20zM219 8h-32l-72 -56l-23 -42zM135 14v36l-64 -49l-37 -95l71 54zM91 -66l-52 -40h30z" />
    <glyph glyph-name="less" unicode="&#x3c;" horiz-adv-x="1776" 
d="M1693 645c-6.66699 -0.666992 -12.999 -4.66797 -18.999 -12.001s-9 -14.333 -9 -21v-130h-30v163c0 6.66699 -2 12 -6 16l17 21c11.333 -3.33301 17.666 -12.666 18.999 -27.999c14 18.667 23.333 28 28 28v-37zM1622 623.999c0 -34.667 -14.333 -55.668 -43 -63.001
c0 -11.333 2 -21.666 6 -30.999c5.33301 -12 13 -18 23 -18c2.66699 0 6.66699 1.33301 12 4v-33c-4 -2 -9.33301 -3 -16 -3c-38 0 -57 33.667 -57 101v23c0 52 12.667 78 38 78c24.667 0 37 -19.333 37 -58zM1533 481.998h-30v163c0 5.33301 -2.66699 8 -8 8
c-2.66699 0 -5 -1.66699 -7 -5v-166h-30v164c0 7.33301 -2 12.333 -6 15l19 22c5.33301 -1.33301 10.333 -6 15 -14c7.33301 9.33301 15 14 23 14c16 0 24 -11.667 24 -35v-166zM1441 481.998h-28.999v162c0 6 -2.66699 9 -8 9
c-2.66699 -1.33301 -5.33398 -3.33301 -8.00098 -6v-165h-29v258h29v-69c6.66699 8 13.667 12 21 12c16 0 24 -12.667 24 -38v-163zM1710 157.998h-29.001v160c0 6.66699 -2.33301 10 -7 10c-3.33301 -1.33301 -6 -3.33301 -8 -6v-164h-30v161
c0 6.66699 -2.33301 9.66699 -7 9c-3.33301 -1.33301 -6 -3.33301 -8 -6v-164h-30v168c0 5.33301 -1.66699 9.33301 -5 12l18 21c8 -2.66699 13 -7.66699 15 -15c7.33301 10 15.333 15 24 15s15.334 -5 20.001 -15c8 10 16 15 24 15c15.333 0 23 -12.333 23 -37v-164z
M1354 580.998c0 -67.333 -12 -101 -36 -101c-26 0 -39 33.667 -39 101s12.333 101 37 101c25.333 0 38 -33.667 38 -101zM1272 481.998h-56v258h35v-224h21v-34zM1576 256.998c0 -67.333 -12 -101 -36 -101c-26 0 -39 33.667 -39 101s12.333 101 37 101
c25.333 0 38 -33.667 38 -101zM1168 505.998l-18 -26c-8 2 -13 8 -15 18c-7.33301 -12 -14 -18 -20 -18c-19.333 0 -29 25 -29 75v36c0 61.333 15 92 45 92v57h30v-210c0 -12 2.33301 -20 7 -24zM1493 160.998c-4.66699 -4 -9.66797 -6 -15.001 -6
c-27.333 0 -41 30.333 -41 91v28c0 56.667 14 85 42 85c4.66699 0 9.33398 -1 14.001 -3v-30c-4 1.33301 -6.66699 2 -8 2c-12 0 -18 -18 -18 -54v-30c0 -38.667 5.33301 -58 16 -58c4.66699 0 8 1.33301 10 4v-29zM1077 501.998l-23 -22c-10.667 3.33301 -16 12.333 -16 27
v233h30v-217c0 -11.333 3 -18.333 9 -21zM1385 200.998c0 -30 -11.333 -45.001 -34 -45.001c-7.33301 0 -14 1.66699 -20 5v30c3.33301 -4 7.33301 -6 12 -6c10 0 15 5 15 15c0 13.333 -4.5 32.333 -13.5 57s-13.5 43.334 -13.5 56.001c0 30.667 10.333 46 31 46
c6 0 12.667 -2.33301 20 -7v-27c-4 3.33301 -7.66699 5 -11 5c-8 0 -12 -5.33301 -12 -16c0 -12 4.33301 -30.5 13 -55.5s13 -44.167 13 -57.5zM1430 174.997c0 -12.667 -6.33301 -19 -19 -19c-13.333 0 -20 6.33301 -20 19s6.66699 19 20 19c12.667 0 19 -6.33301 19 -19z
M1023 580.997c0 -67.333 -12 -101 -36 -101c-26 0 -39 33.667 -39 101s12.333 101 37 101c25.333 0 38 -33.667 38 -101zM1323 161.997c-5.33301 -4 -10.666 -5.99902 -15.999 -5.99902c-19.333 0 -29 11.667 -29 35v140h-15v9c7.33301 7.33301 19.333 23.666 36 48.999h9
v-32h15v-26h-15v-136c0 -6.66699 2.66699 -10 8 -10c1.33301 0 3.66602 0.666992 6.99902 2v-25zM941 644.998c-6.66699 -0.666992 -13.168 -4.66797 -19.501 -12.001s-9.5 -14.333 -9.5 -21v-130h-29v163c0 6.66699 -2.33301 12 -7 16l18 21
c10.667 -3.33301 16.667 -12.666 18 -27.999c14.667 18.667 24.334 28 29.001 28v-37zM1252 157.997h-29.999v163c0 5.33301 -2.33301 8 -7 8c-2.66699 0 -5.33398 -1.66699 -8.00098 -5v-166h-29v163c0 8 -2 13.333 -6 16l18 22c6 -1.33301 11 -6 15 -14
c7.33301 9.33301 15 14 23 14c16 0 24 -11.667 24 -35v-166zM873 505.997l-17.999 -26c-6 2 -11 8 -15 18c-6 -12 -13 -18 -21 -18c-19.333 0 -29 29.667 -29 89v24c0 59.333 20.333 89 61 89h14c0 6.66699 -0.666992 -10 -2 -50c-0.666992 -32.667 -0.666992 -59 0 -79
c1.33301 -27.333 4.66602 -43 9.99902 -47zM1164 256.997c0 -67.333 -12 -101 -36 -101c-25.333 0 -38 33.667 -38 101s12.333 101 37 101s37 -33.667 37 -101zM1509 -166.003h-30.001v160c0 6.66699 -2.33301 10 -7 10c-3.33301 -1.33301 -6 -3.33301 -8 -6v-164h-29v161
c0 6 -2.33301 9 -7 9c-4 -1.33301 -7 -3.33301 -9 -6v-164h-29v167c0 6 -1.66699 10 -5 12l17 21c8.66699 -2 14 -6.66699 16 -14c6.66699 9.33301 14.334 14 23.001 14s15.667 -4.66699 21 -14c8 9.33301 16 14 24 14c15.333 0 23 -12 23 -36v-164zM773 481.997h-35v109
h-18v-109h-35v258h35v-116h18v116h35v-258zM1081 388.997c-9.33301 -0.666992 -14 -11.3311 -14 -31.998h14v-26h-14v-158c0 -35.333 -14 -53 -42 -53v33c8.66699 -0.666992 13 7.66602 13 24.999v153h-13v26h13c0 41.333 12.667 61.666 38 60.999h5v-29zM1374 -67
c0 -67.333 -12 -101 -36 -101c-25.333 0 -38 33.667 -38 101s12.333 101 37 101s37 -33.667 37 -101zM1017 201c0 -30 -11.333 -45.001 -34 -45.001c-7.33301 0 -14 1.66699 -20 5v30c3.33301 -4 7.33301 -6 12 -6c10 0 15 5 15 15c0 13.333 -4.5 32.333 -13.5 57
s-13.5 43.334 -13.5 56.001c0 30.667 10.333 46 31 46c6 0 12.667 -2.33301 20 -7v-27c-4 3.33301 -7.66699 5 -11 5c-8 0 -12 -5.33301 -12 -16c0 -12 4.33301 -30.5 13 -55.5s13 -44.167 13 -57.5zM958 181.999l-17 -25.999c-8 2 -13.333 8 -16 18
c-7.33301 -12 -14 -18 -20 -18c-19.333 0 -29 25 -29 75v36c0 61.333 15 91.666 45 90.999v58h30v-210c0 -12 2.33301 -20 7 -24zM1292 -163c-5.33301 -4 -10.333 -6 -15 -6c-27.333 0 -41 30 -41 90v29c0 56 14 84 42 84c4 0 8.66699 -0.666992 14 -2v-30
c-4 1.33301 -6.66699 2 -8 2c-12 0 -18 -18 -18 -54v-30c0 -38.667 5.33301 -58 16 -58c4.66699 0 8 1.33301 10 4v-29zM621 655c0 -28 -7 -59.5 -21 -94.5s-31 -62.833 -51 -83.5l-20 28c16 20 29.333 44.667 40 74c-25.333 19.333 -38 46 -38 80c0 18.667 3 35.667 9 51
c8 20.667 19.667 31 35 31c16.667 0 29 -11 37 -33c6 -15.333 9 -33 9 -53zM867 178l-23 -21.999c-10.667 3.33301 -16 12.333 -16 27v233h30v-218c0 -10.667 3 -17.334 9 -20.001zM1186 -145.999l-23 -21.999c-10.667 3.33301 -16 12 -16 26v234h29v-218
c0 -10.667 3.33301 -17.334 10 -20.001zM524 608.002c0 -85.333 -15 -128 -45 -128c-32 0 -48 43.333 -48 130c0 88 15.333 132 46 132c31.333 0 47 -44.667 47 -134zM1228 -148.998c0 -12.667 -6.33301 -19 -19 -19s-19 6.33301 -19 19s6.33301 19 19 19
s19 -6.33301 19 -19zM813 257.002c0 -67.333 -12 -101 -36 -101c-25.333 0 -38 33.667 -38 101s12.333 101 37 101s37 -33.667 37 -101zM1132 -66.998c0 -67.333 -12 -101 -36 -101c-26 0 -39 33.667 -39 101s12.333 101 37 101c25.333 0 38 -33.667 38 -101zM419 608.002
c0 -85.333 -14.667 -128 -44 -128c-32.667 0 -49 43.333 -49 130c0 88 15.333 132 46 132c31.333 0 47 -44.667 47 -134zM731 321.002c-6.66699 -1.33301 -13 -5.5 -19 -12.5s-9 -13.833 -9 -20.5v-130h-30v163c0 6.66699 -2.33301 12 -7 16l18 21
c10.667 -4 17 -13.333 19 -28c14 18.667 23.333 28 28 28v-37zM1052 -141.998l-17 -26c-6 1.33301 -11.333 7 -16 17c-5.33301 -11.333 -12 -17 -20 -17c-19.333 0 -29 29.667 -29 89v24c0 59.333 20.333 89 61 89h14c0 6 -0.666992 -11 -2 -51
c-0.666992 -32 -0.666992 -58 0 -78c1.33301 -28 4.33301 -43.667 9 -47zM314 482.002l-72 -0.000976562c22.667 79.333 34 143 34 191c0 20 -5.66699 30 -17 30c-6 0 -11.333 -2.66699 -16 -8v33c10 9.33301 19.667 14 29 14c26.667 0 40 -21 40 -63
c0 -33.333 -8.66699 -87.666 -26 -162.999h28v-34zM663 182.001l-16.999 -26c-6.66699 2 -12 8 -16 18c-5.33301 -12 -12.333 -18 -21 -18c-19.333 0 -29 29.667 -29 89v24c0 59.333 20.333 89 61 89h14c0 6 -0.666992 -11 -2 -51c-0.666992 -32 -0.666992 -58 0 -78
c1.33301 -28 4.66602 -43.667 9.99902 -47zM953.001 -24.999c0 -16 -2.00098 -32.668 -6.00098 -50.001c-5.33301 -24.667 -13 -37 -23 -37c-9.33301 0 -13.666 10 -12.999 30c-4 -20 -10 -30 -18 -30c-12.667 0 -19 17.333 -19 52c0 14.667 2 29.667 6 45
c5.33301 22.667 12.666 34 21.999 34c8 0 12.667 -8.33301 14 -25l3 19h11c-6 -55.333 -9 -84.666 -9 -87.999c0 -7.33301 1.66699 -11.666 5 -12.999c10 0 15 21.667 15 65c0 50 -11.667 75 -35 75c-16.667 0 -29 -14 -37 -42c-6 -19.333 -9 -40.333 -9 -63
c0 -21.333 2.66699 -41 8 -59c8 -25.333 19.667 -38 35 -38c12.667 0 24.334 10.333 35.001 31l5 -18c-12 -24 -25.667 -36 -41 -36c-20 0 -34.667 16 -44 48c-6 22 -9 46.333 -9 73c0 27.333 3.33301 52.666 10 75.999c10.667 34 26 51 46 51c17.333 0 30.333 -13 39 -39
c6 -18 9 -38.333 9 -61zM564 158h-30v161c0 6.66699 -2.33301 10 -7 10c-3.33301 -1.33301 -6.33301 -3.33301 -9 -6v-165h-29v258h29v-69c6.66699 8 13.667 12 21 12c16.667 0 25 -12.667 25 -38v-163zM228 607c0 -28 -4.66699 -54.667 -14 -80
c-12 -34 -29.333 -51 -52 -51c-22 0 -39.333 17 -52 51c-8.66699 25.333 -13 52 -13 80s4.33301 54.667 13 80c12.667 34.667 30 52 52 52c22.667 0 40 -17.333 52 -52c9.33301 -25.333 14 -52 14 -80zM836 -3c-6.66699 -1.33301 -13.167 -5.5 -19.5 -12.5
s-9.5 -13.833 -9.5 -20.5v-130h-30v163c0 6.66699 -2 11.667 -6 15l18 22c10.667 -4 16.667 -13.333 18 -28c14 18.667 23.667 28 29 28v-37zM764 -24c0 -35.333 -14.333 -56.667 -43 -64c0 -10.667 2 -20.667 6 -30c5.33301 -12 13 -18 23 -18c2.66699 0 7 1.33301 13 4
v-33c-4.66699 -2 -10 -3 -16 -3c-38 0 -57 33.333 -57 100v23c0 52.667 12.333 79 37 79s37 -19.333 37 -58zM478 174.999c0 -12.667 -6.33301 -19 -19 -19s-19 6.33301 -19 19s6.33301 19 19 19s19 -6.33301 19 -19zM434 356.999l-24 -201h-24l-11 127l-12 -127h-24
l-23 201h29l7 -136l9 136h27l10 -135l6 135h30zM675 -166.001h-30v163c0 5.33301 -2.66699 8 -8 8c-2.66699 0 -5 -1.66699 -7 -5v-166h-30v163c0 8 -2 13.333 -6 16l19 21c6 -0.666992 11 -5 15 -13c7.33301 8.66699 15 13 23 13c16 0 24 -11.667 24 -35v-165z
M584 -166.001h-30v161c0 6.66699 -2.33301 10 -7 10c-3.33301 -1.33301 -6.33301 -3.33301 -9 -6v-165h-29v258h29v-69c6.66699 8 13.667 12 21 12c16.667 0 25 -12.667 25 -38v-163zM309 356.999l-24 -201h-24l-11 127l-12 -127h-24l-23 201h30l6 -136l9 136h27l10 -135
l6 135h30zM496 -67.001c0 -67.333 -12 -101 -36 -101c-26 0 -39 33.667 -39 101s12.333 101 37 101c25.333 0 38 -33.667 38 -101zM184 356.999l-23 -201h-24l-12 127l-12 -127h-23l-24 201h30l6 -136l9 136h27l10 -135l6 135h30zM414 -166.001h-55v258h34v-224h21v-34z
M340 -166.001h-34v109h-18v-109h-35v258h35v-116h18v116h34v-258zM1592 623.999c0 12.667 -2 22 -6 28c-5.33301 -9.33301 -8 -20.333 -8 -33v-25c9.33301 3.33301 14 13.333 14 30zM1324 580.999c0 41.333 -2.33301 63.666 -7 66.999
c-5.33301 -3.33301 -8 -24.666 -8 -63.999c0 -42 2.66699 -65 8 -69c4.66699 5.33301 7 27.333 7 66zM1546 255.999c0 42 -2.33301 64.666 -7 67.999c-4.66699 -3.33301 -7 -24.666 -7 -63.999c0 -42 2.33301 -65.333 7 -70c4.66699 5.33301 7 27.333 7 66zM1131 511.998
v134c-10 -2.66699 -15 -17.667 -15 -45v-42c0 -33.333 3.33301 -50 10 -50c2 0 3.66699 1 5 3zM993 580.998c0 41.333 -2.33301 63.666 -7 66.999c-4.66699 -3.33301 -7 -24.666 -7 -63.999c0 -42 2.33301 -65 7 -69c4.66699 5.33301 7 27.333 7 66zM835 510.998v134.001
c-10 -2.66699 -15 -19.334 -15 -50.001v-36c0 -32.667 3.33301 -49 10 -49zM1134 255.999c0 42 -2.33301 64.666 -7 67.999c-4.66699 -3.33301 -7 -24.666 -7 -63.999c0 -42 2.33301 -65.333 7 -70c4.66699 5.33301 7 27.333 7 66zM1345 -68.002
c0 42 -2.33301 64.666 -7 67.999c-5.33301 -3.33301 -8 -24.666 -8 -63.999c0 -42 2.66699 -65.333 8 -70c4.66699 5.33301 7 27.333 7 66zM586 658.997c0 20.667 -3.33301 34.667 -10 42c-6.66699 -4.66699 -10 -16.667 -10 -36c0 -21.333 5 -37.333 15 -48
c3.33301 10 5 24 5 42zM921 187.997v134c-10 -2.66699 -15 -17.667 -15 -45v-42c0 -33.333 3.33301 -50 10 -50zM487 606.997c0 52.667 -3.33301 84.334 -10 95.001c-6.66699 -8.66699 -10 -37.334 -10 -86.001c0 -55.333 3.66699 -87.333 11 -96c6 10 9 39 9 87z
M783 255.997c0 42 -2.33301 64.666 -7 67.999c-4.66699 -3.33301 -7 -24.666 -7 -63.999c0 -42 2.33301 -65.333 7 -70c4.66699 5.33301 7 27.333 7 66zM1102 -68.0039c0 42 -2.33301 64.666 -7 67.999c-4.66699 -3.33301 -7 -24.666 -7 -63.999
c0 -42 2.33301 -65.333 7 -70c4.66699 5.33301 7 27.333 7 66zM383 606.995c0 52.667 -3.33301 84.334 -10 95.001c-6.66699 -8.66699 -10 -37.334 -10 -86.001c0 -55.333 3.33301 -87.333 10 -96c6.66699 10 10 39 10 87zM1015 -137.005v134c-10 -3.33301 -15 -20 -15 -50
v-37c0 -32.667 3.33301 -49 10 -49zM625 186.995v134c-10 -3.33301 -15 -20 -15 -50v-37c0 -32.667 3.33301 -49 10 -49zM912 -22.0049c0 10.667 -2.33398 17 -7.00098 19c-11.333 0 -17 -20 -17 -60c0 -14.667 3 -23.334 9 -26.001c4.66699 0 8.33398 9.66699 11.001 29
c2.66699 14.667 4 27.334 4 38.001zM214.999 606.995c0 22.667 -3.66699 44.334 -11 65.001c-10 27.333 -24 41 -42 41s-32 -13.667 -42 -41c-7.33301 -20.667 -11 -42.334 -11 -65.001c0 -22 3.66699 -43.333 11 -64c10 -28 24 -42 42 -42s32 14 42 42
c7.33301 20.667 11 42 11 64zM733.999 -25.0049c0 12.667 -2 22.001 -6 28.001c-5.33301 -8.66699 -8 -19.334 -8 -32.001v-26c9.33301 3.33301 14 13.333 14 30zM465.999 -68.0039c0 42 -2.33301 64.666 -7 67.999c-4.66699 -3.33301 -7 -24.666 -7 -63.999
c0 -42 2.33301 -65.333 7 -70c4.66699 5.33301 7 27.333 7 66zM191.999 577.995c-4.66699 -29.333 -14.333 -44 -29 -44c-22 0 -33 24 -33 72c0 49.333 11 74 33 74c14 0 23.667 -14 29 -42l-14 -6c-2.66699 16 -7.66699 24 -15 24c-12 0 -18 -16.333 -18 -49
s5.66699 -49 17 -49c8 0 13.333 10 16 30z" />
    <glyph glyph-name="equal" unicode="=" horiz-adv-x="585" 
d="M626 239l-169 -128h-444v90l95 71h-95v90l168 127h445v-89l-95 -72h95v-89zM614 409v62l-81 -62h81zM602 397h-84l-56 -43v-26h50zM614 248v62l-81 -62h81zM603 477h-414v-68h325zM496 316h-34v-26zM602 236h-84l-56 -42v-65zM498 397h-313l-43 -33h312zM602 316h-86
l-59 -44h-268v-24h325zM450 284v32h-261v-32h261zM450 328v24h-324l-89 -68h86l58 44h269zM498 236h-313l-44 -33h313zM177 406v65l-140 -107h85zM177 284v26l-34 -26h34zM450 123v68h-325l-88 -68h413zM106 352h-81v-62zM177 245v27h-50l-90 -69h84zM106 191h-81v-62z" />
    <glyph glyph-name="greater" unicode="&#x3e;" horiz-adv-x="1059" 
d="M993 311c0 -67.333 -13.002 -135.331 -39.002 -203.998l-6 -4l-1 -16l-47 -78c-9.33301 -5.33301 -19.666 -13.333 -30.999 -24c-15.333 -14.667 -24.666 -23.334 -27.999 -26.001c-0.666992 -0.666992 -29 -20.667 -85 -60l-5 1c-86 -44 -163 -66 -231 -66
c-9.33301 0 -31.5 4 -66.5 12s-54.833 11.333 -59.5 10l-26 15l-8 -1c-10 8.66699 -28.333 19.5 -55 32.5s-46.334 24.833 -59.001 35.5l-50 52c-9.33301 9.33301 -22 23.666 -38 42.999c-2.66699 3.33301 -13.667 26.333 -33 69l-8 6c-34 69.333 -51 126 -51 170
c0 0.666992 2 17.667 6 51c8.66699 80 27.667 144 57 192l98 136l111 56h2c6 -0.666992 13.333 2 22 8c6.66699 4.66699 13.334 9 20.001 13c9.33301 3.33301 23.333 8.66602 42 15.999l19 1l21 10h31h30c80 0 148.333 -13.333 205 -40
c19.333 -8.66699 53 -33.167 101 -73.5s76.333 -68.166 85 -83.499l30 -67c30.667 -64 46 -113.667 46 -149c0 -2.66699 -1 -7 -3 -13c2.66699 -11.333 4 -19.333 4 -24zM602.998 671.002l0.00195312 0.998047l-11 5l-2 8l5 3c-2 3.33301 -3.33301 7.33301 -4 12l2 2l-11 -2
l-8 4l-3 11l-14 -6l-10 8l-1 5l-14 -2l-1 4l-8 -5l-12 7l-1 5l-10 -2l-10 7l-1 3l-7 -7c-28 -0.666992 -59.333 -8 -94 -22l-89 -39l1 -2l28 5c25.333 -6.66699 55.333 -10 90 -10c12 0 37 -4.66699 75 -14l-37 -8c-8.66699 6 -16.667 9 -24 9
c-2.66699 0 -8 -1.33301 -16 -4c-4.66699 1.33301 -9.33398 2 -14.001 2c-4 0 -8 -0.666992 -12 -2c-22.667 6.66699 -55.667 12.334 -99 17.001l-2 -2l7 -3l27 -2l-18 -6l85 -22l14 1c-24 2.66699 -50 8.66699 -78 18l2 7c20 -5.33301 38 -8 54 -8
c5.33301 0 10.333 0.333008 15 1l14 -5h10c1.33301 0 22 -2 62 -6c-32.667 -6 -52.334 -8.66699 -59.001 -8l3 -1c14 0 34.667 1.33301 62 4c14 4.66699 34.667 9.33398 62 14.001l3 3l23 2l13 7v9zM664 470c-0.666992 0.666992 -1.66699 1 -3 1c-4 0 -11 -1.33301 -21 -4
c0.666992 0 8.66699 0.666992 24 2v1zM676 454l-7 3l-16 -3l1 -2l20 1zM630 454h-18l-3 -2l2 -2c4 0.666992 10.333 2 19 4zM756 327c-2.66699 -4.66699 -5.33301 -10.667 -8 -18l8 10v8zM564.001 493l-3 6l-2 -2zM690.001 323l-3 10v-19v0l2 9h1zM640.001 394l-5 3.99902
h-7c-2.66699 -1.33301 -6.66699 -5.66602 -12 -12.999l3 -11l5 -6l3 -1l4 2c-2 0 -4 0.333008 -6 1l-7 10l7 15zM752.001 258.999c-1.33301 -0.666992 -3.33301 -2 -6 -4h2zM765.001 291.999h-7v11h-1l-12 -10l-4 8l4 5h-4l-3 -6l-14 -10l1 13l3 3c0.666992 4 1 6.66699 1 8
v1l-5 -12v-10l-8 -6l-10 20l4 17l-1 16l-5 -21l-6 23l-3 -22l10 -4l1 -8l-5 -2l1 -7l-6 -4l-4 1c0 -4 -0.333008 -8.33301 -1 -13l6 -4l-8 -11l-4 2l-5 -5l9 -1l1 -15l3 -1l1 -10l-1 -4v-4h4l3 -8h7l9 10l10 5l3 10l6 6h4l-2 7l8 14l11 7v4zM683.001 309.999l-6 8l1 -6l4 -4
zM677.001 406.999l-17 14l-5 -2c-9.33301 8 -17.666 12 -24.999 12v3c-36 -4.66699 -65.333 -17.667 -88 -39l-5 -11l1 -2l6 1l32 23l-19 -26l5 -3l-3 -7l3 2l22 -12l-17 -3l-16 6c5.33301 -4.66699 13.666 -7.66699 24.999 -9c8.66699 -0.666992 17.334 -1.66699 26.001 -3
c19.333 -4 37.666 -10 54.999 -18l11 10l-2 13l4 1l-5 -1l-9 -8c-13.333 -2 -20.333 -3 -21 -3c-1.33301 0 -5 0.333008 -11 1c-16 8.66699 -25.333 18.667 -28 30l5 16l-3 9l26 20l15 1l19 -11l8 1l10 -6zM667.001 275.999l-7 15l6 -15h1zM654.001 317.999
l-6.00391 6.99902c-14 4 -61.333 13.333 -142 28c-34.667 6.66699 -53.334 10 -56.001 10c-12 0 -23.333 -3 -34 -9l-4 12l7 11l13 7l6 18l-4 30l10 -1l-9 10l7 13l12 -9l-5 10l8 6l12 -8v1l-10 10l11 7l12 -7l-12 15l20 3l7 -6l-1 3l-5 7l8 13h11l9 -12
c-1.33301 6 -5.66602 16.333 -12.999 31l32 -27l-7 8l11 -1l-14 26l18 -13l11 4l10 -12h1l-3 12h15c4 -6 8.33301 -10.333 13 -13l2 5l-12 15l14 1l13 -11l2 -1l-5 4l8 9l17 -11h2l-15 10l16 9l4 -2l3 3h8h-9l-5 11l8 9l-14 -2l-3 7l-15 -2l9 16l-21 -15l-16 -3l13 19
l-42 -28c5.33301 6.66699 11.333 17 18 31l-15 -19l-15 -1v6l-1 1l-27 -22l-2 12l-8 -9h-15l3 7l-11 4l4 18l15 -2l6 10l6 -5l6 1l6 6l7 -5l4 1l3 5c4.66699 0 11.334 -1 20.001 -3l3 1l4 5l8 -8l1 6l23 4l5 -3l1 4l11 -1l5 4l3 -4h1v3l6 12l-4 4h-7l-8 9l20 11l2 4l-8 4v2
l-8 -5l-14 -2l-1 10c-1.33301 -2.66699 -4.66602 -7.66699 -9.99902 -15h-8l-4 4l-8 -5l-36 -4l-3 3l-33 -4l-5 2h-1l-6 -3h-10c-7.33301 -4 -20.333 -6 -39 -6l-8 4c-5.33301 -2.66699 -13.333 -4 -24 -4l-14 6h-6c-4 0 -11.5 1.16699 -22.5 3.5s-19.5 3.5 -25.5 3.5
c-8 0 -19 2 -33 6s-25 6 -33 6c-2 0 -6 -0.333008 -12 -1c-5.33301 -0.666992 -9.66602 -0.666992 -12.999 0l1 -3l-5 -12l9 -5l-5 -8l5 -13h9l1 -2l5 -1l1 -16l11 -6l-2 -7l10 4l7 -10l-7 -8h-1l-9 -7v-5l13 2l11 -8l-16 -12l8 3l10 -8h13l-1 -14
c6.66699 -2.66699 16.667 -9.66699 30 -21l-5 -7v0l13 6l1 -11l5 -1l4 -8v-6l11 -9v-17l2 -2l3 -29l-2 -4l2 -12l-7 -4l6 -4l-12 -6h1v-6l43 -12l12 6l31 4c0.666992 0 22.667 -4 66 -12l-1 -8l-60 4c-2 0 -11 -0.333008 -27 -1l-5 -5c26.667 2.66699 47.667 4 63 4
c20 0 34 -2.33301 42 -7l-3 -4l6 -8l7 2l11 -25c4.66699 -2.66699 11.334 -4.66699 20.001 -6l24 -20l30 -10v1c-6.66699 8.66699 -16.667 17 -30 25l-33 19c-8.66699 6 -18.334 15 -29.001 27c56.667 -9.33301 96 -21.666 118 -36.999c-19.333 16 -40 25.333 -62 28v7h4
c22.667 0.666992 42.334 -4 59.001 -14zM529.997 362.998l-1 2.00098l-21 14l-4 -6l-2 -1c4.66699 -2.66699 12 -6.33398 22 -11.001l3 2h3zM672.997 221.999c-6.66699 1.33301 -14.668 3.66699 -24.001 7l19 12l2 5l-3 10l-1 1l-3 -4l1 -5l-17 -10h-5
c-4.66699 0 -12 -0.333008 -22 -1s-17.333 -1 -22 -1c-1.33301 0 -10.666 2.66699 -27.999 8l-10 -1c28.667 -7.33301 49 -10.333 61 -9l40 -22l7 4zM653.996 212c-16.667 3.33301 -33.335 7.00293 -50.002 11.0029c-14 3.33301 -30 9.66602 -48 18.999h-1l-1 1l-5 2l5 -1
c-1.33301 6 -2.66602 11 -3.99902 15l3 8l-14 10l-5 29c-7.33301 7.33301 -14.333 12.666 -21 15.999l-21 1l-16 -5l1 -4l11 2l12 -11l-12 -4l12 -5l18 -1l6 -20l12 -9l-9 -7h-1l4 -6l-22 3c-4 3.33301 -10.667 8 -20 14c-2.66699 6 -8.66699 11.333 -18 16
c-3.33301 12 -8 24 -14 36l-3 -1l3 -17l-19 18h-1v-1c12 -21.333 23 -39 33 -53l42 -22l-39 5c-6 4 -16 14 -30 30c11.333 -16 21 -26.667 29 -32c20.667 -2 41.334 -8.33301 62.001 -19l9 1c10 -5.33301 24 -9.33301 42 -12v1c28.667 -4.66699 52 -7.33398 70 -8.00098z
M614.995 199.003c-2 -2 -3.33301 -4.33301 -4 -7l2 2zM601.995 201.003l-2 -2l2 1v1zM591.995 205.003h-5v-4zM584.995 207.003l-1 4l-2 -3h-3l-3 -8zM337.995 452.003c-8 8.66699 -18.668 16.333 -32.001 23c6.66699 -5.33301 17.334 -13 32.001 -23zM253.994 531.002
l-12.001 -7v20l-3 5l-7 -4l1 -13l10 -11c4.66699 4 8.33398 7.33301 11.001 10zM254.993 512.002c-2 -0.666992 -4.33301 -1 -7 -1l-1 -7l4 2zM424.993 312.002l-1 22l-1 -1l-2 -14zM316.993 447.002l-2.00098 1c-4.66699 0.666992 -6.66699 1 -6 1
c-1.33301 0 -3.66602 -0.333008 -6.99902 -1l-4 -5l-1 -8l1 -5l5 -4l2 1l-3 2l-1 15zM640.992 138.002l-4 1.00098v7l-17 4l7 5v0l-5 3l2 5l-1 1l-9 3l4 3l-2 1l-15 -2c2 5.33301 3.33301 9.66602 4 12.999l-12 -7l-4 10l5 6h-2l1 -2l-15 -1l-4 8v-1l-18 9l-10 1l-5 6l-32 8
l-3 -1l2 -7l16 -22l1 -11l8 -2l3 -10l-8 -5h-6l5 -3l14 1l7 -5l-12 -12c-5.33301 1.33301 -8.33301 2 -9 2l-6 -1l2 -2l1 -3l9 -4l-7 -13l11 5l-1 -12l4 6l11 -1l-3 -14l10 13l1 -22l3 2l5 19l12 -9l1 -5l1 2l-1 11l13 -11l3 -10v18l17 -18l-1 11
c6.66699 -2 12.667 -3 18 -3l-15 11c6.66699 3.33301 13.667 5 21 5l-3 4l8 4l-1 2l-7 5zM406.992 334.003c-6.66699 5.33301 -18.332 8 -34.999 8c-0.666992 0 -3.33398 -0.666992 -8.00098 -2c10 0 24 -2.66699 42 -8zM364.994 401.003l-1 1l-18 -4l-24 5l22 13l-3 2
l-11 -9l-19 -6l-22 9c-5.33301 14 -8 22 -8 24c0 11.333 2 20.333 6 27l-1 6v0l-4 -5h-13l-6 -17l6 -21l17 -18l-46 9c12 -5.33301 25.333 -8.66602 40 -9.99902l28 -23l-68 20c-27.333 7.33301 -50.333 11.333 -69 12c62 -7.33301 113.333 -22.333 154 -45l-10 -19
c-5.33301 -2.66699 -13 -7.33398 -23 -14.001c4 -0.666992 7 -2 9 -4l15 2l22 19l-3 -21l6 -1l12 17l-1 15h4l-65 35l23 2c18 -6.66699 33.667 -12 47 -16l1 1l-6 5zM468.994 194.003v7v6l-10 18l-7 3c-0.666992 -0.666992 -1 -1.66699 -1 -3c0 -25.333 4 -42 12 -50l3 2
c2 9.33301 3 15 3 17zM299.994 313.003c0 6 -11.332 16.667 -33.999 32c-0.666992 12 -3.33398 22.333 -8.00098 31l-3 -1l-1 -17l9 -30l9 -4l6 6zM340.995 299.003l-5.00098 -3h-16c-34 0 -62.333 7.66699 -85 23c-13.333 10 -28 25.667 -44 47
c-13.333 18 -23.666 28.333 -30.999 31l-4 7h-3l1 -18l27 -45h6l3 -7h6l3 -5h6c13.333 -15.333 27.333 -23.333 42 -24l1 7c14.667 -12 37.667 -18 69 -18c2 0 9.33301 0.666992 22 2zM166.994 432.003l-5 2l-9 -3l13 1h1zM161.994 441.003c-6 0.666992 -9.66699 1 -11 1h-3
c-0.666992 0 -3 -0.333008 -7 -1l-2 -2c7.33301 0 15 0.666992 23 2zM310.994 279.003l-3 2l2 -2h1zM530.994 58.0029l-4 -15v-3l2 1c1.33301 6.66699 2 10.667 2 12v5zM420.994 185.003c-2.66699 6 -4.66504 14.6699 -5.99805 26.0029
c-0.666992 14.667 -1.33398 23.667 -2.00098 27c1.33301 5.33301 2.66602 11.333 3.99902 18c0 30 -10.667 51.333 -32 64l-6 -1l-2 4l-12 -9l-7 -27l-4 -6l-3 -1l3 -15l-11 -10l-1 7l-11 -2l-19 7h-14h-2l-10 -2c-2 -3.33301 -5.33301 -8 -10 -14l2 2l4 -10l-1 -2l10 1
l-14 -38c4.66699 7.33301 13.667 18.666 27 33.999v-16c-13.333 -18 -20 -33 -20 -45c0 -2 0.333008 -5.33301 1 -10c0 18 8.66699 37 26 57l2 -24l-7 -7c4 -18.667 6.33301 -28.334 7 -29.001c2.66699 -8.66699 8 -16.334 16 -23.001l1 -4l2 -2l1 -5l5 3
c6.66699 -1.33301 15.667 -2 27 -2c18.667 0 27.667 0 27 0c8.66699 10 16 21.333 22 34l-1 6zM517.996 74.0059l0.000976562 0.999023c-4.66699 -10 -9.33398 -22 -14.001 -36l2 -1l2 -10c4.66699 8.66699 6 19.334 4 32.001zM490.997 60.0049l-4.00098 3.99805v6h-5l-1 -6
l-12 -3c0 12.667 -1.66699 23.334 -5 32.001c-1.33301 -8 -2.66602 -20 -3.99902 -36l5 -2c-2 -15.333 -3 -22.666 -3 -21.999v-2l4 2c1.33301 4 4.33301 9 9 15h13l-3 -11v-1c0 6 2 14 6 24zM603.996 -91.9971c-2 6 -4 11.333 -6 16v-3c0 -1.33301 0.666992 -4.33301 2 -9z
M447.996 59.0029c0 2.66699 -1 7.66699 -3 15l-2 -4l-7 6v4l-4 -16l-12 24c0 -10 -1 -22.667 -3 -38v-12l2 -1l5 2l3 24l9 -11l3 -17h1l7 12c0.666992 7.33301 1 11.333 1 12zM572.996 -97.9971c0 1.33301 -0.333008 3 -1 5l1 -5v0v0zM488.996 -11.9971l-2 2l1 -4l1 -1v3z
M275.996 198.003v1v0v-1zM460.996 7.00293v1l-2 2l1 -3h1zM551.996 -99.9971l-2 8l1 -9zM536.996 -80.9971v4v4l-3 -6l1 -12c1.33301 4.66699 2 8 2 10zM407.996 67.0029l-2.00098 5l-2 1l-4 8c-3.33301 -2 -7.66602 -5.66699 -12.999 -11l-3 3
c-4 -5.33301 -6.66699 -11 -8 -17l6 1l2 -8c3.33301 6.66699 5 14.334 5 23.001l1 1l10 -15c-2 -6.66699 -3.33301 -12.334 -4 -17.001l1 -4c5.33301 6 9 16 11 30zM347.995 109.003l-4 1.00098h-3c-2 -2.66699 -3.66699 -5.33398 -5 -8.00098h1c3.33301 0.666992 7 2 11 4
v3zM494.995 -49.9961l-2 7l1 -15h1v-2v10zM322.995 121.004l-4 -3h4v3zM324.995 111.004l-1 -2zM367.995 81.0039v3v2l-4 8h-4l-4 -5l-5 4l-3 -3l-3 -7l-5 -3l-3 -16v-1c0.666992 3.33301 2 8.33301 4 15c1.33301 -3.33301 4 -8 8 -14l2 2l1 2l-7 8l7 3l1 6l10 -5z
M311.995 111.004c-2 -1.33301 -3.33301 -3 -4 -5l4 5v0zM333.995 90.0039h-1c-1.33301 -3.33301 -4 -8.33301 -8 -15l9 9v6zM396.995 16.0039h-1l-3 -2zM379.995 27.0039l-1 1h-2l1 -1h2zM455.995 -15.9961l-8 -2l-5 7v17l-1 3l-7 -12l-1 -12l3 1v-16l-12 -5l1 14l-6 -13
l-20 -15l-4 -9l4 2l6 7h11l1 2l11 10h8l2 6l5 2l5 -2l6 4c0 3.33301 0.333008 7 1 11zM315.995 84.0039v1c-1.33301 -3.33301 -2 -6 -2 -8zM425.995 10.0039l-1 6l-2 2l-13 1l-1 -1l15 -1v-6l-9 -22l-9 -10l-9 10l9 11v1l-10 -6l-6 14l2 4
c-1.33301 -0.666992 -3 -1.33398 -5 -2.00098l-3 -13l-15 -3l8 16h-2l-7 -15v-8c0 -1.33301 -0.333008 -3.66602 -1 -6.99902c4.66699 5.33301 8 10.333 10 15l13 -2l-8 -11v-1l9 6v-15l-1 -1l6 3l4 -4h3c4 2.66699 8.83301 8.66699 14.5 18s8.5 16.333 8.5 21z
M377.995 12.0039v0v0zM298.995 80.0039v4l-2 -3l1 -5zM496.995 -82.9961l-0.999023 1h-3l-8 2l-1 18l3 1h-2l-1 -1v-1l-3 -5l-8 -2l-15 6l-1 12l4 3v2l-7 5h-1l-1 -10l-10 2v2l-2 -1l-1 -3l-14 -9h-9v-3l-12 -3l-3 5v-6c0 -4.66699 -0.333008 -8.66699 -1 -12l1 -3
c0.666992 2 0.666992 4.66699 0 8l13 2c0.666992 -8.66699 0.666992 -15.667 0 -21l3 4l3 -5l2 2c0.666992 9.33301 3 16.333 7 21l7 2l-1 5l11 10l4 -12l5 4l3 -24c4 -2 6 -4.33301 6 -7l-2 -5l1 -6c1.33301 3.33301 2.66602 6.33301 3.99902 9l-2 8l4 15l12 1v-7
c0.666992 -2.66699 1 -4.66699 1 -6c0 -2 -0.5 -4.5 -1.5 -7.5s-1.5 -5.5 -1.5 -7.5v-3l2 7l1 -1v3l6 11h9zM288.996 89.0039h-1v4l-5 -8v0zM363.996 12.0039l-1 3h-1l-2 -6l-2 -1l3 -3l2 3zM445.996 -72.9961l-6.99902 -3.00195l-1 -19
c-0.666992 -1.33301 0.666016 -5.66602 3.99902 -12.999c1.33301 4.66699 2 8.33398 2 11.001l-4 18zM351.997 7.00195l-4 -1l-6 -5h4zM378.997 -36.998l-1 2h-3l-2 -4l-8 -2l-8 -13l12 7h3l2 8zM379.997 -74.998l-2 12l-1 -2c1.33301 -4 2 -9 2 -15zM529.997 686.002
c-7.33301 -0.666992 -14.333 -1 -21 -1c-21.333 0 -42.333 5.33301 -63 16l37 2zM485.997 719.002c-29.333 -10.667 -70.668 -19.333 -124.001 -26c28 18 62.667 27 104 27c6.66699 0 13.334 -0.333008 20.001 -1zM455.995 677.003l-8.99902 -8l-72 13
c13.333 0.666992 22.666 1 27.999 1h8c21.333 0 36.333 -2 45 -6zM488.996 584.003l-14.001 -16c-9.33301 0 -13.666 0 -12.999 0c-1.33301 0 -15 2 -41 6zM438.995 552.003l-27 -19l-5 7l-15 -1l-5 3l-13 -2l-40 17c37.333 -5.33301 72.333 -7 105 -5zM345.995 251.003
c-1.33301 -10 -7.33301 -21.334 -18 -34.001l-15 1c8 10.667 13.333 19.334 16 26.001l-4 -7l-10 9l11 15l6 -11z" />
    <glyph glyph-name="question" unicode="?" horiz-adv-x="429" 
d="M460 551c0 -26.667 -14.333 -59.3311 -43 -97.998c-21.333 -28.667 -35.666 -51.667 -42.999 -69c-9.33301 -22.667 -13.333 -49.667 -12 -81c2.66699 2 -19 -15 -65 -51h74v-125l-4 -3l-164 -125h-122v125l4 3l61 47h-55v26c0 33.333 7.33301 65.666 22 96.999
c5.33301 11.333 18.666 34.333 39.999 69c14.667 23.333 22 41.666 22 54.999c0 3.33301 -0.333008 7 -1 11l-74 -57l-2 1l-97 13v5c1.33301 58 16.666 98.333 45.999 121l163 125c30.667 23.333 65.334 35 104.001 35c48 0 85.667 -13.667 113 -41
c22 -22 33 -49.667 33 -83zM448 551.003c0 30.667 -9.66504 55.667 -28.998 75c-25.333 24.667 -60.333 37 -105 37c-78.667 0 -123.667 -38.333 -135 -115c13.333 -2 25.666 -5.33301 36.999 -10l60 46c9.33301 6.66699 19.666 10 30.999 10c29.333 0 44 -15.667 44 -47
c0 -15.333 -7 -34.666 -21 -57.999l-35 -55c0.666992 -8 1 -11 1 -9c0 -16.667 -4 -33.334 -12 -50.001l133 101c20.667 30 31 55 31 75zM339.002 547.003c0 24 -10.667 36.001 -32 36.001c-24.667 0 -37.667 -25.333 -39 -76v-4c12.667 -14.667 21 -31.334 25 -50.001
l29 46c11.333 19.333 17 35.333 17 48zM263.002 559.004l-34 -26c10 -4.66699 19.333 -10.667 28 -18c0 18 2 32.667 6 44zM233.002 517.004c-4.66699 2.66699 -9.66699 5.33301 -15 8l-6 -5zM185.002 606.003l-81 -62c14.667 4 30 6 46 6c6 0 11.667 -0.333008 17 -1
c3.33301 21.333 9.33301 40.333 18 57zM205.002 529.003c-8.66699 3.33301 -17.667 5.66699 -27 7c-0.666992 -2 -1 -5.66699 -1 -11l18 -3zM397.002 446.004l-130 -98v-23v-14h83c0 46.667 15.667 91.667 47 135zM247.002 503.004l-48 7l-54 -41
c14.667 -0.666992 26 -6.66699 34 -18zM169.002 444.004c-5.33301 8.66699 -14 13 -26 13c-23.333 0 -36 -21 -38 -63zM166.002 537.004c-5.33301 0.666992 -10.667 1 -16 1c-84.667 0 -130 -43.667 -136 -131l151 116c0 5.33301 0.333008 10 1 14zM182.001 512.004l-10 1
l-150 -115l71 -9c0 18 1 30.667 3 38c2.66699 14.667 8 25 16 31zM255.001 331.004l-2 -3c-14 -18.667 -24 -33.667 -30 -45l32 25v17v3v3zM283.001 436.004c-2 24 -10.333 44 -25 60l-74 -56c2 -6 3 -12.333 3 -19c0 -15.333 -14 -45.5 -42 -90.5s-42 -88.5 -42 -130.5v-8
l99 75c7.33301 18 24.333 45.333 51 82v0l3 5c3.33301 26.667 12.333 54 27 82zM338.001 299.004h-75l-51 -39c-5.33301 -14 -9.33301 -29 -12 -45l45 34l5 3h27zM348.001 240.004h-67l-25 -19v-51zM262.001 240.004h-6v-4zM360.001 136.004v98l-104 -79v-19h104z
M245.001 227.004v7l-46 -35l-1 -7zM186.001 190.004l-5 -5.00098h5c0 -1.33301 0 0.333984 0 5.00098zM195.001 247.003l-80 -62h46l26 20c1.33301 14 4 28 8 42zM245.001 133.003v13l-37 -28v-13zM348.001 124.003h-95l-45 -34v-73zM245.001 161.003v51l-47 -35l-6 -3h-27
l-61 -47h96zM196.001 96.0029v19h-103v-98zM196.001 11.0029v70l-92 -70h92z" />
    <glyph glyph-name="at" unicode="@" horiz-adv-x="816" 
d="M872 392c0 -80 -28 -144 -84 -192v0l-113 -86c22 10 42 21.667 60 35l5 3l51 -72l-5 -3l-159 -122v0l-5 -3c-81.333 -62.667 -171.666 -94 -270.999 -94c-113.333 0 -204 34 -272 102c-57.333 57.333 -86 130 -86 218c0 116 44.667 210 134 282h-1l164 125h1
c71.333 57.333 156.666 86 255.999 86c105.333 0 189 -31 251 -93c49.333 -49.333 74 -111.333 74 -186zM663 465l-24 -18c6 -6 11 -11.667 15 -17zM656 475h-46.999c7.33301 -6 14.666 -12.333 21.999 -19zM621.001 448c-9.33301 9.33301 -20.332 18.333 -32.999 27h-14
l-6 -26c-0.666992 -0.666992 -12.334 -9.66699 -35.001 -27c9.33301 -5.33301 18.333 -12 27 -20zM771.002 391c0 49.333 -16.001 89.666 -48.001 120.999c-42 42 -100.667 63 -176 63c-50 0 -96 -10 -138 -30c70 -4.66699 131 -24 183 -58h81h8l-18 -70
c30 -43.333 45 -93.333 45 -150c0 1.33301 0 -2 0 -10c18.667 15.333 33.834 35.833 45.501 61.5s17.5 49.834 17.5 72.501zM696.001 267c0 50 -12.333 95 -37 135c-22 -85.333 -33 -132 -33 -140c0 -18 8.66699 -27 26 -27c14.667 0 29 4.33301 43 13
c0.666992 8 1 14.333 1 19zM554.001 453l-5 5l-33 -26c0.666992 -0.666992 2.66699 -1.66699 6 -3zM650.001 415c-6 8.66699 -12.667 17 -20 25l-61 -47c29.333 -30 45.666 -66.667 48.999 -110c4.66699 22.667 15.334 66.667 32.001 132zM860.001 392
c0 71.333 -23.665 130.668 -70.998 178.001c-59.333 59.333 -140 89 -242 89c-58.667 0 -114.334 -11.333 -167.001 -34c-54.667 -24 -100 -58 -136 -102c45.333 15.333 91.666 23 138.999 23h2c48 27.333 102 41 162 41c78.667 0 140 -22 184 -66
c34 -34.667 51 -78 51 -130c0 -27.333 -7 -55.333 -21 -84s-32 -50.667 -54 -66c-2.66699 -26 -9 -51 -19 -75c50.667 10.667 92 36.667 124 78s48 90.666 48 147.999zM539.003 465.002c-10.667 6 -22.333 9 -35 9c-22 0 -42 -6 -60 -18c21.333 -4 41.333 -10 60 -18z
M551.004 394.002c-1.33301 0.666992 -2.66699 2 -4 4c0 -1.33301 0.666992 -3 2 -5zM570.003 487.002c-52.667 30 -113.333 45.668 -182 47.001l-24 -16l1 -1l-17 -12c-16 -12.667 -31.333 -30.334 -46 -53.001c26.667 6.66699 53.667 10 81 10c12.667 0 27 -1 43 -3l5 4
l1 -1c21.333 16 45.333 24 72 24c16.667 0 31.667 -4.66699 45 -14zM537.004 389.003c-2.66699 10 -8 15 -16 15c-16 0 -28.333 -14.333 -37 -43h24l28 22zM512.004 421.003c-1.33301 0.666992 -3.66699 1.66699 -7 3l-82 -63h11zM694.003 234.003
c-14 -7.33301 -27.999 -11 -41.999 -11c-18 0 -29.667 7.33301 -35 22c-3.33301 -25.333 -12 -50.333 -26 -75c14.667 -6 32 -9 52 -9c9.33301 0 20 1 32 3c9.33301 22 15.666 45.333 18.999 70zM477.004 379.003l-23 -18h17c2 6.66699 4 12.667 6 18zM719.004 162.003
c-12 -4 -24.334 -7 -37.001 -9c-5.33301 -12 -11.666 -23.333 -18.999 -34zM493.003 429.003c-20 8 -40.668 13.667 -62.001 17c-24 -20.667 -43.333 -51.667 -58 -93c8.66699 -3.33301 16.334 -8 23.001 -14l5 22h3zM607.002 266.003c0 48.667 -15.667 88.666 -47 119.999
l-13 -10l-34 -139c-1.33301 -7.33301 -6.33301 -14.666 -15 -21.999l-23 -19c-4 -15.333 -7 -28 -9 -38c20 0.666992 38.333 3.66699 55 9l30 23l5 7l5 -6c4 -4 10.333 -9.33301 19 -16c18 30.667 27 61 27 91zM532.002 365.002l-17 -13.001l-33 -127
c12 2.66699 18.667 7.33398 20 14.001zM502.002 349.001l-21.999 0.000976562c-2.66699 -12.667 -7 -31.334 -13 -56.001c-6 -20.667 -9 -36.334 -9 -47.001c0 -13.333 4 -20.666 12 -21.999c3.33301 14.667 11.666 48 24.999 100zM418.003 349.002h-8l-1 -7z
M774.003 83.002l-36 52l-155 -118l11 -14c63.333 11.333 123.333 38 180 80zM233.003 526.002l-21 -15c2.66699 1.33301 7 3 13 5c0 0.666992 2.66699 4 8 10zM391.003 417.002l-79 -60c10 2 19.333 3 28 3c6.66699 0 14 -1 22 -3c8 22.667 17.667 42.667 29 60z
M365.003 533.002c-47.333 -2 -91.667 -11 -133 -27c-25.333 -34.667 -43 -73 -53 -115c10.667 9.33301 21 17 31 23l126 96c6 5.33301 15.667 13 29 23zM296.002 465.002l-31 -24c5.33301 2 12 4.33301 20 7zM412.002 448.002c-10 1.33301 -19.667 2.00098 -29 2.00098
c-31.333 0 -61.333 -4 -90 -12c-18 -32.667 -29 -68.334 -33 -107.001c1.33301 0.666992 4 2.66699 8 6l-1 1zM390.002 327.003c-6 6.66699 -12.667 11.667 -20 15c-4.66699 -14 -8 -26.667 -10 -38zM468.002 349.003l-29 0.000976562l-78 -59c12.667 -2 21 -10 25 -24v-2
v-1l-13 -52c10.667 -20 26 -34.333 46 -43l46 35l2 10c-14 2.66699 -21 13.667 -21 33c0 10.667 2.33301 24 7 40l10 41c2 9.33301 3.66699 16.666 5 21.999zM669.002 151.004c-9.33301 -1.33301 -18.001 -2 -26.001 -2c-22 0 -41.333 3.66699 -58 11
c-27.333 -41.333 -59.666 -62 -96.999 -62c-11.333 0 -20 3 -26 9l-27 -20c26.667 -6.66699 54.334 -10 83.001 -10c36 0 72 5.66699 108 17c17.333 16.667 31.666 35.667 42.999 57zM574.001 165.004c-5.33301 3.33301 -10.668 7.33301 -16.001 12l-86 -63
c4 -3.33301 9.33301 -5 16 -5c32.667 0 61.334 18.667 86.001 56zM695.999 23.0039c-30.667 -14 -62.333 -24.333 -95 -31l19 -27zM374 264.004c-2.66699 8.66699 -8.00098 13.333 -16.001 14c0.666992 -16.667 3.33398 -32.667 8.00098 -48zM459.999 185.003l-28 -22.001
c6.66699 -2 14 -3.33301 22 -4c2 6.66699 4 15.334 6 26.001zM497.999 149.002c-11.333 -1.33301 -22.667 -2.33301 -34 -3v0c-0.666992 -4.66699 -1 -7.66699 -1 -9c0 -4.66699 0.666992 -9 2 -13zM357.998 346.002c-6 1.33301 -11.999 2 -17.999 2
c-30.667 0 -57.334 -11.333 -80.001 -34c-0.666992 -9.33301 -1 -12.666 -1 -9.99902c0 -48.667 11.667 -90.334 35 -125.001c2 6.66699 3.66699 14 5 22c6 27.333 9.33301 42.333 10 45c4.66699 16.667 12 28.667 22 36l16 12c1.33301 14.667 5 32 11 52z
M580.999 0.00195312l-7 10l-21 -13c8 0.666992 17.333 1.66699 28 3zM603.999 76.002c-28.667 -7.33301 -57.334 -11 -86.001 -11c-33.333 0 -65 4 -95 12l-21 -16c17.333 -16.667 43 -25 77 -25c46.667 0 88.334 13.333 125.001 40zM668.999 98.002
c-10 -4.66699 -20 -8.66699 -30 -12v0l-15 -10c-40.667 -34.667 -89 -52 -145 -52c-36.667 0 -65 9.33301 -85 28c-8.66699 -6.66699 -23 -14.667 -43 -24c50 -22 104.667 -33 164 -33c-4.66699 0 -1 0.333008 11 1c20 10 35.333 19 46 27zM407.999 160.002
c-16 8 -29 19.667 -39 35l-17 -73l3 -3zM276.999 432.002c-28.667 -9.33301 -49.667 -19.334 -63 -30.001l-13 -10v0c-10 -6.66699 -19 -14 -27 -22c-4 -22 -6 -44.333 -6 -67c0 -38 6.33301 -74.333 19 -109c12.667 54 33 95.667 61 125c2 40.667 11.667 78.334 29 113.001
zM360.999 210.001c-9.33301 19.333 -14.332 41.3311 -14.999 65.998c-10.667 -4.66699 -19.334 -18 -26.001 -40c-4 -17.333 -8.33301 -34.666 -13 -51.999c0 -2 -1.33301 -8 -4 -18c10.667 -13.333 23.667 -25.666 39 -36.999zM455 115.999
c-2.66699 6 -3.99902 13 -3.99902 21c0 2 0.333008 5.33301 1 10c-12.667 1.33301 -23.334 3.66602 -32.001 6.99902l-53 -41c16.667 -9.33301 34.667 -16.666 54 -21.999zM611.001 -42.001l-23 31.001c-17.333 -2.66699 -37 -4.33398 -59 -5.00098
c-56 -29.333 -114.333 -44 -175 -44c-88.667 0 -158 25 -208 75c-41.333 41.333 -62 96 -62 164c0 78.667 26.667 144.667 80 198c8 42.667 24 82.667 48 120c-42 -19.333 -78 -43.666 -108 -72.999c-66.667 -66.667 -100 -148.667 -100 -246
c0 -84.667 27.667 -154.334 83 -209.001c66 -66 154 -99 264 -99c93.333 0 180 29.333 260 88zM409.001 82c-19.333 6 -37.002 13.668 -53.002 23.001v0l-16 -8c-9.33301 -6.66699 -19.666 -10 -30.999 -10c-17.333 0 -26 11 -26 33c0 11.333 2.33301 26 7 44
c-28 37.333 -42 82.666 -42 135.999c-29.333 -36 -46.666 -78 -51.999 -126c27.333 -60.667 73 -106.667 137 -138c16.667 2.66699 34.667 11.667 54 27c2 2.66699 9.33301 9 22 19zM501.999 -15.999c-64 2 -121.332 14.999 -171.999 38.999c-10 -1.33301 -20 -2 -30 -2
c-33.333 0 -60.333 10.333 -81 31c-24 24.667 -36 59 -36 103v17c-18 40.667 -27 84.334 -27 131.001c0 16 1.33301 33.667 4 53c-43.333 -48.667 -65 -107.667 -65 -177c0 -64.667 20 -116.667 60 -156c47.333 -47.333 113.666 -71 198.999 -71c50 0 99.333 10.667 148 32z
M339 116c-15.333 11.333 -28.668 23.333 -40.001 36c-3.33301 -12 -5 -22.667 -5 -32c0 -14.667 5 -22 15 -22c16.667 0 26.334 5.33301 29.001 16zM312.998 33c-52 29.333 -91.333 68.333 -118 117c0.666992 -38.667 11.667 -68.667 33 -90c18 -18 42 -27 72 -27h13z" />
    <glyph glyph-name="A" unicode="A" horiz-adv-x="521" 
d="M529 126l-170 -129h-120l-14 87l-115 -87h-106l102 536l169 130h161zM413 651h-133l-21 -113h6zM267 643l-138 -105h118zM515 134l-89 513l-153 -117l4 -20l69 51l35 -235l-64 -49l6 -33h72l18 -110h102zM266 502l-4 24h-6l-7 -37zM368 334l-27 179l-28 -179h55zM333 539
l-54 -42l25 -145zM358 322h-49l6 -32zM296 328l-28 161l-22 -17l-39 -204l2 -7zM232 461l-48 -37l18 -120zM373 232h-48l5 -32zM401 131l-15 96l-53 -41l16 -95zM304 282l-6 33l-87 -67l5 -34zM320 192l-7 40h-17l-11 -67zM505 122h-95l-58 -44l11 -65zM195 268l-18 120
l-26 -171l41 31zM311 244l-5 24l-93 -71h-19l-6 -30l101 77h22zM204 209l-3 24l-5 -24h8zM282 224l-97 -74l-3 -16h62l27 20zM244 526h-128l-96 -509l97 74l5 26l52 39l8 41h-47l37 233h-1l2 1l62 48zM268 137l-4 -3h4v3zM188 231l-28 -22h24zM339 83l-17 95l-40 -30l-4 -24
l-42 -32l12 -79zM255 122h-7l-15 -12l1 -5zM351 9l-10 60l-80 -60h90zM229 122h-52l-5 -3h52zM171 139l-27 -20h9l16 12zM137 107h-5l-1 -5zM223 97l-2 10h-64l-29 -22l-11 -69zM115 74l-86 -65h75z" />
    <glyph glyph-name="B" unicode="B" horiz-adv-x="499" 
d="M517 281c0 -52.667 -16.333 -93.333 -49 -122l-157 -119c-29.333 -28.667 -72.333 -43 -129 -43h-171v537l4 4l166 125h170c105.333 0 158 -44.667 158 -134c0 -58 -27 -97.667 -81 -119c59.333 -22 89 -65 89 -129zM497 529.001c0 81.333 -48.667 121.999 -146 121.999
h-164v-113c19.333 0 37.333 -1.66699 54 -5l51 38l5 3l25 1c22.667 1.33301 39.667 -3.66699 51 -15s17 -27.666 17 -48.999s-5.33301 -37.333 -16 -48l-1 -1v-1l-32 -24c2.66699 -11.333 4 -22.333 4 -33c0 -11.333 -1.66699 -23 -5 -35l59 44v0
c0.666992 -0.666992 4 0 10 2c58.667 17.333 88 55.333 88 114zM378 511c0 34.667 -18.668 52.001 -56.001 52.001c-5.33301 0 -11.666 -0.333008 -18.999 -1v-58c14.667 -12 25.667 -27 33 -45c28 3.33301 42 20.666 42 51.999zM291.999 513.001v43l-36 -27
c13.333 -4 25.333 -9.33301 36 -16zM322.999 458.001c-5.33301 12 -12 22 -20 30v-31h16c-2 0 -0.666992 0.333008 4 1zM228.999 523.001c-14 2 -28 3 -42 3v-35zM291.999 454.001l0.000976562 44c-13.333 10 -29.333 17.333 -48 22l-57 -44v-30
c21.333 -6 33.666 -20.333 36.999 -43zM175 538.001v107l-141 -107h141zM505 281.001c0 64.667 -32 105.666 -96 122.999h-3v0l-52 -40c27.333 -8.66699 41 -32.667 41 -72c0 -30 -7.33301 -50.333 -22 -61l-29 -23c6 -16 9 -33.333 9 -52c0 -6.66699 -0.333008 -14 -1 -22
c43.333 0.666992 76.333 9.66699 99 27l5 4c32.667 24.667 49 63.334 49 116.001zM328 442c0 0.666992 -0.333008 2 -1 4c-6 0 -8.66699 0 -8 0h-19l-74 -57v-3c0 -8.66699 -1 -16.667 -3 -24zM324 357h-1c-2 0 -8.66699 -0.333008 -20 -1v-15zM310 332l-7 -5v-3
c2 2 4.33301 4.66699 7 8zM383 292c0 36.667 -14.001 57.668 -42.001 63.001l-7 -6c-7.33301 -16 -17.666 -29.667 -30.999 -41v-44c14 -10 24.667 -22 32 -36c10 1.33301 18.333 3.66602 25 6.99902l6 5c11.333 8.66699 17 26 17 52zM174.999 448.001v19l-23 -18h3h3
c6 0 11.667 -0.333008 17 -1zM332.999 404.001c0 8.66699 -0.666992 17 -2 25l-123 -93c-5.33301 -5.33301 -12.333 -9.33301 -21 -12v-39l110 83c11.333 0.666992 20 1 26 1c-2 0 -0.333008 -0.333008 5 -1c3.33301 12 5 24 5 36zM212.999 395.001
c-1.33301 20.667 -10 33.667 -26 39v-60zM291.999 313.001v4.99902l-29 -22c10 4.66699 19.667 10.334 29 17.001zM291.999 272v27c-8 -6 -17.333 -11 -28 -15c10.667 -4 20 -8 28 -12zM213.999 380l-27 -21v-22c16.667 6 25.667 20.333 27 43zM321.999 228
c-6 8.66699 -12.333 15.667 -19 21v-21h19zM174.999 365v71c-5.33301 0.666992 -11 1 -17 1h-18v-99zM174.999 334l-0.000976562 16l-24 -18h4c6.66699 0 13.334 0.666992 20.001 2zM409.998 130c-18 -4.66699 -38 -7.33301 -60 -8c-2.66699 -18 -7.66699 -34.333 -15 -49z
M340.998 156.001c0 16.667 -2 31.667 -6 45l-88 -67h93c0.666992 6.66699 1 14 1 22zM174.998 242.001v19l-23 -18h7c4.66699 0 10 -0.333008 16 -1zM174.998 276.001l0.000976562 46c-6.66699 -1.33301 -13.334 -2 -20.001 -2h-27v125l4 4l43 33v44h-152v-511l105 80v144
l4 4zM174.999 131.001l-0.000976562 99c-5.33301 0.666992 -10.666 1 -15.999 1h-19v-127zM208.998 122.001h-25.999l-26 -20h3c17.333 0 30.666 3.66699 39.999 11v0l5 4c0.666992 1.33301 2 3 4 5zM337.999 122.001h-107l-18 -14l-1 -1
c-11.333 -11.333 -28.666 -17 -51.999 -17l-18 1l-108 -82h148c49.333 0 87.666 11.333 114.999 34v1l5 4c19.333 18 31.333 42.667 36 74zM230.999 178.001l60.999 47v33c-12 8 -27.667 14.667 -47 20l-18 6l65 48v18l-105 -80v-30c26.667 -7.33301 41.334 -28 44.001 -62z
M186.998 144.001l32.001 25c-0.666992 32 -11.334 51.333 -32.001 58v-83zM217.999 153.001l-25 -19h21c2 6 3.33301 12.333 4 19zM299.999 216.001l-69 -52.998c-0.666992 -10.667 -2 -20.334 -4 -29.001v0l103 78c0 1.33301 -0.333008 2.66602 -1 3.99902
c-6 0 -7.66699 0 -5 0h-24z" />
    <glyph glyph-name="C" unicode="C" horiz-adv-x="490" 
d="M513 468l-4.00098 -1.99902l-166 -126h-38c0 -30.667 2.33301 -55.334 7 -74.001l90 67l109 -5v-6c0 -84.667 -22.333 -145 -67 -181l-164 -125c-24.667 -20 -57 -30 -97 -30c-119.333 0 -179 91.667 -179 275c0 128.667 30.667 216.667 92 264l164 125
c21.333 16 52 24 92 24c106.667 0 160.334 -67.333 161.001 -202v-4zM500.999 477.001c-2 123.333 -51.667 185 -149 185c-72 0 -121.667 -38 -149 -114c39.333 -2.66699 71 -16.667 95 -42c8 52 25.333 78 52 78s43 -35.667 49 -107h102zM387.999 474.001
c-1.33301 22 -5.33301 42.668 -12 62.001c-7.33301 24 -16 36 -26 36c-21.333 0 -35 -25.667 -41 -77c12 -16.667 21.667 -36.334 29 -59.001zM489.999 466.002l-94.001 -1l-55 -42c4.66699 -19.333 7.33398 -41 8.00098 -65zM326.998 428.002
c-4.66699 17.333 -11.333 33.001 -20 47.001c-2 -18.667 -2.66699 -40.334 -2 -65.001zM213.999 599.003l-74 -57c15.333 4.66699 31.333 7 48 7c0.666992 0 1.66699 -0.333008 3 -1c6 19.333 13.667 36.333 23 51zM487.999 317.003l-79.999 3.99902
c-0.666992 -31.333 -4.33398 -55.666 -11.001 -72.999zM337 352.002c0 22.667 -2.33301 43.667 -7 63l-25 -19v-1v-43h32zM296 490.002c-22.667 28 -55 43.333 -97 46c-7.33301 -23.333 -12.333 -49.333 -15 -78c0.666992 0.666992 1.33398 1 2.00098 1
c25.333 0 41.666 -34 48.999 -102l58 44c-0.666992 36 0.333008 65.667 3 89zM293 387.002l-45 -35h45v20v15zM499 310.002l-115.001 -88.001c-4.66699 -5.33301 -9.66699 -9 -15 -11l-22 -17c-0.666992 -25.333 -3 -48.666 -7 -69.999h7c96.667 0 147.334 62 152.001 186z
M395.999 315.001l-80 -61c8 -23.333 19.667 -35 35 -35c4 0 8 1 12 3l12 9c12 14 19 42 21 84zM301.999 258.001c-5.33301 20.667 -8.33301 48 -9 82h-69v6c-1.33301 21.333 -5 42.333 -11 63c-7.33301 25.333 -16.333 38 -27 38c-0.666992 0 -1.66699 -0.333008 -3 -1
c-2 -20.667 -3 -40.667 -3 -60c0 -95.333 17 -165 51 -209c0 6 0.333008 14.333 1 25v1l4 5zM344.999 208.001c-17.333 2 -30.333 14.667 -39 38l-51 -39l84 -4zM229.999 161.001c-41.333 45.333 -62 120.333 -62 225c0 17.333 0.666992 35.333 2 54
c-20 -17.333 -29.667 -74 -29 -170v-24c-0.666992 -101.333 15 -152 47 -152c22.667 0 36.667 22.333 42 67zM334.999 191.001l-91 5c0 -11.333 -0.666992 -22 -2 -32l1 -1c22 -22 50.333 -34.667 85 -38c4 20.667 6.33301 42.667 7 66zM396.999 119.001
c-16 -4.66699 -32.667 -7 -50 -7h-10c-6 -22 -14 -41 -24 -57zM324.999 113.001c-33.333 4 -61.666 16.333 -84.999 37c-7.33301 -45.333 -24.666 -68 -51.999 -68c-12 0 -22 4 -30 12c-20 20.667 -29.667 71.334 -29 152.001v12v12c-1.33301 110 12.667 171.667 42 185
c3.33301 30.667 8.66602 58 15.999 82c-42.667 -0.666992 -77.334 -14.334 -104.001 -41.001c-44.667 -44.667 -67 -123 -67 -235c0 -175.333 55.667 -263 167 -263c74 0 121.333 38.333 142 115z" />
    <glyph glyph-name="D" unicode="D" horiz-adv-x="494" 
d="M522 392c0 -68 -7.66699 -120.333 -23 -157c-13.333 -32 -38 -63 -74 -93l-136 -102c-38 -28.667 -82 -43 -132 -43h-142v538l170 128h136c76.667 0 131 -27.333 163 -82c25.333 -43.333 38 -106.333 38 -189zM298 486v67l-45 -34c18.667 -9.33301 33.667 -20.333 45 -33
zM310 559v-88.001c34.667 -46.667 50.667 -123 48 -229c17.333 18.667 26 58.334 26 119.001c0 67.333 -1.33301 108 -4 122c-8.66699 50.667 -32 76 -70 76zM510 391.999c0 80 -11.667 140.001 -35 180.001c-30 52.667 -81.333 79 -154 79h-130v-115
c18 -2 34.333 -6 49 -12c19.333 14 39.333 29.667 60 47h4c46.667 0 75.667 -25.333 87 -76c3.33301 -16.667 5 -61.667 5 -135c0 -70.667 -12.667 -115 -38 -133l1 -1l-2 -2c-2 -33.333 -6.66699 -63 -14 -89c65.333 5.33301 111.333 34.666 138 87.999
c19.333 40 29 96.333 29 169zM229 516c-11.333 3.33301 -24 6 -38 8v-38zM179 537v108l-141 -107zM346 267c2 78 -10.001 139.001 -36.001 183.001v-224h6c10.667 -0.666992 20.334 1.66602 29.001 6.99902zM178.999 441.001v21l-22 -17c8.66699 0 16 -1.33301 22 -4z
M297.999 223.001l0.000976562 244.002c-14.667 19.333 -33.334 33.666 -56.001 42.999l-51 -39v-35c19.333 -12.667 32 -43.667 38 -93c2 -20.667 3 -56.334 3 -107.001c0 -27.333 -1.33301 -49.333 -4 -66zM191 421.003v-280l23 18c4 18 6 43.333 6 76
c0 110.667 -9.66699 172.667 -29 186zM344 214.003l-105 -80h92c6.66699 23.333 11 50 13 80zM388 131.003c-15.333 -4.66699 -31.334 -7.33301 -48.001 -8c-5.33301 -16 -11.666 -30.667 -18.999 -44zM324.999 215.004c-6 -1.33301 -12.333 -1.66699 -19 -1l-82 -62
c-1.33301 -6.66699 -3.33301 -12.667 -6 -18h1zM326.999 122.003h-103.001l-29 -22l-1 1c-11.333 -8.66699 -25.333 -13 -42 -13c-6.66699 0 -12.667 0.333008 -18 1v352l45 36v48l-22 1h-130v-517h130c86.667 0 143.334 37.667 170.001 113zM178.998 132.003v296
c-8 4 -17.667 6 -29 6h-4v-327zM206.998 139.003l-6 -5h4zM197.998 122.003h-12.999l-27 -21c17.333 0.666992 30.666 7.66699 39.999 21z" />
    <glyph glyph-name="E" unicode="E" horiz-adv-x="466" 
d="M472 125l-169 -128h-289v538l170 128h286v-103l-136 -104h88v-103l-113 -86v-39h163v-103zM458 569v76l-100 -76h100zM447 651h-257v-113h71l39 31h39zM447 557h-104l-34 -26v-75h5zM323 557h-14v-11zM297 538v13l-17 -13h17zM410 362v76l-99 -76h99zM294 451v75h-29
l-75 -57v-25h95zM245 526h-55v-42zM178 538v107l-140 -107h140zM399 444h-81l-17 -12h-12l-99 -76v-26h60zM399 350h-90v-68zM270 432h-80v-61zM178 444v16l-21 -16h21zM460 134v76l-99 -76h99zM297 273v71l-39 -30v-71zM178 362v70h-33v-95zM245 319h-55v-42zM178 330v17
l-21 -17h21zM449 216h-144l-107 -82h143zM246 236v69l-56 -43v-26h56zM449 122h-104l-36 -28v-79zM297 225v33l-43 -33h-64v-82zM178 236v17l-21 -17h21zM178 268v51h-44v121l44 35v51h-152v-511l108 82v136zM326 122h-140l-25 -19h140zM178 134v91h-33v-116zM297 9v82h-152
l-107 -82h259z" />
    <glyph glyph-name="F" unicode="F" horiz-adv-x="442" 
d="M454 569v76l-100 -76h100zM442 651h-262v-113h71l40 31h43zM319 557h-19v-14zM288 538v13l-17 -13h17zM400 362v76l-99 -76h99zM288 453v73h-33l-75 -57v-25h96zM236 526h-56v-42zM168 538v107l-140 -107h140zM389 350h-89v-68zM260 432h-80v-61zM168 444v16l-21 -16h21z
M288 273v71l-40 -30v-71zM168 362v70h-32v-95zM235 319h-55v-42zM168 330v17l-21 -17h21zM236 236v69l-56 -43v-26h56zM288 134v124l-43 -33h-65v-91h108zM168 236v17l-21 -17h21zM168 267v52h-44v121l44 35v51h-152v-511l108 82v135zM168 131v94h-32v-119zM276 122h-100
l-40 -31v-76zM124 9v73l-96 -73h96zM313 456l133 101h-108l-36 -28v-73h11zM318 444l-16 -12h-22l-100 -76v-26h60l149 114h-71zM465 557l-132 -101h79v-103l-112 -86v-142l-168 -128h-127v537l167 129h293v-106z" />
    <glyph glyph-name="G" unicode="G" horiz-adv-x="498" 
d="M517 393l-0.000976562 -5.99902c0 -63.333 -2 -107.333 -6 -132c-8.66699 -52.667 -27.667 -90.334 -57 -113.001v0l-163 -126l-1 1c-27.333 -20.667 -64.666 -31 -111.999 -31c-64.667 0 -111.334 29.667 -140.001 89c-21.333 44 -32 102 -32 174
c0 144 32.667 236.333 98 277h-1l164 126v-1c25.333 15.333 54.333 23 87 23c52 0 92.333 -16.5 121 -49.5s42.334 -75.833 41.001 -128.5v-32c-1.33301 -1.33301 -32.333 -25 -93 -71h94zM504.999 496.001c0.666992 49.333 -11.666 89 -36.999 119
c-27.333 31.333 -65.333 47 -114 47c-72 0 -121.333 -38 -148 -114c24.667 -2 47 -8.33301 67 -19l61 47h1c5.33301 2.66699 11 4 17 4c35.333 0 52.666 -35.667 51.999 -107h100zM391.999 492.001c0.666992 51.333 -12.667 76.999 -40 76.999c-20 0 -33.333 -24 -40 -72
c14.667 -17.333 25.667 -38.666 33 -63.999l47 37v22zM492.998 461h-93l-52 -40c2 -10 3.33301 -19.333 4 -28h51zM310.998 544l-27 -21c6 -4.66699 12 -9.66699 18 -15c2 14 5 26 9 36zM492.998 381h-85l-47 -35v-42h31zM333.998 426c-4.66699 20.667 -12.667 39 -24 55
c-2 -20 -3 -41.667 -3 -65v-12zM215.998 598l-72.001 -55.001c18 4.66699 34.333 6.33398 49 5.00098c6.66699 19.333 14.334 36 23.001 50zM387.997 380.999h-27v-20zM261.997 520.999c-17.333 8.66699 -37.333 13.667 -60 15c-6.66699 -21.333 -11.667 -45.333 -15 -72z
M339.997 382.999c0 10.667 -1 20.667 -3 30l-31 -24v-12v-20zM340.997 367.999l-27 -21h26zM298.997 493.999c-6 7.33301 -14.332 14.333 -24.999 21l-80 -60c31.333 -4 46.666 -37.667 45.999 -101l55 41c0 22 1.33301 55 4 99zM504.998 374.999l-92 -71v-6
c0 -30.667 -4.33301 -52.667 -13 -66c-5.33301 -8 -21.333 -22.333 -48 -43c-0.666992 -24.667 -2.66699 -46.334 -6 -65.001c70.667 0.666992 117 27.334 139 80.001c12 29.333 18.667 86.333 20 171zM293.998 379.999l-42 -33l42 1v32zM349.998 300.999v35h-43
c0.666992 -24.667 2.66699 -45.667 6 -63zM376.998 291.999h-19l-32 -25h19zM400.998 284.999l-48 -36l-1 -32h3c28 0 43.333 22.667 46 68zM278.998 335.999l-51.001 0.000976562v31c0.666992 50.667 -12.666 76 -39.999 76l-3 -1c-2 -22.667 -3 -45.334 -3 -68.001
c0 -38 3.33301 -73 10 -105zM340.997 256h-23c1.33301 -6 3 -11 5 -15l18 14v1zM340.997 240l-11 -9c3.33301 -4.66699 7 -8 11 -10v19zM301.997 267c-4 18 -6.33301 40 -7 66l-86 -66h93zM313.997 234c-3.33301 5.33301 -6 11.667 -8 19l-84 -65l7 -10h12zM339.997 208.001
c-7.33301 2.66699 -14 8 -20 16l-71 -55v-13c6 -5.33301 12.667 -10.333 20 -15l71 54v13zM290.997 256.001h-93v-10c0 -8 6 -23.667 18 -47zM339.997 180.001l-59 -45c16 -6.66699 33.667 -10.334 53 -11.001c2.66699 16.667 4.66699 35.334 6 56.001zM235.997 151.001
c-2 2 -6 6.99902 -12 14.999h-38v79c-2.66699 10 -5.66699 24 -9 42c-4.66699 27.333 -7 56.333 -7 87c0 20.667 0.666992 41.334 2 62.001c-20 -10 -30 -76 -30 -198c0 -98 16.333 -147 49 -147c26 0 41 20 45 60zM405.997 120
c-18.667 -5.33301 -39.332 -8.00098 -61.999 -8.00098c-4.66699 -21.333 -11.334 -39.666 -20.001 -54.999zM331.999 111.999c-23.333 1.33301 -43.998 6.33301 -61.998 15l-36 -30c-16.667 -11.333 -31 -17 -43 -17c-40.667 0 -61 52.333 -61 157
c0 56 1.33301 94.667 4 116c5.33301 53.333 17.666 85.666 36.999 96.999l-1 1l4 3c3.33301 30.667 8.66602 58.334 15.999 83.001c-114.667 0 -172 -96 -172 -288c0 -167.333 53.333 -251 160 -251c86 0 137.333 38 154 114zM207.001 191.999
c-3.33301 6 -6.33301 12.333 -9 19v-27zM215.001 177.999l-2 3l-4 -3h6zM259.001 132.999c-4 2.66699 -8 5.66699 -12 9c-1.33301 -8 -3 -15.333 -5 -22z" />
    <glyph glyph-name="H" unicode="H" horiz-adv-x="516" 
d="M510 125l-169 -128h-126v55l-73 -55h-126v537l168 129h127v-55l72 55h127v-538zM486 651h-95v-73zM379 569v76l-68 -52v-55h27zM379 456v98l-33 -25v-73h33zM287 651h-95v-73zM299 538v46l-61 -46h61zM334 456v70h-23v-70h23zM498 134v511l-107 -82v-116l-45 -34v-54h45
v-225h107zM367 444h-21v-16zM299 599v46l-107 -82v-192l23 18v145zM299 453v73h-72v-128zM180 569v76l-141 -107h100zM367 347h-21v-16zM334 419v25h-27l-80 -61v-46zM334 322v25h-23v-43zM180 362v192l-33 -25v-192zM334 359v45l-111 -85h-31v-45l110 85h32zM379 131v210
l-33 -25v-210zM215 331v43l-23 -18v-25h23zM299 295v46l-107 -82v-25h27zM180 331v16l-21 -16h21zM486 122h-99l-41 -31v-76zM299 134v146l-72 -55v-91h72zM334 97v210l-23 -18v-164l-84 -64v-46zM180 234v16l-21 -16h21zM215 134v88h-23v-88h23zM180 265v54h-45v207h-107
v-511l107 82v133zM287 122h-60v-46zM334 9v73l-96 -73h96zM180 131v91h-33v-116zM215 67v55h-27l-41 -31v-76zM135 9v73l-96 -73h96z" />
    <glyph glyph-name="I" unicode="I" horiz-adv-x="317" 
d="M311 125l-3 -3l-165 -125h-127l4 541l165 125h126v-538zM288 651h-96v-73zM180 569v76l-141 -107h101zM300 134v511l-108 -82v-429h108zM180 131v423l-32 -25v-423zM136 97v429h-108v-511zM288 122h-100l-40 -31v-76zM136 9v73l-97 -73h97z" />
    <glyph glyph-name="J" unicode="J" horiz-adv-x="365" 
d="M373 258c0 -59.333 -13.333 -99.333 -40 -120l-164 -124c-22 -16.667 -54 -25 -96 -25c-13.333 0 -35.333 2.66699 -66 8v103l72 54v381l169 128h125v-405zM350 651h-96v-73zM243 569v76l-141 -107h100zM362 258v387.002l-108 -82v-290
c0 -26.667 -5.33301 -43.334 -16 -50.001v-1l-28 -21v-73c9.33301 -1.33301 18.333 -2 27 -2c46.667 0 79.167 10.167 97.5 30.5s27.5 54.166 27.5 101.499zM243 273.002v281l-33 -25v-304c22 0.666992 33 16.667 33 48zM198 225.002v301h-107v-363l84 65zM198 207.002v7
l-15 1v-20zM198 133.002v59l-15 -12v-48l15 -3v4zM291 120.002c-24 -6 -51.333 -7.33301 -82 -4c-1.33301 -28.667 -6 -51.667 -14 -69zM171 186.002v24l-80 -62c0 -10 -1 -18.333 -3 -25zM197 118.002l-26 4.00098v49l-97 -74v0c-10.667 -8.66699 -29 -11 -55 -7v-83
c20.667 -4 38.667 -6 54 -6c43.333 0 74.5 8.66699 93.5 26s29.167 47.666 30.5 90.999zM78 139.003l-50 -39h15c22 -1.33301 33.667 11.667 35 39z" />
    <glyph glyph-name="K" unicode="K" horiz-adv-x="515" 
d="M530 660l-102 -179l101 -359l-168 -128h-123l-17 63l-84 -63h-126v538l167 128h128v-75l100 75h124zM502 648h-92l-57 -113h1zM390 634l-84 -64v-35h33zM283 648h-96v-73zM294 535v26l-33 -26h33zM333 523h-27v-54zM294 576v66l-107 -82v-128l51 100zM514 131l-99 351
l85 150l-139 -107l-97 -169l10 -34l74 56l2 -8l61 -239h103zM175 566v76l-140 -107h99zM294 448v75h-47l-60 -117v-40zM324 346l-47 -36l7 -23l12 10zM175 408v143l-33 -25v-182zM295 433l-108 -82v-95l77 59l-12 42zM399 127l-57 226l-36 -62v-84l35 -124zM294 249v32
l-7 -6zM175 356v26l-22 -42zM273 280l-6 22l-80 -61v-1l6 -22zM504 119h-96l-64 -49l18 -60zM294 131v75l-17 61l-81 -62l19 -74h79zM175 204v19l-19 -33zM331 75l-25 88v-41l-74 -57l14 -55zM175 246v96l-45 -35v216h-107v-511l107 82v75zM203 131l-16 61v-61h16zM283 119
h-65l10 -41zM350 6l-16 57l-74 -57h90zM175 128v61l-33 -25v-61zM218 70l-12 49h-23l-41 -31v-76zM130 6v73l-95 -73h95z" />
    <glyph glyph-name="L" unicode="L" horiz-adv-x="443" 
d="M457 123l-4 -4l-163 -125h-282v537l4 4l165 125h126v-435h154v-102zM280 648h-96v-73zM172 566v76l-140 -107h99zM291 222v420l-107 -82v-420zM445 131v76l-99 -76h99zM434 213h-135l-107 -82h134zM172 131v420l-33 -25v-420zM434 119h-104l-37 -28v-79zM310 119h-130
l-25 -19h130zM128 94v429h-108v-511zM281 6v82h-142l-107 -82h249z" />
    <glyph glyph-name="M" unicode="M" horiz-adv-x="621" 
d="M615 123l-4 -4l-163 -125h-117v55l-72 -55h-77l-9 45l-58 -45h-99v537l4 4l164 125h166l13 -67l91 67h161v-537zM592 648h-133l-24 -113h8zM445 640l-79 -60l8 -45h49zM440 470v53h-7l-14 -69zM603 131v511l-152 -116v-47l57 43l1 -391h94zM362 535l-7 37l-48 -37h55z
M421 523h-45l17 -89l11 9zM495 497l-44 -33v-168zM328 648h-136v-104zM353 585l-12 59l-149 -115v-21l9 -49l81 63l3 10v0v1zM401 425l-5 -4l2 -11zM383 426l-19 97h-69l-8 -39l30 -158l5 3l11 60zM391 382l-6 31l-41 -30v-36zM497 453l-46 -213v-145l46 33v325zM180 535
l-1 107l-140 -107h141zM440 241v214l-25 -19l-13 -61l-58 -43v-144l11 -57h61zM307 318l-25 129v-149zM270 460v37l-67 -51l31 -161zM332 323l-2 -1l-5 -35l7 -41v77zM270 289v112l-27 -132zM592 119h-87l-54 -39v-68zM313 287l-4 18l-27 -22v-140zM270 131v143l-39 -29
l-38 193l-1 -1v-306h78zM440 86v99l-14 -61l-82 -66v-46zM331 187l-13 71l-38 -180l51 40v69zM403 119h-51l-8 -7v-39zM440 6v65l-85 -65h85zM180 128v300l-62 -47l51 -261zM180 443v64l-3 16h-149v-511l78 59v317zM331 103l-55 -43l-10 -46l65 50v39zM159 112l-41 210v-242
zM258 119h-70l-16 -12l9 -47zM276 118l-93 -71l8 -37l74 57zM261 49l-57 -43h48zM170 52l-9 47l-43 -33v-54zM106 6v50l-67 -50h67z" />
    <glyph glyph-name="N" unicode="N" horiz-adv-x="517" 
d="M511 122l-168 -128h-100l-31 71l-91 -71h-105v537l168 129h109l29 -65l86 65h103v-538zM488 648h-72v-55zM404 584v58l-78 -59l19 -44zM404 403v166l-54 -41zM334 535l-17 41l-54 -41h71zM272 648h-80v-61zM499 131v511l-83 -64v-217h-3l-65 -51v-24l67 -155h84zM403 368
l-55 136v-179zM312 587l-25 58l-95 -73v-181l7 -17l41 31v127l3 3h1zM336 316v207h-84v-109l30 23l53 -121h1zM180 578v64l-141 -107h85zM180 418v145l-47 -36zM325 308l-37 85v-113zM276 271v146l-24 -18v-147zM240 278v112l-36 -28zM404 127l-56 129v-172zM488 119h-75
l-65 -50v-57zM276 131v125l-30 -23l-52 122l-2 -2v-211l5 -11h79zM336 75v208l-6 14l-42 -32v-142l-66 -51l28 -63zM180 170v174l-55 -42zM180 359v29l-58 135h-94v-511l84 64v231zM264 119h-62l15 -36zM336 6v54l-71 -54h71zM180 128v12l-56 128v-183zM208 76l-19 43h-1
l-64 -49v-58zM112 6v55l-73 -55h73z" />
    <glyph glyph-name="O" unicode="O" horiz-adv-x="509" 
d="M533 390c0 -120.667 -25.335 -203 -76.002 -247c-10 -8.66699 -34 -27.334 -72 -56.001c-57.333 -44 -87.666 -67 -90.999 -69c-36 -22.667 -71.333 -34 -106 -34c-122 0 -183 93.667 -183 281c0 126.667 27.667 211.334 83 254.001l160 121
c26.667 20.667 61.334 31 104.001 31c120.667 0 181 -93.667 181 -281zM307.998 544l-29.001 -22.001c6.66699 -4.66699 13.334 -10 20.001 -16c2 16.667 5 29.334 9 38.001zM520.997 389.999c0 179.333 -56.3311 268.998 -168.998 268.998
c-76.667 0 -127.334 -38 -152.001 -114c25.333 -1.33301 48 -7 68 -17l39 32c17.333 12 32.333 18 45 18c21.333 0 36.333 -13.333 45 -40c7.33301 -23.333 11 -86.666 11 -189.999c0 -68.667 -9.33301 -113 -28 -133l-12 -9
c-2.66699 -31.333 -7.33398 -59.666 -14.001 -84.999c111.333 1.33301 167 91 167 269zM351.999 565.997c-23.333 0 -37.333 -23.667 -42 -71c40 -44.667 60 -120 60 -226c0 -15.333 -0.333008 -31 -1 -47c18 9.33301 27 51.333 27 126c0 103.333 -3.66699 165.5 -11 186.5
s-18.333 31.5 -33 31.5zM210.999 597.997l-78 -60.001c16.667 4.66699 35 7.33398 55 8.00098c6 20 13.667 37.333 23 52zM256.999 519.996c-18 8 -38.333 12.333 -61 13c-5.33301 -20.667 -9.33301 -43.667 -12 -69zM357.999 264.996c0 98.667 -16.332 169.667 -48.999 213
c-1.33301 -23.333 -2 -48.666 -2 -75.999v-27c0 -67.333 3.66699 -110.833 11 -130.5s18.666 -29.5 33.999 -29.5l4 1c1.33301 15.333 2 31.666 2 48.999zM346 203.996c-18.667 2.66699 -31.833 15.001 -39.5 37.001s-11.5 71 -11.5 147c0 43.333 1 77.666 3 102.999
c-6.66699 8 -16.334 15.667 -29.001 23l-80 -61c20.667 0 35.334 -13.333 44.001 -40c7.33301 -23.333 11 -87.333 11 -192c0 -22.667 -1 -42 -3 -58c4.66699 -6 13 -12.667 25 -20zM188.001 440.997l-6 0.000976562c-0.666992 -16 -1 -33 -1 -51
c0 -100.667 16.667 -172.334 50 -215.001c0.666992 14 1 30 1 48c0 102.667 -3.5 164.667 -10.5 186s-18.167 32 -33.5 32zM355.001 195.998l-78.001 -59.001c18.667 -9.33301 40.334 -14.666 65.001 -15.999c6 22.667 10.333 47.667 13 75zM402 114.997
c-19.333 -4.66699 -36.333 -6.66602 -51 -5.99902c-6 -18.667 -13.333 -35.334 -22 -50.001c20 13.333 44.333 32 73 56zM229 158.998c-40 44 -59.999 121.001 -59.999 231.001c0 16 0.333008 31.333 1 46c-18 -12.667 -27 -70.334 -27 -173.001
c0 -76 3.66699 -123.833 11 -143.5s18.666 -29.5 33.999 -29.5c21.333 0 35 23 41 69zM339.001 109.999c-27.333 1.33301 -51.333 7.66895 -72 19.002l-51 -39c-10 -8 -19.333 -12 -28 -12c-21.333 0 -36.666 12.667 -45.999 38c-7.33301 21.333 -11 70.333 -11 147
c0 82 3.83301 132.667 11.5 152s17.167 32.666 28.5 39.999c2.66699 29.333 7 55.666 13 78.999c-111.333 -2 -167 -91.667 -167 -269c0 -179.333 57 -269 171 -269c75.333 0 125.666 38 150.999 114zM256.001 135.002l-17 13c-2 -12 -4.66699 -22.333 -8 -31z" />
    <glyph glyph-name="P" unicode="P" horiz-adv-x="472" 
d="M505 494c0 -60 -15.667 -102 -47 -126l-160 -123l-1 1v-124l-167 -128h-128v537l168 129h155c120 0 180 -55.333 180 -166zM373 497c0 40 -21 60 -63 60h-12v-64c14 -12 25.333 -30.667 34 -56c27.333 6 41 26 41 60zM494 494
c0 102.667 -56.334 154.001 -169.001 154.001h-147v-114c20.667 -0.666992 39.334 -3.33398 56.001 -8.00098c12 10 30.667 24.333 56 43h2c32 0 54.333 -3.66699 67 -11c17.333 -10.667 26 -31 26 -61c0 -34 -16 -60.333 -48 -79c4.66699 -23.333 5.66699 -48 3 -74
c102.667 2 154 52 154 150zM285.999 502.001v49.001l-38 -29c14 -4.66699 26.667 -11.334 38 -20.001zM319.999 435.002c-5.33301 15.333 -12.667 28.667 -22 40v-41h7zM221.998 517.003c-12.667 3.33301 -27.333 5.33301 -44 6v-39zM165.999 535.003v107l-140 -107h140z
M285.999 431.003v56c-14 12 -30.667 21 -50 27l-58 -45v-29c26 -7.33301 40 -27 42 -59zM402.999 341.003c-19.333 -6 -40.667 -9 -64 -9c-3.33301 -20 -9.33301 -38 -18 -54zM322.998 423.003c-6 -0.666992 -15.667 -1.00098 -29 -1.00098l-73 -55
c-0.666992 -9.33301 -2 -17.666 -4 -24.999zM326.998 332.002h-3h-27v-68c15.333 18 25.333 40.667 30 68zM165.998 442.002v18l-21 -16c7.33301 0 14.333 -0.666992 21 -2zM208.998 373.002c0 29.333 -10.333 47.333 -31 54v-78zM207.998 357.002l-30 -23v-19
c17.333 6.66699 27.333 20.667 30 42zM165.998 340.002v90c-6.66699 1.33301 -13 2 -19 2h-13v-117zM165.998 311.002v13.999l-20 -16c7.33301 0.666992 14 1.33398 20 2.00098zM284.998 131.001l0.000976562 107c-26.667 -20 -62.334 -30.667 -107.001 -32v-75h107z
M165.999 128.001v78h-7h-26v-103zM273.999 119.001h-100l-41 -31v-76zM120.999 6.00098v73l-95 -73h95zM177.999 261.001l107 83l7 -1h36c1.33301 9.33301 2 18 2 26c0 15.333 -1 29 -3 41l-73 -57c-40 -30.667 -65.333 -47.667 -76 -51v-41zM120.999 218.001l45 34v47
c-8.66699 -1.33301 -17 -2 -25 -2h-19v145l44 33v48h-4h-148v-511l107 82v124zM165.999 237.001l-25 -19h25v19zM284.999 329.001l-107 -83v-28c46 1.33301 81.667 13 107 35v76z" />
    <glyph glyph-name="Q" unicode="Q" horiz-adv-x="552" 
d="M536 391c0 -113.333 -21.999 -192.333 -65.999 -237c9.33301 -16 29.666 -24 60.999 -24v-105c-4 -2 -32.333 -23.333 -85 -64s-80 -62 -82 -64c-4 -0.666992 -9.66699 -1 -17 -1c-71.333 0 -115.333 30.333 -132 91c-10 -1.33301 -20.333 -2 -31 -2
c-118 0 -177 93.667 -177 281c0 56.667 4 101.667 12 135c12.667 50 35.667 88 69 114l168 129c23.333 18 56 27 98 27c121.333 0 182 -93.333 182 -280zM311.001 547l-32 -23.999c8 -4.66699 15.667 -10.334 23 -17.001c2 18 5 31.667 9 41zM354.001 567.001
c-23.333 0 -37.333 -23.999 -42 -71.999c40 -44 60 -119 60 -225c0 -14.667 -0.333008 -30.334 -1 -47.001c18 9.33301 27 51.333 27 126c0 103.333 -3.5 165.5 -10.5 186.5s-18.167 31.5 -33.5 31.5zM524.001 391.002c0 178.667 -56.6631 268 -169.996 268
c-76.667 0 -127.334 -38 -152.001 -114c24.667 -1.33301 46.667 -6.66602 66 -15.999l52 40c9.33301 6.66699 20.666 10 33.999 10c21.333 0 36.333 -13.333 45 -40c7.33301 -24 11 -93.667 11 -209c0 -64 -9 -103 -27 -117l-13 -11
c-2.66699 -30 -7.33398 -56.667 -14.001 -80c11.333 0.666992 21.666 1.66699 30.999 3c1.33301 -4 3 -9.33301 5 -16l66 51c5.33301 4 12 11.667 20 23c30.667 43.333 46 112.666 46 207.999zM190.005 546.002c5.33301 17.333 11.999 33 19.999 47l-67 -53
c14.667 3.33301 30.334 5.33301 47.001 6zM257.004 521.002c-17.333 7.33301 -37 11.333 -59 12c-5.33301 -20 -9.33301 -42 -12 -66zM360.004 266.002c0 98.667 -16.333 169.334 -49 212.001c-1.33301 -22.667 -2 -47.667 -2 -75v-27c0 -67.333 3.66699 -110.833 11 -130.5
s18.666 -29.5 33.999 -29.5c0.666992 0 2.33398 0.333008 5.00098 1c0.666992 15.333 1 31.666 1 48.999zM353.004 205.002c-20.667 0 -35.668 12.334 -45.001 37.001c-7.33301 22 -11 71 -11 147c0 42.667 1 76.667 3 102c-6.66699 8.66699 -17 16.667 -31 24l-79 -61
c21.333 0 36.333 -13.333 45 -40c6.66699 -20 10.334 -72.667 11.001 -158v-34c0 -22.667 -0.666992 -42.334 -2 -59.001c4.66699 -6.66699 13.667 -14 27 -22zM508.003 119.003c-21.333 2 -37 11 -47 27l-65 -49c7.33301 -17.333 17.333 -31 30 -41zM519.003 33.0029
l0.000976562 79l-83 -63c17.333 -10.667 39.666 -16 66.999 -16h16zM190.004 442.003c-2 0 -4.00098 -0.332031 -6.00098 -0.999023c-0.666992 -15.333 -1 -32 -1 -50c0 -99.333 16.667 -171 50 -215c1.33301 13.333 2 29 2 47c0 103.333 -3.66699 165.666 -11 186.999
s-18.666 32 -33.999 32zM357.003 192.004l-75 -57c18 -8.66699 38.667 -13 62 -13c6 20.667 10.333 44 13 70zM362.003 110.004h-9l-4 -10zM231.003 159.004c-40 46 -60 123.334 -60 232.001c0 16 0.333008 31.333 1 46c-18 -12.667 -27 -70.334 -27 -173.001
c0 -76 3.66699 -123.833 11 -143.5s19 -29.5 35 -29.5c20.667 0 34 22.667 40 68zM340.003 110.005c-26 0.666992 -49 6.33105 -69 16.998l-52 -40c-6.66699 -5.33301 -16 -8 -28 -8c-22 0 -37.333 12.667 -46 38c-8 22 -12 71 -12 147c0 79.333 4 130 12 152
c6 17.333 15.667 31 29 41c2 28.667 6 54.334 12 77.001c-66.667 -1.33301 -113 -31.666 -139 -90.999c-18.667 -41.333 -28 -100.333 -28 -177c0 -180 55 -270 165 -270c12 0 23 1 33 3l114 87c3.33301 8 6.33301 16 9 24zM382.003 101.002l-1.99902 8l-40 -31
c-2.66699 -5.33301 -5.33398 -10.333 -8.00098 -15zM506.004 21.002h-3c-30 -0.666992 -55.667 6 -77 20l-59 -45v-81zM416.004 48.002c-12 10.667 -21.667 24.667 -29 42l-81 -62c9.33301 -15.333 27 -23.333 53 -24zM260.004 134.002c-6 4 -12.333 8.66699 -19 14
c-2 -14.667 -5.33301 -27 -10 -37zM355.004 -91.998l0.000976562 84.998c-30.667 0.666992 -52 13.334 -64 38.001c9.33301 8.66699 17.666 18.334 24.999 29.001l-90 -69c15.333 -55.333 53 -83 113 -83h16z" />
    <glyph glyph-name="R" unicode="R" horiz-adv-x="518" 
d="M516 122l-167 -128h-124l-13 54l-71 -54h-128v538l168 128h162c114.667 0 172 -51 172 -153c0 -60.667 -23.667 -104 -71 -130c4 -13.333 28 -98.333 72 -255zM385 499c0 40 -20.333 60 -61 60h-15v-65c14.667 -12 26 -30 34 -54c28 5.33301 42 25 42 59zM503 507
c0 94 -53.334 140.999 -160.001 140.999h-154v-113c12 -1.33301 30.333 -4 55 -8c18 13.333 36.333 28 55 44h4c32.667 0 55.334 -3.66699 68.001 -11c17.333 -10 26 -30.333 26 -61c0 -21.333 -3.33301 -36.666 -10 -45.999c-3.33301 -4 -16 -14.667 -38 -32
c2 -10 3 -23.333 3 -40c0 -14 -1.66699 -27.333 -5 -40l5 -19l78 60v0c0.666992 0.666992 2 1.66699 4 3c46 25.333 69 66 69 122zM296.999 503.999v49l-38 -30c14 -4.66699 26.667 -11 38 -19zM330.999 437.999c-4.66699 14 -12 27 -22 39v-39h10h12zM231.999 517.999
c-8.66699 2 -23 3.66699 -43 5v-38zM176.999 534.999v107l-141 -107h141zM296.999 434.999v54.001c-14 11.333 -30.667 19.666 -50 24.999l-58 -44v-28c26 -6.66699 40.333 -25.667 43 -57zM502.999 131l-69 238l-79 -60l44 -178h104zM333.999 426
c0.666992 0 -4.33301 0.000976562 -15 0.000976562h-14l-72 -55c0 -10.667 -1 -19.334 -3 -26.001zM319.999 349.001h-12v-9zM341.999 314.001l-1 4l-4 -8zM334.999 341.001l-1 4l-26 -20v-36c13.333 14.667 22.333 32 27 52zM176.999 444.001v17l-21 -16
c8 0 15 -0.333008 21 -1zM339.999 381.001c0 13.333 -0.666992 23.665 -2 30.998l-71 -56c-42 -31.333 -68 -48.666 -78 -51.999v-28c26 18 63 46.333 111 85h39c0.666992 6.66699 1 13.334 1 20.001zM220.999 377c-0.666992 28.667 -11.333 46.333 -32 53v-78zM221 360.999
l-32.001 -24v-20c18.667 6 29.334 20.667 32.001 44zM386.999 126.999l-42.001 174c-9.33301 -6 -21.666 -16 -36.999 -30v-117c0 -1.33301 7 -25 21 -71zM295.998 330.999v12l-107 -82v-12zM176.998 342.999v89c-5.33301 0.666992 -10.333 1 -15 1h-17v-115z
M295.998 194.999v67l-16 -11zM176.998 313.999l-0.000976562 14l-20 -16c6.66699 0 13.334 0.666992 20.001 2zM492.997 118.999h-97l-64 -49l18 -60zM295.997 130.999c0.666992 13.333 0.666992 20.333 0 21l-30 105l30 22v37l-107 -82v-40l15 -63h92zM176.997 239.999v12
l-21 -16h16zM176.997 266.999v35c-8 -1.33301 -15.333 -2 -22 -2h-22v142l44 34v47h-152v-511l108 82v139zM284.997 118.999h-78l12 -50zM318.997 74.999l-13 44h-2l-82 -63l12 -46zM191.997 130.999l-3 13v-13h3zM338.997 5.99902l-17 57l-74 -57h91zM176.997 127.999v65
l-8 31h-25v-121zM208.997 60.999l-14 58h-10l-41 -31v-76zM132.997 5.99902v73l-97 -73h97z" />
    <glyph glyph-name="S" unicode="S" horiz-adv-x="489" 
d="M508 275c0 -55.333 -24.665 -102 -73.998 -140l-141 -107c-38 -30 -78.333 -45 -121 -45c-48.667 0 -87.5 14.333 -116.5 43s-46.5 68 -52.5 118l111 85c-64.667 43.333 -97 95 -97 155c0 55.333 21.333 99.333 64 132l123 99c52 37.333 98.333 56 139 56
c41.333 0 74.666 -13 99.999 -39c22 -22.667 40.333 -58.334 55 -107.001l-106 -80c37.333 -24.667 64.666 -48 81.999 -70c22.667 -29.333 34 -62.666 34 -99.999zM343.002 659c-36.667 0 -68.3311 -10.333 -94.998 -31s-43.667 -48.667 -51 -84
c20 -2 38.667 -7.33301 56 -16c13.333 10.667 27 21 41 31c18 13.333 32.667 20 44 20c23.333 0 42.666 -23.333 57.999 -70l89 18l-2 6c-14.667 42.667 -30.334 73 -47.001 91c-22.667 23.333 -53.667 35 -93 35zM457.005 509l-63 -12l-38 -29l25 -17zM385.005 505
c-13.333 41.333 -29 62 -47 62c-21.333 0 -32 -11.333 -32 -34c0 -18.667 13.333 -38 40 -58zM336.005 468c-28 20.667 -42 41.999 -42 63.999c0 4.66699 0.333008 9 1 13l-31 -24c24 -15.333 42 -37.666 54 -66.999zM371.005 443.999l-25 16l-23 -18
c3.33301 -9.33301 6 -19 8 -29zM185.005 544.999c3.33301 18 9.33301 34.667 18 50l-74 -57c19.333 6 38 8.33301 56 7zM242.005 519.999c-14 6.66699 -29.667 10.667 -47 12c-1.33301 -8 -2 -15.667 -2 -23c0 -8 0.666992 -16.667 2 -26zM308.005 445.999
c-12 30.667 -30 53.333 -54 68l-56 -43c6.66699 -28 21.667 -53 45 -75zM313.005 434.998l-61 -47v0l69 14c-1.33301 7.33301 -4 18.333 -8 33zM496.005 274.998c0 36.667 -11.334 68.668 -34.001 96.001c-16 20 -42.667 42 -80 66l-58 -46
c-1.33301 -0.666992 -21.333 -5 -60 -13l80 -52c33.333 -24.667 50 -48.334 50 -71.001c0 -16 -5.66699 -29.667 -17 -41c-0.666992 -0.666992 -13 -10.334 -37 -29.001c4.66699 -20 5.33398 -41.333 2.00098 -64c39.333 0.666992 71 11.334 95 32.001l1 -1
c38.667 29.333 58 70.333 58 123zM192.004 450.999l-4.00098 12l-13 -10c6.66699 0 12.334 -0.666992 17.001 -2zM234.003 388.999l-6 6l3 -8zM382.003 254.999c0 19.333 -17.667 41.667 -53 67l-80 53l-25 -5c-12 48 -28.333 72 -49 72c-22 0 -33 -11.667 -33 -35
c0 -18.667 16.333 -40 49 -64l75 -50l14 2l3 -16c22.667 -20 39 -41.667 49 -65l8 -1c28 0 42 14 42 42zM316.003 219c-6.66699 13.333 -15.667 26.001 -27 38.001c6 -18.667 15 -31.334 27 -38.001zM341.003 201.001h-5l1 -3zM251.003 289.001l-75 50.001
c-30.667 23.333 -46 46 -46 68c0 14 6.33301 27.333 19 40c3.33301 3.33301 15 12.666 35 27.999c-3.33301 18.667 -3.66602 38 -0.999023 58h-4c-42.667 3.33301 -78.334 -9.5 -107.001 -38.5s-43 -65.833 -43 -110.5c0 -56.667 31.333 -106 94 -148l48 36v0z
M251.003 277.002l-71 -15c2 -7.33301 4.66699 -18.333 8 -33zM327.003 190.002l-4 13.001c-26 7.33301 -43 30.666 -51 69.999l-4 3l-76 -58c14 -37.333 36.333 -64 67 -80zM332.003 150.003c0 8.66699 -0.666992 17.668 -2 27.001l-59 -45
c17.333 -6.66699 37 -10.334 59 -11.001c1.33301 10 2 19.667 2 29zM389.003 116.004c-15.333 -4.66699 -31.667 -7 -49 -7c-4 -16 -9.66699 -30.667 -17 -44zM178.002 222.004c-2 6.66699 -5 18.333 -9 35l-35 -27l30 -19zM191.002 191.003c-3.33301 6.66699 -6 13 -8 19
l-9 -6zM249.002 130.003c-7.33301 4 -14.333 9 -21 15c2.66699 -9.33301 3 -19.333 1 -30zM218.002 130.003c0 20 -18 42 -54 66l-46 -35c8 -49.333 27.333 -74 58 -74c28 0 42 14.333 42 43zM154.002 203.003l-30 19l-90 -69l75 16zM327.002 109.003
c-25.333 1.33301 -47.668 6.33301 -67.001 15l-39 -31c-16.667 -12 -31.667 -18 -45 -18c-37.333 0 -60.666 27 -69.999 81l-90 -19c18 -94.667 70 -142 156 -142c40 0 74 10.667 102 32v0c27.333 20.667 45 48 53 82z" />
    <glyph glyph-name="T" unicode="T" horiz-adv-x="459" 
d="M492 562l-4 -3l-93 -71v-358l-4 -6l-165 -125h-126v435h-98v102l169 129h321v-103zM480 571v76l-152 -116v-4l60 44h92zM469 559h-74v-56zM469 653h-291v-82h98v-31h44zM383 494v59l-55 -41v-60zM316 518v10h-40v-42zM264 540v13l-18 -13h18zM316 446v57l-40 -32v-25h40z
M252 559h-78l-26 -19h79zM264 446v16l-22 -16h22zM166 568v79l-141 -107h104zM383 136v343l-59 -45h-48v-298h107zM211 528h-78l-108 -82h79zM113 528h-99v-76zM264 133v301h-33v-326zM264 477v51h-33l-119 -91v-420l107 82v343zM371 124h-99l-41 -31v-76zM219 11v73
l-96 -73h96z" />
    <glyph glyph-name="U" unicode="U" horiz-adv-x="488" 
d="M499 259c0 -51.333 -14.332 -87.999 -42.999 -109.999c0 -1.33301 -54.333 -43 -163 -125c-32.667 -25.333 -71.334 -38 -116.001 -38c-50.667 0 -90 12 -118 36c-30.667 25.333 -46 62.666 -46 111.999v401l167 128h128v-62l80 62h111v-404zM476.001 651.001h-79v-60z
M385.001 582.001v63l-77 -59v-48h19zM284.001 651.001h-95v-73zM296.001 538.001v39l-51 -39h51zM487.001 259.001l0.000976562 386l-90 -69v-306c0 -23.333 -5.33301 -40.666 -16 -51.999l-46 -34v-60h5c45.333 -2 81.166 8.66699 107.499 32s39.5 57.666 39.5 102.999z
M385.002 270.001v297l-50 -38v-310l12 -1c10 0 18 2.66699 24 8c9.33301 8 14 22.667 14 44zM177.002 569.001v76l-141 -107h100zM323.002 224.001v301.999h-15v-256c0 -23.333 5 -38.666 15 -45.999zM296.002 592v53l-107 -82v-304c0 -40 10.667 -71.333 32 -94v370z
M323.002 189l0.000976562 22c-18 8 -27 27.667 -27 59v256h-63v-372c7.33301 -6 15.666 -11 24.999 -15zM345.003 206l-10 1v-8zM221.003 148c-29.333 25.333 -44 62.333 -44 111v295l-33 -25v-384c0 -34.667 13 -52 39 -52c25.333 0 38 18.333 38 55zM399.003 119
c-21.333 -6 -43 -8.33301 -65 -7c-2 -20.667 -7 -38.667 -15 -54zM323.003 134l0.000976562 39.999l-52 -40c15.333 -5.33301 32.666 -8.66602 51.999 -9.99902v10zM322.004 111.999c-23.333 2 -43.999 6.66699 -61.999 14l-36 -29c-14.667 -10.667 -28.334 -16 -41.001 -16
c-34 0 -51 21.333 -51 64v381h-107v-392c0 -90.667 50.667 -136 152 -136c88.667 0 137 38 145 114zM247.005 130.999l-14 8c0 -8 -0.666992 -14.667 -2 -20z" />
    <glyph glyph-name="V" unicode="V" horiz-adv-x="484" 
d="M519 663l-108 -536l-168 -130h-132l-1 4l-107 534l4 3l165 125h123l13 -79l104 79h107zM494 651h-75l-12 -66zM405 643l-94 -72l5 -33h29l48 36zM273 651h-93l13 -61zM304 538l-4 25l-33 -25h37zM340 526h-22l10 -60zM390 557l-37 -28l-19 -96l17 -102zM298 576l-12 71
l-91 -70l30 -150l18 107zM502 643l-98 -75l-48 -273l-60 -47l-17 -87l5 -27h116zM182 582l-13 65l-142 -109h97zM322 433l-16 93h-51l-23 -131l32 -158l22 17zM344 299l-17 101l-27 -135zM220 395l-35 174l-52 -39l54 -324zM253 229l-27 134l-31 -178zM282 237l-16 -13
l7 -33zM267 161l-11 55l-73 -56l-62 366h-104l103 -513l139 106zM388 122h-106l-13 -9l-19 -96zM255 102l-122 -93h103z" />
    <glyph glyph-name="W" unicode="W" horiz-adv-x="648" 
d="M689 663l-99 -538l-168 -128h-109l-12 73l-96 -73h-111l-90 538l170 128h118l8 -62l82 62h113l11 -63l82 63h101zM664 651h-69l-9 -59zM582 644l-74 -57l8 -49l56 43zM472 651h-84l-13 -74zM504 538l-7 41l-53 -41h60zM570 564l-47 -35l-3 -15l23 -126zM495 592l-9 55
l-114 -87l-22 -126l63 48l9 55zM673 643l-90 -68l-21 -137l-15 -108l-70 -54l-7 -36l17 -106h93zM375 643l-73 -55l7 -50h15l37 29zM537 337l-23 143l-34 -187zM508 514l-2 12h-75l-5 -36l8 6l30 -215l2 2zM358 549l-26 -19l11 -65zM270 651h-88l10 -59zM297 538l-6 41
l-54 -41h60zM290 593l-7 53l-89 -67l14 -81l7 39zM337 431l-16 95h-11l15 -111l11 8zM453 273l-25 158l-38 -206zM410 465l-59 -45l28 -157zM332 405l-5 -4l2 -14zM181 584l-10 63l-142 -109h92zM314 407l-16 119h-73l-12 -63l31 -185l3 2l12 81l2 5zM322 337l-6 56l-45 -35
l6 -55zM475 131l-11 73l-18 -96zM375 209h-1l-31 189l-9 -64l-2 -4l-53 -41l24 -155h59zM201 463l-18 108l-53 -42l35 -267zM567 122h-83l-41 -31l-13 -74zM266 294l-2 11l-2 -14zM234 270l-27 158l-36 -206zM458 240l-3 19l-68 -52l-15 -82l-60 -46l10 -66l110 84zM291 134
l-23 147l-10 -8l-7 -36l17 -103h23zM349 122h-44l5 -30zM429 80l-93 -71h80zM239 237l-3 19l-76 -58l-42 328h-100l86 -513l110 85zM257 130l-12 72l-17 -93zM299 84l-6 38h-28l-40 -31l-13 -74zM211 81l-94 -72h81z" />
    <glyph glyph-name="X" unicode="X" horiz-adv-x="513" 
d="M528 126l-168 -129h-127l-26 67l-85 -65l-1 -2h-116l119 268l-110 270l169 128h129l21 -59l77 59h116l-114 -253zM499 651h-83l-38 -92zM398 639l-60 -46l18 -51l5 4zM345 538l-17 47l-62 -47h79zM290 651h-96l23 -55zM324 597l-19 51l-83 -64l21 -51l2 5h2zM501 638
l-130 -100l-10 -31l-20 -16l-43 -94l3 -7l-35 -80l134 104zM344 526h-91l-4 -8l25 -63l57 44zM321 476l-42 -32l13 -32zM207 588l-24 60l-144 -110h103zM236 518l-24 59l-61 -47l43 -119zM265 448l-23 54l-39 -101zM512 134l-109 266l-148 -112l-4 -11l17 -42l79 60l58 -161
h107zM285 397l-16 40l-77 -59l-52 148h-110l103 -252l148 113zM332 269l-59 -45l21 -51zM393 130l-50 134l-43 -106l31 -76zM503 122h-101l-67 -51l25 -59zM258 227l-14 35l-31 -69zM287 158l-24 58l-60 -46l-12 -27l2 -9h84zM321 75l-28 67l-7 -16l-2 -3l-1 -1l-67 -51
l23 -59zM271 364l-135 -103l-107 -239l131 100l16 43l17 13l45 99l-3 8zM348 9l-22 54l-72 -54h94zM263 122h-65l14 -39zM202 75l-17 47h-5l-10 -7l-39 -94zM152 101l-121 -92h82z" />
    <glyph glyph-name="Y" unicode="Y" horiz-adv-x="497" 
d="M532 663l-129 -321v-216l-168 -129h-127v215l-110 323l5 3l164 125h128l23 -78l102 78h112zM506 651h-80l-30 -83zM410 640l-89 -67l10 -35h27l21 16zM371 534l-7 -6l-17 -44l3 -10zM351 526h-16l6 -23zM510 640l-121 -93l-34 -94l-31 -25l-40 -99v-65l108 83zM319 538
l-8 27l-35 -27h43zM273 651h-96l20 -58zM308 577l-21 70l-86 -66l34 -98l18 52zM342 457l-2 10l-7 -17zM334 485l-12 41h-59l-22 -61l25 -67l48 38zM187 585l-22 63l-143 -110h103zM306 414l-36 -27l11 -35zM228 466l-37 108l-57 -44l52 -181zM256 391l-22 57l-36 -102z
M391 134v197l-107 -82v-115h107zM273 300l-26 -65l26 20v45zM271 341l-11 38l-79 -60l-1 9l-58 198h-109l105 -302zM273 240l-34 -25v-109l34 25v109zM379 122h-99l-41 -31v-76zM270 325l-150 -114v-196l107 82v122zM227 9v73l-95 -73h95z" />
    <glyph glyph-name="Z" unicode="Z" horiz-adv-x="486" 
d="M491 591l-1 -1l-155 -362h155v-103l-3 -3l-166 -125h-306v76l156 359h-137v103l4 3l163 125h290v-72zM479 595v50l-140 -107l-12 -28v-31zM467 651h-258v-81h152zM326 558h-121l-26 -20h121zM197 567v78l-140 -107h103zM470 574l-144 -111l-136 -316v-13h11l120 92z
M285 526h-121l-107 -82h121zM479 134v76l-100 -76h100zM144 526h-98v-76zM315 468v15l-125 -289v-17zM467 216h-139l-108 -82h139zM315 513v13h-11l-119 -91l-150 -346l144 110zM467 122h-104l-36 -28v-79zM344 122h-139l-25 -19h139zM315 9v82h-171l-106 -82h277zM178 150
v34l-152 -117v-52l140 107z" />
    <glyph glyph-name="bracketleft" unicode="[" horiz-adv-x="326" 
d="M179 -98h-163v633l168 128h164v-58l-69 -53v-463h69v-56zM336 614v31l-41 -31h41zM325 602h-46v-1v-34zM325 651h-133v-97zM267 558v34l-75 -57v-34zM180 545v100l-140 -107h132zM172 488v36l-46 -36h46zM267 86v457l-75 -57v-447h13zM180 36v441h-65v-491zM336 39v32
l-42 -32h42zM325 77h-50l-50 -38h49zM156 526h-128v-606l75 57v505zM325 27h-47l-94 -72v-35zM259 27h-50l-83 -63h50zM188 27l-73 -56v-1zM172 -87v39h-69v10l-63 -49h132z" />
    <glyph glyph-name="backslash" unicode="\" horiz-adv-x="401" 
d="M430 57l-169 -129h-68l-197 616l169 129h68zM211 661h-37l8 -22zM172 631l-9 26l-143 -109h43zM416 65l-190 592l-40 -31l180 -561h50zM354 61l-178 558l-104 -79l179 -558zM241 -26l-180 562h-50l190 -592zM406 53h-43l-108 -83l8 -26zM252 -60l-7 22l-30 -22h37z" />
    <glyph glyph-name="bracketright" unicode="]" horiz-adv-x="333" 
d="M185 663h163v-634l-168 -127h-164v57l70 54v463h-70v56zM28 -49v-31l42 31h-42zM40 -37h45l1 1v34zM40 -87h132v98zM98 7v-34l74 57v34zM184 20v-100l141 107h-132zM192 76v-35l46 35h-46zM98 479v-457l74 57v447h-13zM184 529v-441h66v491zM28 526v-32l43 32h-43z
M40 488h50l50 38h-50zM208 39h128v606l-74 -57v-506zM40 538h46l94 72v35zM106 538h49l83 63h-50zM176 538l74 56v1zM192 651v-38h70v-10l63 48h-133z" />
    <glyph glyph-name="asciicircum" unicode="^" horiz-adv-x="579" 
d="M620 454l-170 -130h-98l-110 110l-142 -110h-109l181 217h1l163 125h107zM598 461l-159 191l-154 -118l12 -14l93 72l131 -131h77zM423 654h-81l-95 -113h28zM594 449h-74l-100 -77l28 -34zM509 456l-119 119l-76 -75l98 -119zM322 524l-18 -13l2 -2zM300 623l-107 -82
h39zM435 336l-25 29l-38 -29h63zM298 500l-3 4l-56 -43h19zM403 374l-98 117l-42 -42l-11 -8l103 -103zM287 513l-13 16h-37l-56 -68h39l6 6l1 -1zM234 442l-7 7h-2l-60 -59zM222 529h-44l-135 -162l121 92zM208 449h-38l-148 -113h73z" />
    <glyph glyph-name="underscore" unicode="_" horiz-adv-x="531" 
d="M557 -11l-168 -128h-380v91l167 128h381v-91zM546 -2v64l-85 -64h85zM534 -14h-89l-51 -40v-68zM534 69h-350v-71h257zM426 -14h-246l-40 -31h246zM382 -128v71h-257l-93 -71h350zM172 -5v67l-140 -107h89zM105 -57h-85v-65z" />
    <glyph glyph-name="grave" unicode="`" horiz-adv-x="380" 
d="M350 545l-169 -129h-59l-1 2l-121 139l169 131h106l2 -3zM333 553l-63 120l-50 -38l72 -82h41zM254 676h-69l28 -32zM280 548l-69 80l-95 -73l50 -95zM325 541h-34l-120 -92l10 -18zM203 637l-32 37l-145 -111h80zM169 427l-7 15l-19 -15h26zM156 453l-52 98h-83
l105 -121z" />
    <glyph glyph-name="a" unicode="a" horiz-adv-x="521" 
d="M529 126l-170 -129h-120l-14 87l-115 -87h-106l102 536l169 130h161zM413 651h-133l-21 -113h6zM267 643l-138 -105h118zM515 134l-89 513l-153 -117l4 -20l69 51l35 -235l-64 -49l6 -33h72l18 -110h102zM266 502l-4 24h-6l-7 -37zM368 334l-27 179l-28 -179h55zM333 539
l-54 -42l25 -145zM358 322h-49l6 -32zM296 328l-28 161l-22 -17l-39 -204l2 -7zM232 461l-48 -37l18 -120zM373 232h-48l5 -32zM401 131l-15 96l-53 -41l16 -95zM304 282l-6 33l-87 -67l5 -34zM320 192l-7 40h-17l-11 -67zM505 122h-95l-58 -44l11 -65zM195 268l-18 120
l-26 -171l41 31zM311 244l-5 24l-93 -71h-19l-6 -30l101 77h22zM204 209l-3 24l-5 -24h8zM282 224l-97 -74l-3 -16h62l27 20zM244 526h-128l-96 -509l97 74l5 26l52 39l8 41h-47l37 233h-1l2 1l62 48zM268 137l-4 -3h4v3zM188 231l-28 -22h24zM339 83l-17 95l-40 -30l-4 -24
l-42 -32l12 -79zM255 122h-7l-15 -12l1 -5zM351 9l-10 60l-80 -60h90zM229 122h-52l-5 -3h52zM171 139l-27 -20h9l16 12zM137 107h-5l-1 -5zM223 97l-2 10h-64l-29 -22l-11 -69zM115 74l-86 -65h75z" />
    <glyph glyph-name="b" unicode="b" horiz-adv-x="499" 
d="M517 281c0 -52.667 -16.333 -93.333 -49 -122l-157 -119c-29.333 -28.667 -72.333 -43 -129 -43h-171v537l4 4l166 125h170c105.333 0 158 -44.667 158 -134c0 -58 -27 -97.667 -81 -119c59.333 -22 89 -65 89 -129zM497 529.001c0 81.333 -48.667 121.999 -146 121.999
h-164v-113c19.333 0 37.333 -1.66699 54 -5l51 38l5 3l25 1c22.667 1.33301 39.667 -3.66699 51 -15s17 -27.666 17 -48.999s-5.33301 -37.333 -16 -48l-1 -1v-1l-32 -24c2.66699 -11.333 4 -22.333 4 -33c0 -11.333 -1.66699 -23 -5 -35l59 44v0
c0.666992 -0.666992 4 0 10 2c58.667 17.333 88 55.333 88 114zM378 511c0 34.667 -18.668 52.001 -56.001 52.001c-5.33301 0 -11.666 -0.333008 -18.999 -1v-58c14.667 -12 25.667 -27 33 -45c28 3.33301 42 20.666 42 51.999zM291.999 513.001v43l-36 -27
c13.333 -4 25.333 -9.33301 36 -16zM322.999 458.001c-5.33301 12 -12 22 -20 30v-31h16c-2 0 -0.666992 0.333008 4 1zM228.999 523.001c-14 2 -28 3 -42 3v-35zM291.999 454.001l0.000976562 44c-13.333 10 -29.333 17.333 -48 22l-57 -44v-30
c21.333 -6 33.666 -20.333 36.999 -43zM175 538.001v107l-141 -107h141zM505 281.001c0 64.667 -32 105.666 -96 122.999h-3v0l-52 -40c27.333 -8.66699 41 -32.667 41 -72c0 -30 -7.33301 -50.333 -22 -61l-29 -23c6 -16 9 -33.333 9 -52c0 -6.66699 -0.333008 -14 -1 -22
c43.333 0.666992 76.333 9.66699 99 27l5 4c32.667 24.667 49 63.334 49 116.001zM328 442c0 0.666992 -0.333008 2 -1 4c-6 0 -8.66699 0 -8 0h-19l-74 -57v-3c0 -8.66699 -1 -16.667 -3 -24zM324 357h-1c-2 0 -8.66699 -0.333008 -20 -1v-15zM310 332l-7 -5v-3
c2 2 4.33301 4.66699 7 8zM383 292c0 36.667 -14.001 57.668 -42.001 63.001l-7 -6c-7.33301 -16 -17.666 -29.667 -30.999 -41v-44c14 -10 24.667 -22 32 -36c10 1.33301 18.333 3.66602 25 6.99902l6 5c11.333 8.66699 17 26 17 52zM174.999 448.001v19l-23 -18h3h3
c6 0 11.667 -0.333008 17 -1zM332.999 404.001c0 8.66699 -0.666992 17 -2 25l-123 -93c-5.33301 -5.33301 -12.333 -9.33301 -21 -12v-39l110 83c11.333 0.666992 20 1 26 1c-2 0 -0.333008 -0.333008 5 -1c3.33301 12 5 24 5 36zM212.999 395.001
c-1.33301 20.667 -10 33.667 -26 39v-60zM291.999 313.001v4.99902l-29 -22c10 4.66699 19.667 10.334 29 17.001zM291.999 272v27c-8 -6 -17.333 -11 -28 -15c10.667 -4 20 -8 28 -12zM213.999 380l-27 -21v-22c16.667 6 25.667 20.333 27 43zM321.999 228
c-6 8.66699 -12.333 15.667 -19 21v-21h19zM174.999 365v71c-5.33301 0.666992 -11 1 -17 1h-18v-99zM174.999 334l-0.000976562 16l-24 -18h4c6.66699 0 13.334 0.666992 20.001 2zM409.998 130c-18 -4.66699 -38 -7.33301 -60 -8c-2.66699 -18 -7.66699 -34.333 -15 -49z
M340.998 156.001c0 16.667 -2 31.667 -6 45l-88 -67h93c0.666992 6.66699 1 14 1 22zM174.998 242.001v19l-23 -18h7c4.66699 0 10 -0.333008 16 -1zM174.998 276.001l0.000976562 46c-6.66699 -1.33301 -13.334 -2 -20.001 -2h-27v125l4 4l43 33v44h-152v-511l105 80v144
l4 4zM174.999 131.001l-0.000976562 99c-5.33301 0.666992 -10.666 1 -15.999 1h-19v-127zM208.998 122.001h-25.999l-26 -20h3c17.333 0 30.666 3.66699 39.999 11v0l5 4c0.666992 1.33301 2 3 4 5zM337.999 122.001h-107l-18 -14l-1 -1
c-11.333 -11.333 -28.666 -17 -51.999 -17l-18 1l-108 -82h148c49.333 0 87.666 11.333 114.999 34v1l5 4c19.333 18 31.333 42.667 36 74zM230.999 178.001l60.999 47v33c-12 8 -27.667 14.667 -47 20l-18 6l65 48v18l-105 -80v-30c26.667 -7.33301 41.334 -28 44.001 -62z
M186.998 144.001l32.001 25c-0.666992 32 -11.334 51.333 -32.001 58v-83zM217.999 153.001l-25 -19h21c2 6 3.33301 12.333 4 19zM299.999 216.001l-69 -52.998c-0.666992 -10.667 -2 -20.334 -4 -29.001v0l103 78c0 1.33301 -0.333008 2.66602 -1 3.99902
c-6 0 -7.66699 0 -5 0h-24z" />
    <glyph glyph-name="c" unicode="c" horiz-adv-x="490" 
d="M513 468l-4.00098 -1.99902l-166 -126h-38c0 -30.667 2.33301 -55.334 7 -74.001l90 67l109 -5v-6c0 -84.667 -22.333 -145 -67 -181l-164 -125c-24.667 -20 -57 -30 -97 -30c-119.333 0 -179 91.667 -179 275c0 128.667 30.667 216.667 92 264l164 125
c21.333 16 52 24 92 24c106.667 0 160.334 -67.333 161.001 -202v-4zM500.999 477.001c-2 123.333 -51.667 185 -149 185c-72 0 -121.667 -38 -149 -114c39.333 -2.66699 71 -16.667 95 -42c8 52 25.333 78 52 78s43 -35.667 49 -107h102zM387.999 474.001
c-1.33301 22 -5.33301 42.668 -12 62.001c-7.33301 24 -16 36 -26 36c-21.333 0 -35 -25.667 -41 -77c12 -16.667 21.667 -36.334 29 -59.001zM489.999 466.002l-94.001 -1l-55 -42c4.66699 -19.333 7.33398 -41 8.00098 -65zM326.998 428.002
c-4.66699 17.333 -11.333 33.001 -20 47.001c-2 -18.667 -2.66699 -40.334 -2 -65.001zM213.999 599.003l-74 -57c15.333 4.66699 31.333 7 48 7c0.666992 0 1.66699 -0.333008 3 -1c6 19.333 13.667 36.333 23 51zM487.999 317.003l-79.999 3.99902
c-0.666992 -31.333 -4.33398 -55.666 -11.001 -72.999zM337 352.002c0 22.667 -2.33301 43.667 -7 63l-25 -19v-1v-43h32zM296 490.002c-22.667 28 -55 43.333 -97 46c-7.33301 -23.333 -12.333 -49.333 -15 -78c0.666992 0.666992 1.33398 1 2.00098 1
c25.333 0 41.666 -34 48.999 -102l58 44c-0.666992 36 0.333008 65.667 3 89zM293 387.002l-45 -35h45v20v15zM499 310.002l-115.001 -88.001c-4.66699 -5.33301 -9.66699 -9 -15 -11l-22 -17c-0.666992 -25.333 -3 -48.666 -7 -69.999h7c96.667 0 147.334 62 152.001 186z
M395.999 315.001l-80 -61c8 -23.333 19.667 -35 35 -35c4 0 8 1 12 3l12 9c12 14 19 42 21 84zM301.999 258.001c-5.33301 20.667 -8.33301 48 -9 82h-69v6c-1.33301 21.333 -5 42.333 -11 63c-7.33301 25.333 -16.333 38 -27 38c-0.666992 0 -1.66699 -0.333008 -3 -1
c-2 -20.667 -3 -40.667 -3 -60c0 -95.333 17 -165 51 -209c0 6 0.333008 14.333 1 25v1l4 5zM344.999 208.001c-17.333 2 -30.333 14.667 -39 38l-51 -39l84 -4zM229.999 161.001c-41.333 45.333 -62 120.333 -62 225c0 17.333 0.666992 35.333 2 54
c-20 -17.333 -29.667 -74 -29 -170v-24c-0.666992 -101.333 15 -152 47 -152c22.667 0 36.667 22.333 42 67zM334.999 191.001l-91 5c0 -11.333 -0.666992 -22 -2 -32l1 -1c22 -22 50.333 -34.667 85 -38c4 20.667 6.33301 42.667 7 66zM396.999 119.001
c-16 -4.66699 -32.667 -7 -50 -7h-10c-6 -22 -14 -41 -24 -57zM324.999 113.001c-33.333 4 -61.666 16.333 -84.999 37c-7.33301 -45.333 -24.666 -68 -51.999 -68c-12 0 -22 4 -30 12c-20 20.667 -29.667 71.334 -29 152.001v12v12c-1.33301 110 12.667 171.667 42 185
c3.33301 30.667 8.66602 58 15.999 82c-42.667 -0.666992 -77.334 -14.334 -104.001 -41.001c-44.667 -44.667 -67 -123 -67 -235c0 -175.333 55.667 -263 167 -263c74 0 121.333 38.333 142 115z" />
    <glyph glyph-name="d" unicode="d" horiz-adv-x="494" 
d="M522 392c0 -68 -7.66699 -120.333 -23 -157c-13.333 -32 -38 -63 -74 -93l-136 -102c-38 -28.667 -82 -43 -132 -43h-142v538l170 128h136c76.667 0 131 -27.333 163 -82c25.333 -43.333 38 -106.333 38 -189zM298 486v67l-45 -34c18.667 -9.33301 33.667 -20.333 45 -33
zM310 559v-88.001c34.667 -46.667 50.667 -123 48 -229c17.333 18.667 26 58.334 26 119.001c0 67.333 -1.33301 108 -4 122c-8.66699 50.667 -32 76 -70 76zM510 391.999c0 80 -11.667 140.001 -35 180.001c-30 52.667 -81.333 79 -154 79h-130v-115
c18 -2 34.333 -6 49 -12c19.333 14 39.333 29.667 60 47h4c46.667 0 75.667 -25.333 87 -76c3.33301 -16.667 5 -61.667 5 -135c0 -70.667 -12.667 -115 -38 -133l1 -1l-2 -2c-2 -33.333 -6.66699 -63 -14 -89c65.333 5.33301 111.333 34.666 138 87.999
c19.333 40 29 96.333 29 169zM229 516c-11.333 3.33301 -24 6 -38 8v-38zM179 537v108l-141 -107zM346 267c2 78 -10.001 139.001 -36.001 183.001v-224h6c10.667 -0.666992 20.334 1.66602 29.001 6.99902zM178.999 441.001v21l-22 -17c8.66699 0 16 -1.33301 22 -4z
M297.999 223.001l0.000976562 244.002c-14.667 19.333 -33.334 33.666 -56.001 42.999l-51 -39v-35c19.333 -12.667 32 -43.667 38 -93c2 -20.667 3 -56.334 3 -107.001c0 -27.333 -1.33301 -49.333 -4 -66zM191 421.003v-280l23 18c4 18 6 43.333 6 76
c0 110.667 -9.66699 172.667 -29 186zM344 214.003l-105 -80h92c6.66699 23.333 11 50 13 80zM388 131.003c-15.333 -4.66699 -31.334 -7.33301 -48.001 -8c-5.33301 -16 -11.666 -30.667 -18.999 -44zM324.999 215.004c-6 -1.33301 -12.333 -1.66699 -19 -1l-82 -62
c-1.33301 -6.66699 -3.33301 -12.667 -6 -18h1zM326.999 122.003h-103.001l-29 -22l-1 1c-11.333 -8.66699 -25.333 -13 -42 -13c-6.66699 0 -12.667 0.333008 -18 1v352l45 36v48l-22 1h-130v-517h130c86.667 0 143.334 37.667 170.001 113zM178.998 132.003v296
c-8 4 -17.667 6 -29 6h-4v-327zM206.998 139.003l-6 -5h4zM197.998 122.003h-12.999l-27 -21c17.333 0.666992 30.666 7.66699 39.999 21z" />
    <glyph glyph-name="e" unicode="e" horiz-adv-x="466" 
d="M472 125l-169 -128h-289v538l170 128h286v-103l-136 -104h88v-103l-113 -86v-39h163v-103zM458 569v76l-100 -76h100zM447 651h-257v-113h71l39 31h39zM447 557h-104l-34 -26v-75h5zM323 557h-14v-11zM297 538v13l-17 -13h17zM410 362v76l-99 -76h99zM294 451v75h-29
l-75 -57v-25h95zM245 526h-55v-42zM178 538v107l-140 -107h140zM399 444h-81l-17 -12h-12l-99 -76v-26h60zM399 350h-90v-68zM270 432h-80v-61zM178 444v16l-21 -16h21zM460 134v76l-99 -76h99zM297 273v71l-39 -30v-71zM178 362v70h-33v-95zM245 319h-55v-42zM178 330v17
l-21 -17h21zM449 216h-144l-107 -82h143zM246 236v69l-56 -43v-26h56zM449 122h-104l-36 -28v-79zM297 225v33l-43 -33h-64v-82zM178 236v17l-21 -17h21zM178 268v51h-44v121l44 35v51h-152v-511l108 82v136zM326 122h-140l-25 -19h140zM178 134v91h-33v-116zM297 9v82h-152
l-107 -82h259z" />
    <glyph glyph-name="f" unicode="f" horiz-adv-x="442" 
d="M454 569v76l-100 -76h100zM442 651h-262v-113h71l40 31h43zM319 557h-19v-14zM288 538v13l-17 -13h17zM400 362v76l-99 -76h99zM288 453v73h-33l-75 -57v-25h96zM236 526h-56v-42zM168 538v107l-140 -107h140zM389 350h-89v-68zM260 432h-80v-61zM168 444v16l-21 -16h21z
M288 273v71l-40 -30v-71zM168 362v70h-32v-95zM235 319h-55v-42zM168 330v17l-21 -17h21zM236 236v69l-56 -43v-26h56zM288 134v124l-43 -33h-65v-91h108zM168 236v17l-21 -17h21zM168 267v52h-44v121l44 35v51h-152v-511l108 82v135zM168 131v94h-32v-119zM276 122h-100
l-40 -31v-76zM124 9v73l-96 -73h96zM313 456l133 101h-108l-36 -28v-73h11zM318 444l-16 -12h-22l-100 -76v-26h60l149 114h-71zM465 557l-132 -101h79v-103l-112 -86v-142l-168 -128h-127v537l167 129h293v-106z" />
    <glyph glyph-name="g" unicode="g" horiz-adv-x="498" 
d="M517 393l-0.000976562 -5.99902c0 -63.333 -2 -107.333 -6 -132c-8.66699 -52.667 -27.667 -90.334 -57 -113.001v0l-163 -126l-1 1c-27.333 -20.667 -64.666 -31 -111.999 -31c-64.667 0 -111.334 29.667 -140.001 89c-21.333 44 -32 102 -32 174
c0 144 32.667 236.333 98 277h-1l164 126v-1c25.333 15.333 54.333 23 87 23c52 0 92.333 -16.5 121 -49.5s42.334 -75.833 41.001 -128.5v-32c-1.33301 -1.33301 -32.333 -25 -93 -71h94zM504.999 496.001c0.666992 49.333 -11.666 89 -36.999 119
c-27.333 31.333 -65.333 47 -114 47c-72 0 -121.333 -38 -148 -114c24.667 -2 47 -8.33301 67 -19l61 47h1c5.33301 2.66699 11 4 17 4c35.333 0 52.666 -35.667 51.999 -107h100zM391.999 492.001c0.666992 51.333 -12.667 76.999 -40 76.999c-20 0 -33.333 -24 -40 -72
c14.667 -17.333 25.667 -38.666 33 -63.999l47 37v22zM492.998 461h-93l-52 -40c2 -10 3.33301 -19.333 4 -28h51zM310.998 544l-27 -21c6 -4.66699 12 -9.66699 18 -15c2 14 5 26 9 36zM492.998 381h-85l-47 -35v-42h31zM333.998 426c-4.66699 20.667 -12.667 39 -24 55
c-2 -20 -3 -41.667 -3 -65v-12zM215.998 598l-72.001 -55.001c18 4.66699 34.333 6.33398 49 5.00098c6.66699 19.333 14.334 36 23.001 50zM387.997 380.999h-27v-20zM261.997 520.999c-17.333 8.66699 -37.333 13.667 -60 15c-6.66699 -21.333 -11.667 -45.333 -15 -72z
M339.997 382.999c0 10.667 -1 20.667 -3 30l-31 -24v-12v-20zM340.997 367.999l-27 -21h26zM298.997 493.999c-6 7.33301 -14.332 14.333 -24.999 21l-80 -60c31.333 -4 46.666 -37.667 45.999 -101l55 41c0 22 1.33301 55 4 99zM504.998 374.999l-92 -71v-6
c0 -30.667 -4.33301 -52.667 -13 -66c-5.33301 -8 -21.333 -22.333 -48 -43c-0.666992 -24.667 -2.66699 -46.334 -6 -65.001c70.667 0.666992 117 27.334 139 80.001c12 29.333 18.667 86.333 20 171zM293.998 379.999l-42 -33l42 1v32zM349.998 300.999v35h-43
c0.666992 -24.667 2.66699 -45.667 6 -63zM376.998 291.999h-19l-32 -25h19zM400.998 284.999l-48 -36l-1 -32h3c28 0 43.333 22.667 46 68zM278.998 335.999l-51.001 0.000976562v31c0.666992 50.667 -12.666 76 -39.999 76l-3 -1c-2 -22.667 -3 -45.334 -3 -68.001
c0 -38 3.33301 -73 10 -105zM340.997 256h-23c1.33301 -6 3 -11 5 -15l18 14v1zM340.997 240l-11 -9c3.33301 -4.66699 7 -8 11 -10v19zM301.997 267c-4 18 -6.33301 40 -7 66l-86 -66h93zM313.997 234c-3.33301 5.33301 -6 11.667 -8 19l-84 -65l7 -10h12zM339.997 208.001
c-7.33301 2.66699 -14 8 -20 16l-71 -55v-13c6 -5.33301 12.667 -10.333 20 -15l71 54v13zM290.997 256.001h-93v-10c0 -8 6 -23.667 18 -47zM339.997 180.001l-59 -45c16 -6.66699 33.667 -10.334 53 -11.001c2.66699 16.667 4.66699 35.334 6 56.001zM235.997 151.001
c-2 2 -6 6.99902 -12 14.999h-38v79c-2.66699 10 -5.66699 24 -9 42c-4.66699 27.333 -7 56.333 -7 87c0 20.667 0.666992 41.334 2 62.001c-20 -10 -30 -76 -30 -198c0 -98 16.333 -147 49 -147c26 0 41 20 45 60zM405.997 120
c-18.667 -5.33301 -39.332 -8.00098 -61.999 -8.00098c-4.66699 -21.333 -11.334 -39.666 -20.001 -54.999zM331.999 111.999c-23.333 1.33301 -43.998 6.33301 -61.998 15l-36 -30c-16.667 -11.333 -31 -17 -43 -17c-40.667 0 -61 52.333 -61 157
c0 56 1.33301 94.667 4 116c5.33301 53.333 17.666 85.666 36.999 96.999l-1 1l4 3c3.33301 30.667 8.66602 58.334 15.999 83.001c-114.667 0 -172 -96 -172 -288c0 -167.333 53.333 -251 160 -251c86 0 137.333 38 154 114zM207.001 191.999
c-3.33301 6 -6.33301 12.333 -9 19v-27zM215.001 177.999l-2 3l-4 -3h6zM259.001 132.999c-4 2.66699 -8 5.66699 -12 9c-1.33301 -8 -3 -15.333 -5 -22z" />
    <glyph glyph-name="h" unicode="h" horiz-adv-x="516" 
d="M510 125l-169 -128h-126v55l-73 -55h-126v537l168 129h127v-55l72 55h127v-538zM486 651h-95v-73zM379 569v76l-68 -52v-55h27zM379 456v98l-33 -25v-73h33zM287 651h-95v-73zM299 538v46l-61 -46h61zM334 456v70h-23v-70h23zM498 134v511l-107 -82v-116l-45 -34v-54h45
v-225h107zM367 444h-21v-16zM299 599v46l-107 -82v-192l23 18v145zM299 453v73h-72v-128zM180 569v76l-141 -107h100zM367 347h-21v-16zM334 419v25h-27l-80 -61v-46zM334 322v25h-23v-43zM180 362v192l-33 -25v-192zM334 359v45l-111 -85h-31v-45l110 85h32zM379 131v210
l-33 -25v-210zM215 331v43l-23 -18v-25h23zM299 295v46l-107 -82v-25h27zM180 331v16l-21 -16h21zM486 122h-99l-41 -31v-76zM299 134v146l-72 -55v-91h72zM334 97v210l-23 -18v-164l-84 -64v-46zM180 234v16l-21 -16h21zM215 134v88h-23v-88h23zM180 265v54h-45v207h-107
v-511l107 82v133zM287 122h-60v-46zM334 9v73l-96 -73h96zM180 131v91h-33v-116zM215 67v55h-27l-41 -31v-76zM135 9v73l-96 -73h96z" />
    <glyph glyph-name="i" unicode="i" horiz-adv-x="317" 
d="M311 125l-3 -3l-165 -125h-127l4 541l165 125h126v-538zM288 651h-96v-73zM180 569v76l-141 -107h101zM300 134v511l-108 -82v-429h108zM180 131v423l-32 -25v-423zM136 97v429h-108v-511zM288 122h-100l-40 -31v-76zM136 9v73l-97 -73h97z" />
    <glyph glyph-name="j" unicode="j" horiz-adv-x="365" 
d="M373 258c0 -59.333 -13.333 -99.333 -40 -120l-164 -124c-22 -16.667 -54 -25 -96 -25c-13.333 0 -35.333 2.66699 -66 8v103l72 54v381l169 128h125v-405zM350 651h-96v-73zM243 569v76l-141 -107h100zM362 258v387.002l-108 -82v-290
c0 -26.667 -5.33301 -43.334 -16 -50.001v-1l-28 -21v-73c9.33301 -1.33301 18.333 -2 27 -2c46.667 0 79.167 10.167 97.5 30.5s27.5 54.166 27.5 101.499zM243 273.002v281l-33 -25v-304c22 0.666992 33 16.667 33 48zM198 225.002v301h-107v-363l84 65zM198 207.002v7
l-15 1v-20zM198 133.002v59l-15 -12v-48l15 -3v4zM291 120.002c-24 -6 -51.333 -7.33301 -82 -4c-1.33301 -28.667 -6 -51.667 -14 -69zM171 186.002v24l-80 -62c0 -10 -1 -18.333 -3 -25zM197 118.002l-26 4.00098v49l-97 -74v0c-10.667 -8.66699 -29 -11 -55 -7v-83
c20.667 -4 38.667 -6 54 -6c43.333 0 74.5 8.66699 93.5 26s29.167 47.666 30.5 90.999zM78 139.003l-50 -39h15c22 -1.33301 33.667 11.667 35 39z" />
    <glyph glyph-name="k" unicode="k" horiz-adv-x="515" 
d="M530 660l-102 -179l101 -359l-168 -128h-123l-17 63l-84 -63h-126v538l167 128h128v-75l100 75h124zM502 648h-92l-57 -113h1zM390 634l-84 -64v-35h33zM283 648h-96v-73zM294 535v26l-33 -26h33zM333 523h-27v-54zM294 576v66l-107 -82v-128l51 100zM514 131l-99 351
l85 150l-139 -107l-97 -169l10 -34l74 56l2 -8l61 -239h103zM175 566v76l-140 -107h99zM294 448v75h-47l-60 -117v-40zM324 346l-47 -36l7 -23l12 10zM175 408v143l-33 -25v-182zM295 433l-108 -82v-95l77 59l-12 42zM399 127l-57 226l-36 -62v-84l35 -124zM294 249v32
l-7 -6zM175 356v26l-22 -42zM273 280l-6 22l-80 -61v-1l6 -22zM504 119h-96l-64 -49l18 -60zM294 131v75l-17 61l-81 -62l19 -74h79zM175 204v19l-19 -33zM331 75l-25 88v-41l-74 -57l14 -55zM175 246v96l-45 -35v216h-107v-511l107 82v75zM203 131l-16 61v-61h16zM283 119
h-65l10 -41zM350 6l-16 57l-74 -57h90zM175 128v61l-33 -25v-61zM218 70l-12 49h-23l-41 -31v-76zM130 6v73l-95 -73h95z" />
    <glyph glyph-name="l" unicode="l" horiz-adv-x="443" 
d="M457 123l-4 -4l-163 -125h-282v537l4 4l165 125h126v-435h154v-102zM280 648h-96v-73zM172 566v76l-140 -107h99zM291 222v420l-107 -82v-420zM445 131v76l-99 -76h99zM434 213h-135l-107 -82h134zM172 131v420l-33 -25v-420zM434 119h-104l-37 -28v-79zM310 119h-130
l-25 -19h130zM128 94v429h-108v-511zM281 6v82h-142l-107 -82h249z" />
    <glyph glyph-name="m" unicode="m" horiz-adv-x="621" 
d="M615 123l-4 -4l-163 -125h-117v55l-72 -55h-77l-9 45l-58 -45h-99v537l4 4l164 125h166l13 -67l91 67h161v-537zM592 648h-133l-24 -113h8zM445 640l-79 -60l8 -45h49zM440 470v53h-7l-14 -69zM603 131v511l-152 -116v-47l57 43l1 -391h94zM362 535l-7 37l-48 -37h55z
M421 523h-45l17 -89l11 9zM495 497l-44 -33v-168zM328 648h-136v-104zM353 585l-12 59l-149 -115v-21l9 -49l81 63l3 10v0v1zM401 425l-5 -4l2 -11zM383 426l-19 97h-69l-8 -39l30 -158l5 3l11 60zM391 382l-6 31l-41 -30v-36zM497 453l-46 -213v-145l46 33v325zM180 535
l-1 107l-140 -107h141zM440 241v214l-25 -19l-13 -61l-58 -43v-144l11 -57h61zM307 318l-25 129v-149zM270 460v37l-67 -51l31 -161zM332 323l-2 -1l-5 -35l7 -41v77zM270 289v112l-27 -132zM592 119h-87l-54 -39v-68zM313 287l-4 18l-27 -22v-140zM270 131v143l-39 -29
l-38 193l-1 -1v-306h78zM440 86v99l-14 -61l-82 -66v-46zM331 187l-13 71l-38 -180l51 40v69zM403 119h-51l-8 -7v-39zM440 6v65l-85 -65h85zM180 128v300l-62 -47l51 -261zM180 443v64l-3 16h-149v-511l78 59v317zM331 103l-55 -43l-10 -46l65 50v39zM159 112l-41 210v-242
zM258 119h-70l-16 -12l9 -47zM276 118l-93 -71l8 -37l74 57zM261 49l-57 -43h48zM170 52l-9 47l-43 -33v-54zM106 6v50l-67 -50h67z" />
    <glyph glyph-name="n" unicode="n" horiz-adv-x="517" 
d="M511 122l-168 -128h-100l-31 71l-91 -71h-105v537l168 129h109l29 -65l86 65h103v-538zM488 648h-72v-55zM404 584v58l-78 -59l19 -44zM404 403v166l-54 -41zM334 535l-17 41l-54 -41h71zM272 648h-80v-61zM499 131v511l-83 -64v-217h-3l-65 -51v-24l67 -155h84zM403 368
l-55 136v-179zM312 587l-25 58l-95 -73v-181l7 -17l41 31v127l3 3h1zM336 316v207h-84v-109l30 23l53 -121h1zM180 578v64l-141 -107h85zM180 418v145l-47 -36zM325 308l-37 85v-113zM276 271v146l-24 -18v-147zM240 278v112l-36 -28zM404 127l-56 129v-172zM488 119h-75
l-65 -50v-57zM276 131v125l-30 -23l-52 122l-2 -2v-211l5 -11h79zM336 75v208l-6 14l-42 -32v-142l-66 -51l28 -63zM180 170v174l-55 -42zM180 359v29l-58 135h-94v-511l84 64v231zM264 119h-62l15 -36zM336 6v54l-71 -54h71zM180 128v12l-56 128v-183zM208 76l-19 43h-1
l-64 -49v-58zM112 6v55l-73 -55h73z" />
    <glyph glyph-name="o" unicode="o" horiz-adv-x="509" 
d="M533 390c0 -120.667 -25.335 -203 -76.002 -247c-10 -8.66699 -34 -27.334 -72 -56.001c-57.333 -44 -87.666 -67 -90.999 -69c-36 -22.667 -71.333 -34 -106 -34c-122 0 -183 93.667 -183 281c0 126.667 27.667 211.334 83 254.001l160 121
c26.667 20.667 61.334 31 104.001 31c120.667 0 181 -93.667 181 -281zM307.998 544l-29.001 -22.001c6.66699 -4.66699 13.334 -10 20.001 -16c2 16.667 5 29.334 9 38.001zM520.997 389.999c0 179.333 -56.3311 268.998 -168.998 268.998
c-76.667 0 -127.334 -38 -152.001 -114c25.333 -1.33301 48 -7 68 -17l39 32c17.333 12 32.333 18 45 18c21.333 0 36.333 -13.333 45 -40c7.33301 -23.333 11 -86.666 11 -189.999c0 -68.667 -9.33301 -113 -28 -133l-12 -9
c-2.66699 -31.333 -7.33398 -59.666 -14.001 -84.999c111.333 1.33301 167 91 167 269zM351.999 565.997c-23.333 0 -37.333 -23.667 -42 -71c40 -44.667 60 -120 60 -226c0 -15.333 -0.333008 -31 -1 -47c18 9.33301 27 51.333 27 126c0 103.333 -3.66699 165.5 -11 186.5
s-18.333 31.5 -33 31.5zM210.999 597.997l-78 -60.001c16.667 4.66699 35 7.33398 55 8.00098c6 20 13.667 37.333 23 52zM256.999 519.996c-18 8 -38.333 12.333 -61 13c-5.33301 -20.667 -9.33301 -43.667 -12 -69zM357.999 264.996c0 98.667 -16.332 169.667 -48.999 213
c-1.33301 -23.333 -2 -48.666 -2 -75.999v-27c0 -67.333 3.66699 -110.833 11 -130.5s18.666 -29.5 33.999 -29.5l4 1c1.33301 15.333 2 31.666 2 48.999zM346 203.996c-18.667 2.66699 -31.833 15.001 -39.5 37.001s-11.5 71 -11.5 147c0 43.333 1 77.666 3 102.999
c-6.66699 8 -16.334 15.667 -29.001 23l-80 -61c20.667 0 35.334 -13.333 44.001 -40c7.33301 -23.333 11 -87.333 11 -192c0 -22.667 -1 -42 -3 -58c4.66699 -6 13 -12.667 25 -20zM188.001 440.997l-6 0.000976562c-0.666992 -16 -1 -33 -1 -51
c0 -100.667 16.667 -172.334 50 -215.001c0.666992 14 1 30 1 48c0 102.667 -3.5 164.667 -10.5 186s-18.167 32 -33.5 32zM355.001 195.998l-78.001 -59.001c18.667 -9.33301 40.334 -14.666 65.001 -15.999c6 22.667 10.333 47.667 13 75zM402 114.997
c-19.333 -4.66699 -36.333 -6.66602 -51 -5.99902c-6 -18.667 -13.333 -35.334 -22 -50.001c20 13.333 44.333 32 73 56zM229 158.998c-40 44 -59.999 121.001 -59.999 231.001c0 16 0.333008 31.333 1 46c-18 -12.667 -27 -70.334 -27 -173.001
c0 -76 3.66699 -123.833 11 -143.5s18.666 -29.5 33.999 -29.5c21.333 0 35 23 41 69zM339.001 109.999c-27.333 1.33301 -51.333 7.66895 -72 19.002l-51 -39c-10 -8 -19.333 -12 -28 -12c-21.333 0 -36.666 12.667 -45.999 38c-7.33301 21.333 -11 70.333 -11 147
c0 82 3.83301 132.667 11.5 152s17.167 32.666 28.5 39.999c2.66699 29.333 7 55.666 13 78.999c-111.333 -2 -167 -91.667 -167 -269c0 -179.333 57 -269 171 -269c75.333 0 125.666 38 150.999 114zM256.001 135.002l-17 13c-2 -12 -4.66699 -22.333 -8 -31z" />
    <glyph glyph-name="p" unicode="p" horiz-adv-x="472" 
d="M505 494c0 -60 -15.667 -102 -47 -126l-160 -123l-1 1v-124l-167 -128h-128v537l168 129h155c120 0 180 -55.333 180 -166zM373 497c0 40 -21 60 -63 60h-12v-64c14 -12 25.333 -30.667 34 -56c27.333 6 41 26 41 60zM494 494
c0 102.667 -56.334 154.001 -169.001 154.001h-147v-114c20.667 -0.666992 39.334 -3.33398 56.001 -8.00098c12 10 30.667 24.333 56 43h2c32 0 54.333 -3.66699 67 -11c17.333 -10.667 26 -31 26 -61c0 -34 -16 -60.333 -48 -79c4.66699 -23.333 5.66699 -48 3 -74
c102.667 2 154 52 154 150zM285.999 502.001v49.001l-38 -29c14 -4.66699 26.667 -11.334 38 -20.001zM319.999 435.002c-5.33301 15.333 -12.667 28.667 -22 40v-41h7zM221.998 517.003c-12.667 3.33301 -27.333 5.33301 -44 6v-39zM165.999 535.003v107l-140 -107h140z
M285.999 431.003v56c-14 12 -30.667 21 -50 27l-58 -45v-29c26 -7.33301 40 -27 42 -59zM402.999 341.003c-19.333 -6 -40.667 -9 -64 -9c-3.33301 -20 -9.33301 -38 -18 -54zM322.998 423.003c-6 -0.666992 -15.667 -1.00098 -29 -1.00098l-73 -55
c-0.666992 -9.33301 -2 -17.666 -4 -24.999zM326.998 332.002h-3h-27v-68c15.333 18 25.333 40.667 30 68zM165.998 442.002v18l-21 -16c7.33301 0 14.333 -0.666992 21 -2zM208.998 373.002c0 29.333 -10.333 47.333 -31 54v-78zM207.998 357.002l-30 -23v-19
c17.333 6.66699 27.333 20.667 30 42zM165.998 340.002v90c-6.66699 1.33301 -13 2 -19 2h-13v-117zM165.998 311.002v13.999l-20 -16c7.33301 0.666992 14 1.33398 20 2.00098zM284.998 131.001l0.000976562 107c-26.667 -20 -62.334 -30.667 -107.001 -32v-75h107z
M165.999 128.001v78h-7h-26v-103zM273.999 119.001h-100l-41 -31v-76zM120.999 6.00098v73l-95 -73h95zM177.999 261.001l107 83l7 -1h36c1.33301 9.33301 2 18 2 26c0 15.333 -1 29 -3 41l-73 -57c-40 -30.667 -65.333 -47.667 -76 -51v-41zM120.999 218.001l45 34v47
c-8.66699 -1.33301 -17 -2 -25 -2h-19v145l44 33v48h-4h-148v-511l107 82v124zM165.999 237.001l-25 -19h25v19zM284.999 329.001l-107 -83v-28c46 1.33301 81.667 13 107 35v76z" />
    <glyph glyph-name="q" unicode="q" horiz-adv-x="552" 
d="M536 391c0 -113.333 -21.999 -192.333 -65.999 -237c9.33301 -16 29.666 -24 60.999 -24v-105c-4 -2 -32.333 -23.333 -85 -64s-80 -62 -82 -64c-4 -0.666992 -9.66699 -1 -17 -1c-71.333 0 -115.333 30.333 -132 91c-10 -1.33301 -20.333 -2 -31 -2
c-118 0 -177 93.667 -177 281c0 56.667 4 101.667 12 135c12.667 50 35.667 88 69 114l168 129c23.333 18 56 27 98 27c121.333 0 182 -93.333 182 -280zM311.001 547l-32 -23.999c8 -4.66699 15.667 -10.334 23 -17.001c2 18 5 31.667 9 41zM354.001 567.001
c-23.333 0 -37.333 -23.999 -42 -71.999c40 -44 60 -119 60 -225c0 -14.667 -0.333008 -30.334 -1 -47.001c18 9.33301 27 51.333 27 126c0 103.333 -3.5 165.5 -10.5 186.5s-18.167 31.5 -33.5 31.5zM524.001 391.002c0 178.667 -56.6631 268 -169.996 268
c-76.667 0 -127.334 -38 -152.001 -114c24.667 -1.33301 46.667 -6.66602 66 -15.999l52 40c9.33301 6.66699 20.666 10 33.999 10c21.333 0 36.333 -13.333 45 -40c7.33301 -24 11 -93.667 11 -209c0 -64 -9 -103 -27 -117l-13 -11
c-2.66699 -30 -7.33398 -56.667 -14.001 -80c11.333 0.666992 21.666 1.66699 30.999 3c1.33301 -4 3 -9.33301 5 -16l66 51c5.33301 4 12 11.667 20 23c30.667 43.333 46 112.666 46 207.999zM190.005 546.002c5.33301 17.333 11.999 33 19.999 47l-67 -53
c14.667 3.33301 30.334 5.33301 47.001 6zM257.004 521.002c-17.333 7.33301 -37 11.333 -59 12c-5.33301 -20 -9.33301 -42 -12 -66zM360.004 266.002c0 98.667 -16.333 169.334 -49 212.001c-1.33301 -22.667 -2 -47.667 -2 -75v-27c0 -67.333 3.66699 -110.833 11 -130.5
s18.666 -29.5 33.999 -29.5c0.666992 0 2.33398 0.333008 5.00098 1c0.666992 15.333 1 31.666 1 48.999zM353.004 205.002c-20.667 0 -35.668 12.334 -45.001 37.001c-7.33301 22 -11 71 -11 147c0 42.667 1 76.667 3 102c-6.66699 8.66699 -17 16.667 -31 24l-79 -61
c21.333 0 36.333 -13.333 45 -40c6.66699 -20 10.334 -72.667 11.001 -158v-34c0 -22.667 -0.666992 -42.334 -2 -59.001c4.66699 -6.66699 13.667 -14 27 -22zM508.003 119.003c-21.333 2 -37 11 -47 27l-65 -49c7.33301 -17.333 17.333 -31 30 -41zM519.003 33.0029
l0.000976562 79l-83 -63c17.333 -10.667 39.666 -16 66.999 -16h16zM190.004 442.003c-2 0 -4.00098 -0.332031 -6.00098 -0.999023c-0.666992 -15.333 -1 -32 -1 -50c0 -99.333 16.667 -171 50 -215c1.33301 13.333 2 29 2 47c0 103.333 -3.66699 165.666 -11 186.999
s-18.666 32 -33.999 32zM357.003 192.004l-75 -57c18 -8.66699 38.667 -13 62 -13c6 20.667 10.333 44 13 70zM362.003 110.004h-9l-4 -10zM231.003 159.004c-40 46 -60 123.334 -60 232.001c0 16 0.333008 31.333 1 46c-18 -12.667 -27 -70.334 -27 -173.001
c0 -76 3.66699 -123.833 11 -143.5s19 -29.5 35 -29.5c20.667 0 34 22.667 40 68zM340.003 110.005c-26 0.666992 -49 6.33105 -69 16.998l-52 -40c-6.66699 -5.33301 -16 -8 -28 -8c-22 0 -37.333 12.667 -46 38c-8 22 -12 71 -12 147c0 79.333 4 130 12 152
c6 17.333 15.667 31 29 41c2 28.667 6 54.334 12 77.001c-66.667 -1.33301 -113 -31.666 -139 -90.999c-18.667 -41.333 -28 -100.333 -28 -177c0 -180 55 -270 165 -270c12 0 23 1 33 3l114 87c3.33301 8 6.33301 16 9 24zM382.003 101.002l-1.99902 8l-40 -31
c-2.66699 -5.33301 -5.33398 -10.333 -8.00098 -15zM506.004 21.002h-3c-30 -0.666992 -55.667 6 -77 20l-59 -45v-81zM416.004 48.002c-12 10.667 -21.667 24.667 -29 42l-81 -62c9.33301 -15.333 27 -23.333 53 -24zM260.004 134.002c-6 4 -12.333 8.66699 -19 14
c-2 -14.667 -5.33301 -27 -10 -37zM355.004 -91.998l0.000976562 84.998c-30.667 0.666992 -52 13.334 -64 38.001c9.33301 8.66699 17.666 18.334 24.999 29.001l-90 -69c15.333 -55.333 53 -83 113 -83h16z" />
    <glyph glyph-name="r" unicode="r" horiz-adv-x="518" 
d="M516 122l-167 -128h-124l-13 54l-71 -54h-128v538l168 128h162c114.667 0 172 -51 172 -153c0 -60.667 -23.667 -104 -71 -130c4 -13.333 28 -98.333 72 -255zM385 499c0 40 -20.333 60 -61 60h-15v-65c14.667 -12 26 -30 34 -54c28 5.33301 42 25 42 59zM503 507
c0 94 -53.334 140.999 -160.001 140.999h-154v-113c12 -1.33301 30.333 -4 55 -8c18 13.333 36.333 28 55 44h4c32.667 0 55.334 -3.66699 68.001 -11c17.333 -10 26 -30.333 26 -61c0 -21.333 -3.33301 -36.666 -10 -45.999c-3.33301 -4 -16 -14.667 -38 -32
c2 -10 3 -23.333 3 -40c0 -14 -1.66699 -27.333 -5 -40l5 -19l78 60v0c0.666992 0.666992 2 1.66699 4 3c46 25.333 69 66 69 122zM296.999 503.999v49l-38 -30c14 -4.66699 26.667 -11 38 -19zM330.999 437.999c-4.66699 14 -12 27 -22 39v-39h10h12zM231.999 517.999
c-8.66699 2 -23 3.66699 -43 5v-38zM176.999 534.999v107l-141 -107h141zM296.999 434.999v54.001c-14 11.333 -30.667 19.666 -50 24.999l-58 -44v-28c26 -6.66699 40.333 -25.667 43 -57zM502.999 131l-69 238l-79 -60l44 -178h104zM333.999 426
c0.666992 0 -4.33301 0.000976562 -15 0.000976562h-14l-72 -55c0 -10.667 -1 -19.334 -3 -26.001zM319.999 349.001h-12v-9zM341.999 314.001l-1 4l-4 -8zM334.999 341.001l-1 4l-26 -20v-36c13.333 14.667 22.333 32 27 52zM176.999 444.001v17l-21 -16
c8 0 15 -0.333008 21 -1zM339.999 381.001c0 13.333 -0.666992 23.665 -2 30.998l-71 -56c-42 -31.333 -68 -48.666 -78 -51.999v-28c26 18 63 46.333 111 85h39c0.666992 6.66699 1 13.334 1 20.001zM220.999 377c-0.666992 28.667 -11.333 46.333 -32 53v-78zM221 360.999
l-32.001 -24v-20c18.667 6 29.334 20.667 32.001 44zM386.999 126.999l-42.001 174c-9.33301 -6 -21.666 -16 -36.999 -30v-117c0 -1.33301 7 -25 21 -71zM295.998 330.999v12l-107 -82v-12zM176.998 342.999v89c-5.33301 0.666992 -10.333 1 -15 1h-17v-115z
M295.998 194.999v67l-16 -11zM176.998 313.999l-0.000976562 14l-20 -16c6.66699 0 13.334 0.666992 20.001 2zM492.997 118.999h-97l-64 -49l18 -60zM295.997 130.999c0.666992 13.333 0.666992 20.333 0 21l-30 105l30 22v37l-107 -82v-40l15 -63h92zM176.997 239.999v12
l-21 -16h16zM176.997 266.999v35c-8 -1.33301 -15.333 -2 -22 -2h-22v142l44 34v47h-152v-511l108 82v139zM284.997 118.999h-78l12 -50zM318.997 74.999l-13 44h-2l-82 -63l12 -46zM191.997 130.999l-3 13v-13h3zM338.997 5.99902l-17 57l-74 -57h91zM176.997 127.999v65
l-8 31h-25v-121zM208.997 60.999l-14 58h-10l-41 -31v-76zM132.997 5.99902v73l-97 -73h97z" />
    <glyph glyph-name="s" unicode="s" horiz-adv-x="489" 
d="M508 275c0 -55.333 -24.665 -102 -73.998 -140l-141 -107c-38 -30 -78.333 -45 -121 -45c-48.667 0 -87.5 14.333 -116.5 43s-46.5 68 -52.5 118l111 85c-64.667 43.333 -97 95 -97 155c0 55.333 21.333 99.333 64 132l123 99c52 37.333 98.333 56 139 56
c41.333 0 74.666 -13 99.999 -39c22 -22.667 40.333 -58.334 55 -107.001l-106 -80c37.333 -24.667 64.666 -48 81.999 -70c22.667 -29.333 34 -62.666 34 -99.999zM343.002 659c-36.667 0 -68.3311 -10.333 -94.998 -31s-43.667 -48.667 -51 -84
c20 -2 38.667 -7.33301 56 -16c13.333 10.667 27 21 41 31c18 13.333 32.667 20 44 20c23.333 0 42.666 -23.333 57.999 -70l89 18l-2 6c-14.667 42.667 -30.334 73 -47.001 91c-22.667 23.333 -53.667 35 -93 35zM457.005 509l-63 -12l-38 -29l25 -17zM385.005 505
c-13.333 41.333 -29 62 -47 62c-21.333 0 -32 -11.333 -32 -34c0 -18.667 13.333 -38 40 -58zM336.005 468c-28 20.667 -42 41.999 -42 63.999c0 4.66699 0.333008 9 1 13l-31 -24c24 -15.333 42 -37.666 54 -66.999zM371.005 443.999l-25 16l-23 -18
c3.33301 -9.33301 6 -19 8 -29zM185.005 544.999c3.33301 18 9.33301 34.667 18 50l-74 -57c19.333 6 38 8.33301 56 7zM242.005 519.999c-14 6.66699 -29.667 10.667 -47 12c-1.33301 -8 -2 -15.667 -2 -23c0 -8 0.666992 -16.667 2 -26zM308.005 445.999
c-12 30.667 -30 53.333 -54 68l-56 -43c6.66699 -28 21.667 -53 45 -75zM313.005 434.998l-61 -47v0l69 14c-1.33301 7.33301 -4 18.333 -8 33zM496.005 274.998c0 36.667 -11.334 68.668 -34.001 96.001c-16 20 -42.667 42 -80 66l-58 -46
c-1.33301 -0.666992 -21.333 -5 -60 -13l80 -52c33.333 -24.667 50 -48.334 50 -71.001c0 -16 -5.66699 -29.667 -17 -41c-0.666992 -0.666992 -13 -10.334 -37 -29.001c4.66699 -20 5.33398 -41.333 2.00098 -64c39.333 0.666992 71 11.334 95 32.001l1 -1
c38.667 29.333 58 70.333 58 123zM192.004 450.999l-4.00098 12l-13 -10c6.66699 0 12.334 -0.666992 17.001 -2zM234.003 388.999l-6 6l3 -8zM382.003 254.999c0 19.333 -17.667 41.667 -53 67l-80 53l-25 -5c-12 48 -28.333 72 -49 72c-22 0 -33 -11.667 -33 -35
c0 -18.667 16.333 -40 49 -64l75 -50l14 2l3 -16c22.667 -20 39 -41.667 49 -65l8 -1c28 0 42 14 42 42zM316.003 219c-6.66699 13.333 -15.667 26.001 -27 38.001c6 -18.667 15 -31.334 27 -38.001zM341.003 201.001h-5l1 -3zM251.003 289.001l-75 50.001
c-30.667 23.333 -46 46 -46 68c0 14 6.33301 27.333 19 40c3.33301 3.33301 15 12.666 35 27.999c-3.33301 18.667 -3.66602 38 -0.999023 58h-4c-42.667 3.33301 -78.334 -9.5 -107.001 -38.5s-43 -65.833 -43 -110.5c0 -56.667 31.333 -106 94 -148l48 36v0z
M251.003 277.002l-71 -15c2 -7.33301 4.66699 -18.333 8 -33zM327.003 190.002l-4 13.001c-26 7.33301 -43 30.666 -51 69.999l-4 3l-76 -58c14 -37.333 36.333 -64 67 -80zM332.003 150.003c0 8.66699 -0.666992 17.668 -2 27.001l-59 -45
c17.333 -6.66699 37 -10.334 59 -11.001c1.33301 10 2 19.667 2 29zM389.003 116.004c-15.333 -4.66699 -31.667 -7 -49 -7c-4 -16 -9.66699 -30.667 -17 -44zM178.002 222.004c-2 6.66699 -5 18.333 -9 35l-35 -27l30 -19zM191.002 191.003c-3.33301 6.66699 -6 13 -8 19
l-9 -6zM249.002 130.003c-7.33301 4 -14.333 9 -21 15c2.66699 -9.33301 3 -19.333 1 -30zM218.002 130.003c0 20 -18 42 -54 66l-46 -35c8 -49.333 27.333 -74 58 -74c28 0 42 14.333 42 43zM154.002 203.003l-30 19l-90 -69l75 16zM327.002 109.003
c-25.333 1.33301 -47.668 6.33301 -67.001 15l-39 -31c-16.667 -12 -31.667 -18 -45 -18c-37.333 0 -60.666 27 -69.999 81l-90 -19c18 -94.667 70 -142 156 -142c40 0 74 10.667 102 32v0c27.333 20.667 45 48 53 82z" />
    <glyph glyph-name="t" unicode="t" horiz-adv-x="459" 
d="M492 562l-4 -3l-93 -71v-358l-4 -6l-165 -125h-126v435h-98v102l169 129h321v-103zM480 571v76l-152 -116v-4l60 44h92zM469 559h-74v-56zM469 653h-291v-82h98v-31h44zM383 494v59l-55 -41v-60zM316 518v10h-40v-42zM264 540v13l-18 -13h18zM316 446v57l-40 -32v-25h40z
M252 559h-78l-26 -19h79zM264 446v16l-22 -16h22zM166 568v79l-141 -107h104zM383 136v343l-59 -45h-48v-298h107zM211 528h-78l-108 -82h79zM113 528h-99v-76zM264 133v301h-33v-326zM264 477v51h-33l-119 -91v-420l107 82v343zM371 124h-99l-41 -31v-76zM219 11v73
l-96 -73h96z" />
    <glyph glyph-name="u" unicode="u" horiz-adv-x="488" 
d="M499 259c0 -51.333 -14.332 -87.999 -42.999 -109.999c0 -1.33301 -54.333 -43 -163 -125c-32.667 -25.333 -71.334 -38 -116.001 -38c-50.667 0 -90 12 -118 36c-30.667 25.333 -46 62.666 -46 111.999v401l167 128h128v-62l80 62h111v-404zM476.001 651.001h-79v-60z
M385.001 582.001v63l-77 -59v-48h19zM284.001 651.001h-95v-73zM296.001 538.001v39l-51 -39h51zM487.001 259.001l0.000976562 386l-90 -69v-306c0 -23.333 -5.33301 -40.666 -16 -51.999l-46 -34v-60h5c45.333 -2 81.166 8.66699 107.499 32s39.5 57.666 39.5 102.999z
M385.002 270.001v297l-50 -38v-310l12 -1c10 0 18 2.66699 24 8c9.33301 8 14 22.667 14 44zM177.002 569.001v76l-141 -107h100zM323.002 224.001v301.999h-15v-256c0 -23.333 5 -38.666 15 -45.999zM296.002 592v53l-107 -82v-304c0 -40 10.667 -71.333 32 -94v370z
M323.002 189l0.000976562 22c-18 8 -27 27.667 -27 59v256h-63v-372c7.33301 -6 15.666 -11 24.999 -15zM345.003 206l-10 1v-8zM221.003 148c-29.333 25.333 -44 62.333 -44 111v295l-33 -25v-384c0 -34.667 13 -52 39 -52c25.333 0 38 18.333 38 55zM399.003 119
c-21.333 -6 -43 -8.33301 -65 -7c-2 -20.667 -7 -38.667 -15 -54zM323.003 134l0.000976562 39.999l-52 -40c15.333 -5.33301 32.666 -8.66602 51.999 -9.99902v10zM322.004 111.999c-23.333 2 -43.999 6.66699 -61.999 14l-36 -29c-14.667 -10.667 -28.334 -16 -41.001 -16
c-34 0 -51 21.333 -51 64v381h-107v-392c0 -90.667 50.667 -136 152 -136c88.667 0 137 38 145 114zM247.005 130.999l-14 8c0 -8 -0.666992 -14.667 -2 -20z" />
    <glyph glyph-name="v" unicode="v" horiz-adv-x="484" 
d="M519 663l-108 -536l-168 -130h-132l-1 4l-107 534l4 3l165 125h123l13 -79l104 79h107zM494 651h-75l-12 -66zM405 643l-94 -72l5 -33h29l48 36zM273 651h-93l13 -61zM304 538l-4 25l-33 -25h37zM340 526h-22l10 -60zM390 557l-37 -28l-19 -96l17 -102zM298 576l-12 71
l-91 -70l30 -150l18 107zM502 643l-98 -75l-48 -273l-60 -47l-17 -87l5 -27h116zM182 582l-13 65l-142 -109h97zM322 433l-16 93h-51l-23 -131l32 -158l22 17zM344 299l-17 101l-27 -135zM220 395l-35 174l-52 -39l54 -324zM253 229l-27 134l-31 -178zM282 237l-16 -13
l7 -33zM267 161l-11 55l-73 -56l-62 366h-104l103 -513l139 106zM388 122h-106l-13 -9l-19 -96zM255 102l-122 -93h103z" />
    <glyph glyph-name="w" unicode="w" horiz-adv-x="648" 
d="M689 663l-99 -538l-168 -128h-109l-12 73l-96 -73h-111l-90 538l170 128h118l8 -62l82 62h113l11 -63l82 63h101zM664 651h-69l-9 -59zM582 644l-74 -57l8 -49l56 43zM472 651h-84l-13 -74zM504 538l-7 41l-53 -41h60zM570 564l-47 -35l-3 -15l23 -126zM495 592l-9 55
l-114 -87l-22 -126l63 48l9 55zM673 643l-90 -68l-21 -137l-15 -108l-70 -54l-7 -36l17 -106h93zM375 643l-73 -55l7 -50h15l37 29zM537 337l-23 143l-34 -187zM508 514l-2 12h-75l-5 -36l8 6l30 -215l2 2zM358 549l-26 -19l11 -65zM270 651h-88l10 -59zM297 538l-6 41
l-54 -41h60zM290 593l-7 53l-89 -67l14 -81l7 39zM337 431l-16 95h-11l15 -111l11 8zM453 273l-25 158l-38 -206zM410 465l-59 -45l28 -157zM332 405l-5 -4l2 -14zM181 584l-10 63l-142 -109h92zM314 407l-16 119h-73l-12 -63l31 -185l3 2l12 81l2 5zM322 337l-6 56l-45 -35
l6 -55zM475 131l-11 73l-18 -96zM375 209h-1l-31 189l-9 -64l-2 -4l-53 -41l24 -155h59zM201 463l-18 108l-53 -42l35 -267zM567 122h-83l-41 -31l-13 -74zM266 294l-2 11l-2 -14zM234 270l-27 158l-36 -206zM458 240l-3 19l-68 -52l-15 -82l-60 -46l10 -66l110 84zM291 134
l-23 147l-10 -8l-7 -36l17 -103h23zM349 122h-44l5 -30zM429 80l-93 -71h80zM239 237l-3 19l-76 -58l-42 328h-100l86 -513l110 85zM257 130l-12 72l-17 -93zM299 84l-6 38h-28l-40 -31l-13 -74zM211 81l-94 -72h81z" />
    <glyph glyph-name="x" unicode="x" horiz-adv-x="513" 
d="M528 126l-168 -129h-127l-26 67l-85 -65l-1 -2h-116l119 268l-110 270l169 128h129l21 -59l77 59h116l-114 -253zM499 651h-83l-38 -92zM398 639l-60 -46l18 -51l5 4zM345 538l-17 47l-62 -47h79zM290 651h-96l23 -55zM324 597l-19 51l-83 -64l21 -51l2 5h2zM501 638
l-130 -100l-10 -31l-20 -16l-43 -94l3 -7l-35 -80l134 104zM344 526h-91l-4 -8l25 -63l57 44zM321 476l-42 -32l13 -32zM207 588l-24 60l-144 -110h103zM236 518l-24 59l-61 -47l43 -119zM265 448l-23 54l-39 -101zM512 134l-109 266l-148 -112l-4 -11l17 -42l79 60l58 -161
h107zM285 397l-16 40l-77 -59l-52 148h-110l103 -252l148 113zM332 269l-59 -45l21 -51zM393 130l-50 134l-43 -106l31 -76zM503 122h-101l-67 -51l25 -59zM258 227l-14 35l-31 -69zM287 158l-24 58l-60 -46l-12 -27l2 -9h84zM321 75l-28 67l-7 -16l-2 -3l-1 -1l-67 -51
l23 -59zM271 364l-135 -103l-107 -239l131 100l16 43l17 13l45 99l-3 8zM348 9l-22 54l-72 -54h94zM263 122h-65l14 -39zM202 75l-17 47h-5l-10 -7l-39 -94zM152 101l-121 -92h82z" />
    <glyph glyph-name="y" unicode="y" horiz-adv-x="497" 
d="M532 663l-129 -321v-216l-168 -129h-127v215l-110 323l5 3l164 125h128l23 -78l102 78h112zM506 651h-80l-30 -83zM410 640l-89 -67l10 -35h27l21 16zM371 534l-7 -6l-17 -44l3 -10zM351 526h-16l6 -23zM510 640l-121 -93l-34 -94l-31 -25l-40 -99v-65l108 83zM319 538
l-8 27l-35 -27h43zM273 651h-96l20 -58zM308 577l-21 70l-86 -66l34 -98l18 52zM342 457l-2 10l-7 -17zM334 485l-12 41h-59l-22 -61l25 -67l48 38zM187 585l-22 63l-143 -110h103zM306 414l-36 -27l11 -35zM228 466l-37 108l-57 -44l52 -181zM256 391l-22 57l-36 -102z
M391 134v197l-107 -82v-115h107zM273 300l-26 -65l26 20v45zM271 341l-11 38l-79 -60l-1 9l-58 198h-109l105 -302zM273 240l-34 -25v-109l34 25v109zM379 122h-99l-41 -31v-76zM270 325l-150 -114v-196l107 82v122zM227 9v73l-95 -73h95z" />
    <glyph glyph-name="z" unicode="z" horiz-adv-x="486" 
d="M491 591l-1 -1l-155 -362h155v-103l-3 -3l-166 -125h-306v76l156 359h-137v103l4 3l163 125h290v-72zM479 595v50l-140 -107l-12 -28v-31zM467 651h-258v-81h152zM326 558h-121l-26 -20h121zM197 567v78l-140 -107h103zM470 574l-144 -111l-136 -316v-13h11l120 92z
M285 526h-121l-107 -82h121zM479 134v76l-100 -76h100zM144 526h-98v-76zM315 468v15l-125 -289v-17zM467 216h-139l-108 -82h139zM315 513v13h-11l-119 -91l-150 -346l144 110zM467 122h-104l-36 -28v-79zM344 122h-139l-25 -19h139zM315 9v82h-171l-106 -82h277zM178 150
v34l-152 -117v-52l140 107z" />
    <glyph glyph-name="braceleft" unicode="{" horiz-adv-x="582" 
d="M532 221v315h-313l-169 -129v-315h6h308zM225 230l1 168h131v-168h-132zM368 401l152 116v-287h-152v171zM361 410h-135v114h283zM214 410h-141l141 108v-108zM214 398v-171l-152 -117v289zM222 218h135v-114h-284zM368 218h141l-140 -108z" />
    <glyph glyph-name="bar" unicode="|" horiz-adv-x="359" 
d="M309 3l-4 -4l-165 -125h-90v755l4 3l165 126h90v-755zM286 746h-60v-46zM214 691v49l-141 -108h64zM297 11v729l-71 -55v-674h71zM214 8v668l-69 -53v-667zM133 -53v673h-71v-728zM286 -1h-64l-77 -58v-49zM133 -114v46l-60 -46h60z" />
    <glyph glyph-name="braceright" unicode="}" horiz-adv-x="432" 
d="M382 271v215h-213l-119 -79v-215h6h208zM175 280l1 118h80l1 -118h-82zM268 401l102 66v-187h-102v121zM261 410h-85v64h183zM164 410h-91l91 58v-58zM164 398v-121l-102 -67v189zM172 268h85l-1 -64h-183zM268 268h91l-90 -58z" />
    <glyph glyph-name="asciitilde" unicode="~" horiz-adv-x="638" 
d="M663 327l-2.99902 -2l-164 -125c-45.333 -34 -92 -51 -140 -51c-24.667 0 -60.5 8 -107.5 24s-83.167 24 -108.5 24c-37.333 0 -85.666 -21.333 -144.999 -64v104l2 1l146 113c59.333 44 114.666 66 165.999 66c25.333 0 61 -8 107 -24s81 -24 105 -24
c39.333 0 86.666 20.333 141.999 61v-103zM651.001 333l-0.000976562 73l-152 -116v-2c8.66699 -1.33301 15.667 -2 21 -2c40.667 0 84.334 15.667 131.001 47zM594 289c-32 -12 -63.667 -16.333 -95 -13v-59zM583 369c-21.333 -8 -42 -12 -62 -12c-24 0 -59 8 -105 24
s-81.667 24 -107 24c-41.333 0 -87.666 -16.667 -138.999 -50v-65l10 -2c46.667 30.667 88 46 124 46c24 0 53.667 -5.66699 89 -17c47.333 -15.333 76.333 -24 87 -26c3.33301 2 37.666 28 102.999 78zM466 282c-2 0 -28.667 8.33301 -80 25c-32 10 -59.333 15 -82 15
c-31.333 0 -67 -12.333 -107 -37c8 -2 34.667 -10.333 80 -25c32 -10.667 58.667 -16 80 -16c34 0 70.333 12.667 109 38zM487 208l-0.000976562 68.999l-4 1c-45.333 -30.667 -87.333 -46 -126 -46c-22.667 0 -51.667 6 -87 18c-44.667 14.667 -73.667 23.334 -87 26.001
c-7.33301 -4.66699 -43 -31.667 -107 -81c22.667 9.33301 44 14 64 14c25.333 0 61.5 -8 108.5 -24s82.833 -24 107.5 -24c40.667 0 84.334 15.667 131.001 47zM157.999 290.999v56l-95 -73c32 13.333 63.667 19 95 17zM157.999 272.999v6.00098l-13 1
c-38.667 1.33301 -85 -15.334 -139 -50.001v-73z" />
    <glyph glyph-name="nonbreakingspace" unicode="&#xa0;" horiz-adv-x="259" 
 />
    <glyph glyph-name="exclamdown" unicode="&#xa1;" horiz-adv-x="312" 
d="M14 -3l29 368l3 2l55 43h-80v126l4 3l166 125h120v-127l-4 -2l-55 -42h36l28 -368l-5 -3l-165 -125h-132zM38 9h101l-5 73zM28 15l105 81l-20 260h-59zM145 90l6 -76l141 108h-105zM125 359l19 -255l35 27l22 286zM44 421h73l18 14v56zM66 367h51l85 66l2 23l-63 -46h-20
zM191 134h112l-26 341l-63 -48zM33 527v-100l102 79v21h-102zM147 429v-2l58 45v2zM215 442l50 39h-29l-19 -15zM147 530v-15l38 29v15zM147 500v-56l59 46l6 3v0h20l55 42h-94zM44 539h95l46 35v72zM196 568v-21h103v99zM196 652v-69l91 69h-91z" />
    <glyph glyph-name="cent" unicode="&#xa2;" horiz-adv-x="426" 
d="M445 274c-2.66699 -44 -14.333 -80.333 -35 -109c-23.333 -32.667 -54 -49 -92 -49c-10 0 -20.333 1 -31 3l-15 -67l-170 -129v-1l-46 3l20 87c-50.667 31.333 -76 89.666 -76 174.999c0 86 25 148 75 186l154 118c14 10.667 30.667 18.334 50 23.001l62 49l53 -6
l-13 -54c39.333 -24.667 60 -71 62 -139c-1.33301 -0.666992 -51.333 -39 -150 -115l2 -13l58 45zM371.001 548l-21 2l-6 -23zM336.001 542l-32.001 -23.999c8.66699 1.33301 17.334 1.66602 26.001 0.999023zM431 373.001c-2 58 -20.999 98 -56.999 120l-59 -46
c23.333 0 35.666 -25.333 36.999 -76zM377.001 537.001l-149 -114l-8 -33l149 114zM319.001 507.001c-12 0 -23.667 -1.33301 -35 -4l-79 -61l-4 -7l20 -2zM340.001 368.001c-0.666992 41.333 -9 63.667 -25 67l-7 -2c-14 -9.33301 -21 -37.333 -21 -84v-22z
M419.001 361.002l-71 -1.99902l-61 -47c0.666992 -18.667 1.66699 -35.334 3 -50.001zM282.001 413.003l-55.001 -42c18.667 -14.667 32.334 -34 41.001 -58l7 5v20c0 34 2.33301 59 7 75zM215 421.003l-19 3c-10 -22.667 -16.333 -48 -19 -76l25 19l1 5zM349 263.003
l-50 -38c5.33301 -13.333 12 -20 20 -20c18 0 28 19.333 30 58zM176 436.003l-62 -48c16 4.66699 33.333 6.66699 52 6zM280 254.003c-2.66699 14 -3.99902 30.333 -3.99902 49l-4 -2c3.33301 -16 5.66602 -32 6.99902 -48zM432.001 255.003l-151 -115l-1 -7
c10 -3.33301 19.667 -5 29 -5c71.333 0 112.333 42.333 123 127zM423.001 264.003l-61.998 5c-1.33301 -50.667 -15.333 -76 -42 -76c-12.667 0 -22.334 8 -29.001 24l-67 -51c5.33301 -5.33301 10.666 -10 15.999 -14l34 -3zM258.003 305.003
c-7.33301 24.667 -20.999 44 -40.999 58l-41 -31l-1 -20v-7c7.33301 -12 11.666 -30 12.999 -54zM267.004 247.003c-0.666992 16.667 -2.66699 32 -6 46l-61 -47zM164.004 323.003l-4 -4l4 -2v6zM285.004 229.003l-3 12.001c-2 -2 -4.66699 -3.66699 -8 -5l-89 -2
c6.66699 -22.667 16.667 -42.334 30 -59.001zM268.004 138.004l-16 1l-8 -35l22 17zM218.004 154.004l-5 5l-5 -5h10zM205.004 168.004c-26 32 -39.667 76.3311 -41 132.998c-2.66699 4.66699 -7 7.33398 -13 8.00098c-18.667 -3.33301 -28 -31.666 -28 -84.999v-30
c0 -72 10.667 -110.333 32 -115l3 1l18 13c6.66699 13.333 10 33.333 10 60c2.66699 2 9 7 19 15zM236.004 140.002h-0.999023l-37 3c-0.666992 -13.333 -2.33398 -25.333 -5.00098 -36zM263.005 103.002l-23 -18l-6 -23l13 -1c6.66699 12 12 26 16 42zM264.005 68.002
l-4 -8h2zM170.005 382.002h-9c-52.667 1.33301 -92 -18.667 -118 -60c-21.333 -34 -32 -79 -32 -135c0 -81.333 23.667 -136.333 71 -165l63 48c-22.667 12.667 -34 57 -34 133c0 66.667 9.33301 105 28 115v1l25 19c1.33301 15.333 3.33301 30 6 44zM240.005 49.002l-11 1
l-59 -45c30.667 5.33301 54 20 70 44zM225.005 74.002l-92 -70l13 -1h2l74 56zM237.005 125.002l-148.999 -114l-15 -66l33 26c2 7.33301 4.66699 18.333 8 33c15.333 9.33301 34.666 23.333 57.999 42l57 46zM133.006 -7.99805l-10 1l-2 -11zM178.006 -4.99805
c-8 -2 -16.667 -3.33301 -26 -4l-35 -27l-4 -19zM102.006 -46.998l-23 -17l19 -2z" />
    <glyph glyph-name="sterling" unicode="&#xa3;" horiz-adv-x="482" 
d="M515 217c-16 -33.333 -39.333 -61.999 -70 -85.999l-133 -102c-30 -22.667 -56 -34 -78 -34c-14 0 -33.5 4.66699 -58.5 14s-44.167 14 -57.5 14c-9.33301 0 -25.333 -4.66699 -48 -14c-27.333 -10.667 -44 -17 -50 -19l-12 96h4l86 66c0.666992 5.33301 1 11 1 17
c0 17.333 -6.66699 45 -20 83h-78v53l49 37c-5.33301 20.667 -8 39.667 -8 57c0 50.667 16.667 90.334 50 119.001c6 3.33301 14.333 9 25 17l129 98c23.333 18 40.666 29.667 51.999 35c16 7.33301 36.667 11 62 11c78.667 0 126.334 -49.667 143.001 -149l-5 -1l-125 -95
h71v-6v-47l-84 -65c-3.33301 -34.667 -13 -63.334 -29 -86.001c12 -2.66699 30.667 -5.33398 56 -8.00098l69 55zM489 540.001c-16 84.667 -59.001 127 -129.001 127c-29.333 0 -55.333 -6.66699 -78 -20l1 -1c-36 -26 -57 -57.667 -63 -95
c16.667 -2 31.334 -6.33301 44.001 -13l44 36c22 16.667 39 25 51 25c30 0 48.333 -21 55 -63l-1 1l2 -12zM402.999 521.001c-4 44 -18.667 66 -44 66c-24.667 0 -37 -16 -37 -48c0 -14 5.33301 -36.667 16 -68zM471.999 524.001l-60 -11l-70 -54l9 -25h3zM431.999 416.001
l-35 -28l35 1v27zM327.999 463.001c-12 34.667 -18 59.999 -18 75.999c0 7.33301 1 14.333 3 21l-38 -29c22 -15.333 38.667 -38.666 50 -69.999zM339.999 430l-8 22l-3 -3l6 -23zM222.999 601l-68 -52c17.333 4 35 5.33301 53 4c2.66699 17.333 7.66699 33.333 15 48z
M253.999 530c-10.667 4.66699 -22.333 7.99902 -35 9.99902c-0.666992 -5.33301 -1 -10.333 -1 -15c0 -7.33301 0.333008 -14.666 1 -21.999zM420 376.999h-38l-21 -16c0 -3.33301 -0.333008 -13.333 -1 -30zM363 376.999h-5l1 -3zM315 452.999
c-11.333 33.333 -28 57 -50 71l-44 -34c2 -10 4.33301 -20 7 -30c4 -4 8.66699 -12.833 14 -26.5s8.33301 -23.5 9 -29.5zM324 417.999c-1.33301 8.66699 -3 16.333 -5 23l-50 -37l49 9zM421 421.998h-63c-6.66699 -5.33301 -14.667 -11 -24 -17l-1 -1l-10 -2l-60 -46
c2.66699 -8.66699 5 -18 7 -28c4.66699 3.33301 30.667 23.333 78 60l30 1zM213 469.998l-2 12l-12 -9c5.33301 0 10 -1 14 -3zM297 396.998l-45 -9l7 -20zM434 242.998l-24.999 -18.999c9.33301 3.33301 17.666 9.66602 24.999 18.999zM348.001 365.999l-1 6l-74 -57l1 -6z
M224.001 433.999l-5.99902 20c-6.66699 5.33301 -14.334 8 -23.001 8c-20 0 -32 -12 -36 -36c4 3.33301 7.66699 6 11 8h54zM349.002 351.999l-69 -53v-29l69 52v30zM241.002 388.999l-6 33h-58v-33h64zM490.002 194.999l-79.999 -62.001c15.333 2 29.666 8.66699 42.999 20
l1 -2c13.333 10.667 25.333 25.334 36 44.001zM499.003 215.998l-40.999 40c-4.66699 -7.33301 -13 -18 -25 -32l-98 -76c11.333 -4.66699 29.666 -9.66699 54.999 -15zM208.004 494.998c-2 16 -2.33301 31.334 -1 46.001h-11
c-34.667 1.33301 -60.334 -5.33398 -77.001 -20.001h-1c-42.667 -24.667 -64 -65.334 -64 -122.001c0 -14.667 2 -31 6 -49l86 66c0.666992 18.667 7.33398 34.334 20.001 47.001zM165.004 385.999v30l-7 -6c0.666992 -7.33301 2 -16 4 -26zM260.004 319.999
c-2 8.66699 -4.33301 18 -7 28l-52 -40h44zM249.004 359.999l-4 13l-64 -48l5 -13zM230.004 376.999l-57.001 -0.000976562l-7 -6c2.66699 -9.33301 6.33398 -20.666 11.001 -33.999zM395.003 208.998h-5l-72 -55l3 -1zM263.003 293.998v2.00098h-14l-43 -32l52 -1
c4 11.333 5.66699 21.666 5 30.999zM347.003 305.999l-69.001 -53c-1.33301 -0.666992 -5.66602 -1 -12.999 -1c-4.66699 -9.33301 -11 -17.333 -19 -24l1 -1l-51 -39c-1.33301 -10.667 -3.33301 -21 -6 -31l3 -22l122 93c15.333 12 26 38 32 78zM373.002 210.999
c-11.333 2 -28.666 4.33301 -51.999 7l-100 -76c31.333 12 52.666 18 63.999 18c4.66699 0 10.667 -0.666992 18 -2zM412.002 120.999c-7.33301 -0.666992 -13.667 -0.999023 -19 -0.999023l-44 -34c-4 -8.66699 -8 -16.334 -12 -23.001zM152.001 376
c-2.66699 10 -4.33301 18.667 -5 26l-83 -64c2 -7.33301 4.33301 -15.333 7 -24zM377.002 123c-6.66699 1.33301 -24.667 7 -54 17l-11 -9l33 -33zM252.002 252h-57c0.666992 -8.66699 1.33398 -20.667 2.00098 -36c25.333 6.66699 43.666 18.667 54.999 36zM310.002 144
l-4 1l-4 -3l2 -2zM167.002 329c-4.66699 13.333 -8.33301 25 -11 35l-131 -100h57zM229.003 296h-50l-7 21l-81 -61c14.667 -44.667 21 -76 19 -94l64 49l11 2c0 5.33301 -0.666992 13 -2 23s-2 17.333 -2 22l4 4zM60.0029 308c-2.66699 7.33301 -5 14.667 -7 22l-28 -22h35
zM289.003 148.001h-6.99902c-8.66699 0.666992 -23.334 -3.33301 -44.001 -12c-27.333 -11.333 -42.666 -17.333 -45.999 -18l-19 -14c6 -0.666992 15.167 -2.16699 27.5 -4.5s22.166 -3.5 29.499 -3.5c19.333 0 39 17.333 59 52zM48.0039 296.001h-35v-26zM182.004 127.001
v4l-3 -7zM175.004 187.001l-1 8.00098l-66 -50c-0.666992 -2.66699 -1.66699 -6.33398 -3 -11.001zM337.004 89.002l-34.001 34.999l-33 -25h-1c-11.333 -10 -24.333 -15 -39 -15c-8 0 -20 1.33301 -36 4s-27.667 4.33398 -35 5.00098l-98 -75
c27.333 11.333 47.333 17 60 17s31.334 -4.66699 56.001 -14s43.667 -14 57 -14c40.667 0 75 27.333 103 82zM178.003 158.001l-2 15.001l-93 -71l-1 1c-14.667 -13.333 -35 -22.333 -61 -27l9 -67l119 91c12 9.33301 21.667 28.666 29 57.999zM90.0029 131.002l-50.001 -38
c24.667 8 41.334 20.667 50.001 38z" />
    <glyph glyph-name="currency" unicode="&#xa4;" horiz-adv-x="580" 
d="M602 466c-1.33301 -4 -70 -57.998 -206 -161.998c0.666992 -16.667 2.33398 -31.334 5.00098 -44.001c19.333 16 48.666 38.333 87.999 67h2l109 -5c0 -90 -20.333 -150.667 -61 -182l-164 -125c-30 -22.667 -64.333 -34 -103 -34c-103.333 0 -162 69.667 -176 209h-99
l97 79v18h-97l107 86c13.333 65.333 39.333 112.666 78 141.999l163 126c24 18 56 27 96 27c54 0 95.333 -19.333 124 -58c26 -35.333 38.333 -80.333 37 -135v-9zM590 472.002c-2 122.667 -51.668 184 -149.001 184c-72 0 -121.667 -38 -149 -114c24 -2 45 -7.66699 63 -17
l61 46v-1c6.66699 5.33301 14.334 8 23.001 8c26.667 0 43 -35.667 49 -107zM476.999 470.002c-1.33301 18.667 -4.66602 37 -9.99902 55c-8 27.333 -17.333 41 -28 41c-22.667 0 -36.334 -26 -41.001 -78c4 -5.33301 8 -11.333 12 -18h67zM578.999 460.002
l-106 -0.000976562l-45 -35c4 -15.333 7 -32.666 9 -51.999h29zM395.999 541.001l-30 -23c8 -5.33301 15 -11.333 21 -18c2 16 5 29.667 9 41zM451.999 458.001h-36.001c2.66699 -6 5.33398 -13 8.00098 -21zM303.998 594.001l-76 -57.999
c18.667 5.33301 36 7.66602 52 6.99902c6 18.667 14 35.667 24 51zM576.998 311.002l-80 3.99902c-0.666992 -31.333 -4 -55.666 -10 -72.999zM344.998 517.001c-16.667 7.33301 -35.666 11.668 -56.999 13.001c-6.66699 -20.667 -11.334 -43.334 -14.001 -68.001z
M424.999 373.003c-1.33301 15.333 -3.66699 30 -7 44l-24 -18v-26h31zM449.998 362.003h-12v-10zM425.998 346.003v16h-44v28l-57 -44v0h101zM587.998 304.003l-151.999 -116.001c-0.666992 -25.333 -3.33398 -48.666 -8.00098 -69.999h8
c51.333 -2.66699 90 15.666 116 54.999c22 32.667 34 76.334 36 131.001zM484.999 309.002l-81 -62c7.33301 -22.667 19.333 -34 36 -34c4 0 12 3.66699 24 11c12 14.667 19 43 21 85zM388.999 458.002l-74 -57c2.66699 -8.66699 4.66699 -17.667 6 -27
c20 16 42.667 32.667 68 50h18l7 6c-3.33301 10 -7 19.333 -11 28h-14zM311.999 412.002l72.999 56l1 17c-8.66699 10 -18.667 18.333 -30 25l-76 -58c12.667 -2.66699 23.334 -16 32.001 -40zM301.998 405.002c-8 24 -16.999 36 -26.999 36
c-10.667 0 -19.334 -5.66699 -26.001 -17h21c-0.666992 -3.33301 -1 -16 -1 -38v-6zM309.999 366.002c-1.33301 9.33301 -3 18.333 -5 27l-62 -48h40zM246.999 441.002l-22 -17.001h11c3.33301 6.66699 7 12.334 11 17.001zM249.999 458.001h-15l-46 -34h16z
M275.999 531.001c-81.333 -0.666992 -133.667 -49.333 -157 -146c26 18.667 63 47 111 85v0h33c2.66699 22 7 42.333 13 61zM415.998 334.002h-107.001l-36 -27c2.66699 -22 6.33398 -41.667 11.001 -59v0c22.667 18.667 57 44.667 103 78c0.666992 0.666992 7 1 19 1z
M433.997 202.002c-18 2 -31 14.667 -39 38l-51 -39l84 -4zM245.997 362.002h-11l-1 -1l-1 -9zM390.997 252.002c-3.33301 12 -5.33203 26.334 -5.99902 43.001l-93 -71c7.33301 -20.667 16.666 -38.334 27.999 -53.001c0.666992 10.667 1 20.667 1 30c2 0 25.333 17 70 51z
M267.998 333.003h-40l-8 -6h40zM220.998 350.003l-29 -23h8l21 16v7zM423.998 179.003l-59.001 -45c15.333 -8 32.333 -13 51 -15c4.66699 18.667 7.33398 38.667 8.00098 60zM412.997 186.003l-80.001 4c0 -12 -0.666992 -22.667 -2 -32
c6.66699 -6.66699 14.334 -12.667 23.001 -18zM189.996 412.003h-16l-59 -45l-3 -15zM481.996 112.003c-17.333 -4.66699 -36 -6.66699 -56 -6c-6 -20.667 -13.667 -39 -23 -55zM271.996 248.003c-4 15.333 -7.33398 32.001 -10.001 50.001
c-3.33301 -2.66699 -8.66602 -6.33398 -15.999 -11.001h-16v-25v-14h42zM343.995 133.004c-5.33301 3.33301 -10.333 7 -15 11c-1.33301 -10 -3.33301 -19 -6 -27zM100.995 356.004l-15 -11h13zM184.995 315.004h-11l-69 -52v-9zM318.995 155.004
c-15.333 16.667 -27.667 37.333 -37 62l-35 -27h-15c2.66699 -68 17.667 -102 45 -102c22.667 0 36.667 22.333 42 67zM413.994 107.003c-22 2.66699 -41.667 9 -59 19l-37 -29c-18.667 -14 -32.334 -21 -41.001 -21c-34.667 0 -53.667 38 -57 114
c-0.666992 7.33301 -1 10 -1 8c1.33301 1.33301 18 14 50 38h-51l1 42l-111 -85c12.667 -134 67.334 -201 164.001 -201c74 0 121.333 38.333 142 115zM243.994 315.003h-39.999c-22.667 -18.667 -57.334 -45 -104.001 -79h-29l-41 -35h70zM92.9951 254.003l-7 -6h7v6z
M241.995 408.003l6 4h-4zM99.9951 299.003l127.001 97l4 16h-22c-22.667 -18.667 -57.334 -45 -104.001 -79h-34l-41 -34h70zM223.996 379.003l-118 -90v-11l117 89zM256.996 405.003l-19 -16l-3 -16h22v32z" />
    <glyph glyph-name="yen" unicode="&#xa5;" horiz-adv-x="498" 
d="M534 663l-69 -182h65v-56l-54 -41h54v-56l-123 -94v-109l-169 -128h-115v203h-117v57l54 40h-54v57l50 37l-50 143l168 129h114l25 -83l105 81l1 2h115zM508 651h-80l-27 -81zM412 641l-95 -73l9 -30h34l25 19zM518 435v28l-37 -28h37zM513 640l-118 -90l-38 -116
l-38 -31l-13 -36l145 112zM506 423h-40l-33 -25l-5 -14h28zM446 423h-4l-1 -4zM378 537l-11 -9l-21 -54l6 -19zM266 651h-81l17 -48zM518 338v28l-37 -28h37zM353 526h-23l10 -34zM314 538l-7 23l-30 -23h37zM303 573l-23 75l-74 -57l35 -98l14 45h3zM506 469h-48l-148 -113
h48l65 49l11 30h28zM506 372h-46l-45 -34h46zM345 438l-6 18l-12 -32zM415 384l-49 -37v-2l48 37zM441 372h-20l-55 -42v-15zM506 326h-41l-58 -45v-32zM333 474l-16 52h-53l-30 -91h28l17 -47l30 23zM446 326h-39v-30zM192 595l-18 53l-144 -110h87zM233 481l-37 102
l-70 -53l21 -69l26 20h60zM354 309v12l-15 -12h15zM230 459l-32 -24h24zM224 469h-43v-32zM241 423h-11l-3 -11zM268 384l-13 35l-34 -26l-3 -9h50zM395 287v33l-80 -61h43zM354 336v8h-70l17 46l-68 -52h66v-29h20zM395 240v32l-29 -22v-32zM169 432v31l-18 -14l8 -25z
M346 297h-23l-24 -18v-18zM304 297h-5v-3zM287 309v11l-13 -11h13zM218 423h-35l-19 -15l7 -24h19l20 16zM259 372h-45l-11 -34h10zM287 285v12h-8l-11 -27zM354 212v35h-54l-1 -1v-34h55zM202 372h-8l-13 -10v-11l4 -13h5zM287 259v11l-14 -11h14zM137 453l-22 73h-94
l45 -127zM395 134v91l-34 -25h-62v-66h96zM149 416l-8 25l-71 -54l9 -24zM287 212v25l-32 -25h32zM169 335v14l-1 4l-67 -52l6 -14zM161 375l-7 26l-125 -92h46zM181 313l-4 12l-66 -50l4 -12zM276 326h-58l-104 -79h-40l-45 -35h98zM69 356l-9 24l-31 -24h40zM287 131v69
h-44v-103zM383 122h-88l-52 -40v-67zM280 247h-33l22 59l-134 -103v-188l96 73v120zM54 344h-37v-29zM104 259l-3 8l-11 -8h14zM97 279l-7 18h-11l-50 -38h41zM55 247h-38v-29zM231 9v64l-84 -64h84z" />
    <glyph glyph-name="dieresis" unicode="&#xa8;" horiz-adv-x="402" 
d="M372 564l-168 -129h-87v24l-31 -24h-86v104l168 128h86v-24l31 24h87v-103zM348 655h-55v-42zM360 573v76l-67 -51v-25h67zM281 604v45l-27 -21v-45zM231 655h-55v-42zM242 634v15l-66 -51v-15zM242 574v45l-61 -46h59zM281 570v19l-73 -56v-19zM348 561h-59l-81 -62v-46
zM225 561h-53l-25 -19h53zM164 604v45l-141 -107h59zM164 569v20l-74 -56v-20zM190 530h-59l-2 -2v-45zM196 505v14l-67 -51v-15zM196 447v43l-56 -43h56zM117 474v45l-27 -21v-45zM78 504v26h-66v-77zM78 447v42l-55 -42h55z" />
    <glyph glyph-name="copyright" unicode="&#xa9;" horiz-adv-x="679" 
d="M596 671l-287 -558h-2l-164 -125h-72l173 337c-37.333 -30 -79.333 -62 -126 -96h-77v227l-43 -7v54l4 1l160 123v1c30.667 7.33301 57 19 79 35h46v-255l71 138h2l164 125h72zM568 659h-39l-25 -48zM508 644l-129 -98h40l63 48zM264 651h-20l-70 -54v-9l11 2zM189 624
c-3.33301 -1.33301 -8.33301 -3 -15 -5v-7zM569 646l-77 -60l-238 -461h48zM275 385v260l-65 -50l7 1v-230h49zM162 584v4l-66 -51h5zM470 569l-43 -32l-229 -446l42 32zM162 603v9l-127 -97c16.667 6.66699 30 13.667 40 21zM205 363v214l-82 -63v-213zM111 520v5h-6
l-78 -59l18 3zM85 525h-5c-20.667 -14 -44 -24.333 -70 -31v-26zM413 534h-48l-78 -152v-25c-1.33301 -0.666992 -8.33301 -5.66699 -21 -15l-168 -328l78 60zM260 354h-47l-90 -68v-39l134 102zM111 292v213l-58 -45v-213zM111 241v36l-46 -36h46zM288 113h-41l-61 -47
l-27 -52zM164 49l-66 -50h40zM700 198l-34.999 -26v-46v-1c-0.666992 -0.666992 -19.334 -15 -56.001 -43l-112 -85h-77v74h-98v52l93 182h1l164 125h85v-178h35v-54zM642.001 418h-56l-36 -70zM653.001 253v159l-56 -44v-87l-1 -38l-46 -35h45zM677.001 196h-12v-9z
M585.001 331l-36 -79h36v79zM565.001 404l-129 -99h57l35 26zM677.001 241h-19l-62 -48v-14zM576.001 339l-51 -39l-24 -47v-28l34 25zM688.001 235v-27h-30l-62 -47v3zM653.001 178v12l-57 -44v-12zM653.001 134v29l-38 -29h38zM573.001 241h-31l-41 -31v-2h29z
M572.001 196h-38l-33 -25v-29zM489.001 255v17l-55 -43v-20l52 40zM584.001 169v15l-75 -57h19zM515.001 196h-14v-10zM584.001 152v3l-48 -37v-3zM584.001 131v6l-48 -37v-5zM485.001 212v23l-50 -40l-1 -22zM642.001 122h-42l-67 -51h-8l-24 -18v-38zM490.001 287v6h-68
l-77 -151l53 41l27 55zM490.001 177v16l-55 -43v-17zM422.001 205l-3 -7l3 3v4zM525.001 86v5l-12 -8h8zM422.001 163v23l-14 -11l-16 -34zM422.001 141l-19 -14h19v14zM525.001 106v9h-35l-58 -41v-59l58 44v21zM490.001 133v29l-61 -47h-41l-43 -32h79zM490.001 9v35
l-47 -35h47zM387.001 159l-54 -41v-29l35 26h-1z" />
    <glyph glyph-name="ordfeminine" unicode="&#xaa;" horiz-adv-x="374" 
d="M399 389h0.998047l-165 -125h-90l-1 3c-2 3.33301 -3.66699 8.33301 -5 15c-17.333 -16 -35.666 -24 -54.999 -24c-23.333 0 -41.666 8 -54.999 24s-20 35.667 -20 59c0 32.667 9 56 27 70l51 39l-68 9l1 6c4.66699 28 18.667 50.667 42 68l155 119
c21.333 12.667 45.333 18.667 72 18c36 -1.33301 61.333 -9.33301 76 -24c16.667 -16.667 25 -51 25 -103v-110c0 -12.667 2 -24.667 6 -36zM298.998 568v20c0 12 -4.66699 18 -14 18c-10.667 0 -17 -8.66699 -19 -26v-3l-27 -21c17.333 6.66699 37.333 10.667 60 12z
M255.998 589l-3 -2h2zM382.998 401c-3.33301 11.333 -5.00098 22 -5.00098 32v110c0 48.667 -7 80 -21 94s-36.667 21 -68 21c-52 0 -82.667 -21 -92 -63l39 -6l29 23c10.667 4 17.334 6 20.001 6c17.333 0 26 -10 26 -30v-28l-4 -3l-88 -67c0 -2 0.666992 -5 2 -9l49 38
l13.5 4c9 2.66699 15.5 4 19.5 4h7v-70l-1 -1c-4 -6 -8.66699 -10.333 -14 -13l-60 -47c4 -0.666992 8.33301 -1 13 -1c8 0 16.333 2 25 6l30 23l9 10l1 -14c0.666992 -6 2 -12.333 4 -19h66zM283.997 555c-38.667 -5.33301 -66 -17.333 -82 -36
c5.33301 -5.33301 9.33301 -11.333 12 -18zM244.997 576l-5 1l-57 -44c0.666992 0 2 -0.666992 4 -2zM297.997 461v48l-33 -25c-0.666992 -4 -1 -6.33301 -1 -7c0 -18 5.33301 -27 16 -27c6.66699 0 12.667 3.66699 18 11zM222.997 579l-31 4l-52 -39
c12 -1.33301 22 -3 30 -5zM192.997 618l-102 -77c9.33301 2 19.333 3 30 3l64 49c1.33301 8.66699 4 17 8 25zM253.997 492l-31 -24v-1l31 23v2zM204.997 494c-2.66699 5.33301 -6 10.334 -10 15.001c-4.66699 -8.66699 -7.66699 -18.334 -9 -29.001zM271.997 440.001
c-12 4 -18.667 15.333 -20 34l-27 -21c0.666992 -10 1 -21.667 1 -35v-14zM209.997 473.001c0 2.66699 -0.666992 5.66699 -2 9l-23 -18c0 -2.66699 0.333008 -6 1 -10zM175.997 523.001c-0.666992 0.666992 -2.00098 1.33301 -4.00098 2l-44 -34
c0.666992 0 2.33398 -0.333008 5.00098 -1zM211.996 458v2l-24 -19l1 -1zM180.996 507l-37.001 -29c2 -4.66699 3 -9.66699 3 -15v-13l26 20c0.666992 14 3.33398 26.333 8.00098 37zM305.995 397l-3 11l-77 -58v-14zM379.995 389h-65l-89 -68v-13l8 -28zM213.995 405v13
c0 10 -0.333008 18.667 -1 26l-20 -15c5.33301 -10.667 12.333 -18.667 21 -24zM250.995 384c-0.666992 -0.666992 -1.66797 -1 -3.00098 -1c-7.33301 0 -14.666 1.33301 -21.999 4v-22zM157.994 529c-10.667 2 -21.667 3 -33 3l-84 -64l51 -6c0.666992 6 3.66699 14 9 24z
M119.994 481c-6.66699 -0.666992 -11.333 -4.66699 -14 -12zM103.995 531c-36 -4.66699 -58.667 -22 -68 -52zM178.995 433l-1 1l-42 -33h2zM134.995 443v19.999c0 2.66699 -0.333008 5.33398 -1 8.00098l-47 -36c14 4 30 6.66699 48 8zM210.995 392.999
c-11.333 6.66699 -20.333 16.333 -27 29l-38 -30v-49zM213.995 326.998v14l-64 -49l2 -12zM222.995 275.998c-6 20 -9 30.667 -9 32v4l-48 -36h57zM213.995 354.998v24.998l-78 -59c-6.66699 -5.33301 -13 -8 -19 -8c-7.33301 0 -13.333 2.33301 -18 7
c-7.33301 7.33301 -11 18 -11 32c0 18.667 6 32.334 18 41.001l69 53c0 1.33301 -0.333008 4.33301 -1 9l-31 -23h-2c-80 -5.33301 -120 -35.666 -120 -90.999c0 -20 5.5 -36.833 16.5 -50.5s26.5 -20.5 46.5 -20.5c12 0 30.333 9.33301 55 28zM133.995 335.996
l0.000976562 53c-22.667 -2.66699 -34 -15 -34 -37c0 -18 5.66699 -27 17 -27c2.66699 1.33301 7 3.33301 13 6c1.33301 1.33301 2.66602 3 3.99902 5zM142.996 431.996z" />
    <glyph glyph-name="guillemotleft" unicode="&#xab;" horiz-adv-x="461" 
d="M454 441l-50 22l-51 -99zM448 422l-108 -83l-12 -23l18 -35l51 39zM458 192l-59 115l-47 -36l52 -102zM318 322l-12 -9l-1 -2l12 9zM423 164l-18 -8l-103 -79l2 -4zM294 67l-1 3l-12 -9zM284 269l13 -25l40 30l-17 33l-27 -21zM266 326l-6 -10l15 -28l8 6l10 20zM293 381
l-22 -44l30 -13l30 23l53 103zM202 93l-45 -34l-70 -31l-83 163l81 157l168 130l73 -33l-21 -41l96 74l73 -33l-66 -129l65 -128l-168 -129l-70 -31zM259 136l-48 -36l29 -56l47 37zM326 188l-58 -44l29 -56l97 75l-52 100l-39 -30zM306 441l-49 22l-52 -99zM260 342l11 22
l-22 -17zM219 297l30 23l6 11l-15 7zM301 422l-108 -83l-12 -23l17 -34l34 66l51 40zM237 450l-135 -103l51 -23l30 23zM223 233l15 -28l33 65zM265 280l-13 27l-45 -34l-2 -4l13 -25zM288 237l-10 20l-23 -46zM311 192l-18 34l-47 -36l11 -21zM171 322l-12 -9l-1 -2l12 9z
M189 274l-17 33l-27 -21l-38 -75zM146 314l-53 24l-65 -127l108 83zM185 256l-87 -67l51 -101l39 30l-37 73zM208 237l-10 19l-23 -45zM231 192l-17 34l-49 -37l33 -64l48 37l-15 29v1zM194 107l-39 -30l2 -4l39 30zM251 151l-47 -36l2 -5l47 37zM275 164l-14 -7l2 -3z
M140 81l-57 110l2 2l38 77l-105 -81l74 -145zM147 67l-2 3l-12 -9z" />
    <glyph glyph-name="registered" unicode="&#xae;" horiz-adv-x="671" 
 />
    <glyph glyph-name="acute" unicode="&#xb4;" horiz-adv-x="387" 
d="M357 688l-127 -147h-1l-166 -125h-63l77 147h2l166 125h112zM326 676h-78l-52 -100zM302 642l-117 -89h39zM227 661l-129 -98h77zM210 541h-34l-5 -3l-66 -77zM167 551h-83l-56 -108zM125 502l-98 -75h34z" />
    <glyph glyph-name="periodcentered" unicode="&#xb7;" horiz-adv-x="307" 
d="M307 386c0 -26 -11 -46.333 -33 -61l1 -1l-164 -126l-1 2c-12 -7.33301 -24.667 -11 -38 -11c-20 0 -37 7 -51 21s-21 31 -21 51c0 24 9.66699 43.333 29 58l-1 1l164 125l1 -1c12.667 9.33301 27 14 43 14c19.333 0 36 -7 50 -21s21 -31 21 -51zM296 386
c0 16.667 -6.00195 30.834 -18.002 42.501s-26 17.5 -42 17.5c-17.333 0 -31.666 -5.83301 -42.999 -17.5s-17 -25.834 -17 -42.501s5.83301 -30.834 17.5 -42.501s25.834 -17.5 42.501 -17.5c16 0 30 5.83301 42 17.5s18 25.834 18 42.501zM243.998 315
c-4.66699 -0.666992 -7.33301 -1 -8 -1c-20 0 -37 7 -51 21s-21 31 -21 51c0 9.33301 1.66699 18.333 5 27l-106 -81c4.66699 0.666992 7.66699 1 9 1c20 0 37 -7 51 -21s21 -31 21 -51c0 -9.33301 -1.66699 -18 -5 -26zM131.999 261c0 16.667 -5.83301 30.834 -17.5 42.501
s-25.834 17.5 -42.501 17.5s-30.834 -5.83301 -42.501 -17.5s-17.5 -25.834 -17.5 -42.501s5.83301 -30.834 17.5 -42.501s25.834 -17.5 42.501 -17.5s30.834 5.83301 42.501 17.5s17.5 25.834 17.5 42.501z" />
    <glyph glyph-name="periodcentered" unicode="&#x2219;" horiz-adv-x="307" 
d="M307 386c0 -26 -11 -46.333 -33 -61l1 -1l-164 -126l-1 2c-12 -7.33301 -24.667 -11 -38 -11c-20 0 -37 7 -51 21s-21 31 -21 51c0 24 9.66699 43.333 29 58l-1 1l164 125l1 -1c12.667 9.33301 27 14 43 14c19.333 0 36 -7 50 -21s21 -31 21 -51zM296 386
c0 16.667 -6.00195 30.834 -18.002 42.501s-26 17.5 -42 17.5c-17.333 0 -31.666 -5.83301 -42.999 -17.5s-17 -25.834 -17 -42.501s5.83301 -30.834 17.5 -42.501s25.834 -17.5 42.501 -17.5c16 0 30 5.83301 42 17.5s18 25.834 18 42.501zM243.998 315
c-4.66699 -0.666992 -7.33301 -1 -8 -1c-20 0 -37 7 -51 21s-21 31 -21 51c0 9.33301 1.66699 18.333 5 27l-106 -81c4.66699 0.666992 7.66699 1 9 1c20 0 37 -7 51 -21s21 -31 21 -51c0 -9.33301 -1.66699 -18 -5 -26zM131.999 261c0 16.667 -5.83301 30.834 -17.5 42.501
s-25.834 17.5 -42.501 17.5s-30.834 -5.83301 -42.501 -17.5s-17.5 -25.834 -17.5 -42.501s5.83301 -30.834 17.5 -42.501s25.834 -17.5 42.501 -17.5s30.834 5.83301 42.501 17.5s17.5 25.834 17.5 42.501z" />
    <glyph glyph-name="ordmasculine" unicode="&#xba;" horiz-adv-x="376" 
d="M402 526c0 -58 -14.667 -98.001 -44 -120.001l-164 -126c-19.333 -14.667 -43.333 -22 -72 -22c-32.667 0 -59 10 -79 30c-25.333 24.667 -38 62.334 -38 113.001c0 58 18.667 101.333 56 130l164 125c12 9.33301 32.333 14 61 14c40 0 70 -14.333 90 -43
c17.333 -25.333 26 -59 26 -101zM390 525.999c0 48 -11.332 83.334 -33.999 106.001c-17.333 17.333 -40.666 26 -69.999 26s-53 -8.66699 -71 -26c-19.333 -19.333 -30.333 -48.333 -33 -87l86 66c4.66699 4 10.667 6 18 6s13.333 -2.66699 18 -8
c11.333 -10.667 16.666 -36.334 15.999 -77.001v-6v-4c0.666992 -43.333 -5 -70.333 -17 -81l-17 -15l-34 -26c11.333 -3.33301 22.666 -5 33.999 -5c69.333 0 104 43.667 104 131zM308.001 532c0.666992 48.667 -6.66602 73 -21.999 73c-14.667 0 -22 -25 -22 -75v-7
c0 -50 7.33301 -75 22 -75c15.333 0 22.666 24.667 21.999 74v10zM281.001 437c-5.33301 1.33301 -9.66699 3.66602 -13 6.99902c-10.667 10.667 -16 37 -16 79v7c0 26 2 45.333 6 58l-77 -58c37.333 -21.333 56.333 -62.666 57 -123.999l1 -1zM187 612l-92.001 -70
c8.66699 2 17.667 3 27 3c17.333 0 33 -3 47 -9h1c0.666992 30 6.33398 55.333 17.001 76zM225.999 413c-2 48.667 -17 82.999 -45 102.999c2 -49.333 17 -83.666 45 -102.999zM312.999 385.999c-9.33301 -2 -18.333 -2.99902 -27 -2.99902c-16.667 0 -31.667 2.66699 -45 8
l-3 -2c-1.33301 -28.667 -7 -53.334 -17 -74.001zM226.999 398c-28 16.667 -45.666 44.334 -52.999 83.001c-2.66699 12 -4.33398 25.333 -5.00098 40l-40 -31c18.667 -5.33301 27.667 -33.333 27 -84v-10c0.666992 -26.667 -1 -46.334 -5 -59.001l76 58v3zM145 406
c0 48.667 -7.66699 73 -23 73c-14.667 0 -22 -24.667 -22 -74v-8c0 -49.333 7.33301 -74 22 -74c15.333 0 23 24.333 23 73v5v5zM226 380l-79 -60.999c-7.33301 -5.33301 -15.666 -8 -24.999 -8c-6.66699 0 -12.334 2.33301 -17.001 7c-11.333 11.333 -17 37.666 -17 78.999
v8c0 41.333 5.66699 67.666 17 78.999c0 1.33301 1 3 3 5v0l50 38c-11.333 4 -23.333 6 -36 6c-29.333 0 -52.666 -8.66699 -69.999 -26c-23.333 -23.333 -35 -58.666 -35 -105.999s11.667 -82.333 35 -105c17.333 -17.333 40.666 -26 69.999 -26
c62 0 96.667 36.667 104 110z" />
    <glyph glyph-name="guillemotright" unicode="&#xbb;" horiz-adv-x="450" 
d="M23 65l50 -23l51 100zM29 84l108 83l12 23l-18 34l-50 -38zM19 313l59 -114l47 36l-52 102zM159 183l12 10l1 2l-12 -9zM54 342l19 8l102 78l-2 4zM183 439l2 -3l11 9zM193 236l-13 26l-39 -30l17 -33l26 20zM211 179l6 11l-15 28l-8 -7l-10 -19zM184 125l22 44l-30 13
l-30 -23l-53 -104zM276 413l44 34l70 31l84 -163l-82 -158l-168 -129l-73 32l21 41l-96 -73l-72 32l65 130l-65 128l168 129l70 31zM218 369l48 37l-28 55l-48 -36zM151 318l58 44l-28 55l-98 -74l52 -101l40 31zM171 65l50 -23l51 100zM217 164l-11 -22l22 17zM258 208
l-30 -22l-6 -12l15 -6zM176 84l109 83l11 23l-17 33l-34 -66l-51 -39zM241 55l135 104l-52 23l-30 -23zM254 272l-15 29l-33 -65zM212 225l13 -26l45 34l2 3l-13 26zM189 269l11 -20l23 45zM167 313l17 -33l47 36l-11 21zM307 183l11 10l2 2l-12 -9zM288 232l17 -33l27 20
l38 75zM331 192l53 -24l65 126l-108 -83zM293 250l87 67l-52 100l-39 -30l37 -72zM269 269l10 -20l23 45zM246 314l17 -34l49 37l-33 63l-47 -36l14 -29v-1zM283 398l40 30l-3 4l-39 -30zM226 354l48 37l-3 4l-47 -36zM202 342l14 6l-2 3zM338 425l56 -110l-1 -3l-39 -76
l105 81l-74 144zM331 439l1 -3l12 9z" />
    <glyph glyph-name="onequarter" unicode="&#xbc;" horiz-adv-x="679" 
d="M596 671l-287 -558h-2l-164 -125h-72l173 337c-37.333 -30 -79.333 -62 -126 -96h-77v227l-43 -7v54l4 1l160 123v1c30.667 7.33301 57 19 79 35h46v-255l71 138h2l164 125h72zM568 659h-39l-25 -48zM508 644l-129 -98h40l63 48zM264 651h-20l-70 -54v-9l11 2zM189 624
c-3.33301 -1.33301 -8.33301 -3 -15 -5v-7zM569 646l-77 -60l-238 -461h48zM275 385v260l-65 -50l7 1v-230h49zM162 584v4l-66 -51h5zM470 569l-43 -32l-229 -446l42 32zM162 603v9l-127 -97c16.667 6.66699 30 13.667 40 21zM205 363v214l-82 -63v-213zM111 520v5h-6
l-78 -59l18 3zM85 525h-5c-20.667 -14 -44 -24.333 -70 -31v-26zM413 534h-48l-78 -152v-25c-1.33301 -0.666992 -8.33301 -5.66699 -21 -15l-168 -328l78 60zM260 354h-47l-90 -68v-39l134 102zM111 292v213l-58 -45v-213zM111 241v36l-46 -36h46zM288 113h-41l-61 -47
l-27 -52zM164 49l-66 -50h40zM700 198l-34.999 -26v-46v-1c-0.666992 -0.666992 -19.334 -15 -56.001 -43l-112 -85h-77v74h-98v52l93 182h1l164 125h85v-178h35v-54zM642.001 418h-56l-36 -70zM653.001 253v159l-56 -44v-87l-1 -38l-46 -35h45zM677.001 196h-12v-9z
M585.001 331l-36 -79h36v79zM565.001 404l-129 -99h57l35 26zM677.001 241h-19l-62 -48v-14zM576.001 339l-51 -39l-24 -47v-28l34 25zM688.001 235v-27h-30l-62 -47v3zM653.001 178v12l-57 -44v-12zM653.001 134v29l-38 -29h38zM573.001 241h-31l-41 -31v-2h29z
M572.001 196h-38l-33 -25v-29zM489.001 255v17l-55 -43v-20l52 40zM584.001 169v15l-75 -57h19zM515.001 196h-14v-10zM584.001 152v3l-48 -37v-3zM584.001 131v6l-48 -37v-5zM485.001 212v23l-50 -40l-1 -22zM642.001 122h-42l-67 -51h-8l-24 -18v-38zM490.001 287v6h-68
l-77 -151l53 41l27 55zM490.001 177v16l-55 -43v-17zM422.001 205l-3 -7l3 3v4zM525.001 86v5l-12 -8h8zM422.001 163v23l-14 -11l-16 -34zM422.001 141l-19 -14h19v14zM525.001 106v9h-35l-58 -41v-59l58 44v21zM490.001 133v29l-61 -47h-41l-43 -32h79zM490.001 9v35
l-47 -35h47zM387.001 159l-54 -41v-29l35 26h-1z" />
    </font>
</defs>
</svg>
